<svg width="298" height="307" viewBox="0 0 298 307" fill="none" xmlns="http://www.w3.org/2000/svg">
<path d="M53.1452 157.446C0.202525 188.856 0.208487 239.78 53.1452 271.195C106.082 302.611 191.912 302.58 244.855 271.195C297.797 239.81 297.791 188.856 244.855 157.446C191.918 126.037 106.088 126.031 53.1452 157.446Z" fill="#FAFAFA"/>
<path d="M129.547 284.32C143.671 284.32 155.121 277.528 155.121 269.148C155.121 260.769 143.671 253.977 129.547 253.977C115.423 253.977 103.973 260.769 103.973 269.148C103.973 277.528 115.423 284.32 129.547 284.32Z" fill="#E0E0E0"/>
<path d="M172.388 273.412C187.536 273.412 199.816 266.126 199.816 257.138C199.816 248.15 187.536 240.863 172.388 240.863C157.24 240.863 144.96 248.15 144.96 257.138C144.96 266.126 157.24 273.412 172.388 273.412Z" fill="#E0E0E0"/>
<path d="M44.3429 250.1L38.7882 253.395C38.8018 247.778 38.2021 242.177 37.0002 236.698C33.3169 219.107 25.843 216.05 22.2015 209.202C18.3752 201.999 23.2922 197.681 27.929 198.422C32.101 199.078 38.657 204.314 41.9172 215.125C46.2739 229.378 45.2071 243.601 44.3429 250.1Z" fill="#0BB55D"/>
<path opacity="0.5" d="M44.3429 250.1L38.7882 253.395C38.8018 247.778 38.2021 242.177 37.0002 236.698C33.3169 219.107 25.843 216.05 22.2015 209.202C18.3752 201.999 23.2922 197.681 27.929 198.422C32.101 199.078 38.657 204.314 41.9172 215.125C46.2739 229.378 45.2071 243.601 44.3429 250.1Z" fill="white"/>
<path d="M41.0766 248.708C41.0386 248.702 41.0021 248.689 40.9693 248.668C40.9364 248.648 40.9078 248.621 40.8851 248.589C40.8624 248.557 40.8461 248.521 40.837 248.483C40.8279 248.444 40.8263 248.404 40.8322 248.365C43.7765 227.191 34.5861 208.944 27.1242 202.758C27.0945 202.733 27.0698 202.702 27.0515 202.668C27.0333 202.633 27.022 202.595 27.0181 202.555C27.0142 202.516 27.0179 202.477 27.029 202.439C27.04 202.401 27.0582 202.366 27.0825 202.335C27.1053 202.304 27.1341 202.277 27.1671 202.258C27.2002 202.238 27.2369 202.225 27.2748 202.221C27.3128 202.216 27.3513 202.22 27.3879 202.231C27.4245 202.242 27.4585 202.261 27.4878 202.286C35.0629 208.571 44.3844 227.044 41.4103 248.451C41.3985 248.53 41.357 248.602 41.2946 248.65C41.2322 248.698 41.1539 248.719 41.0766 248.708Z" fill="white"/>
<path d="M41.5594 251.739L38.788 253.381L38.335 253.65C37.4232 249.393 34.9855 244.953 30.3665 240.175C24.9489 234.595 17.3976 229.383 18.7326 224.697C20.0676 220.011 26.1588 221.249 30.3665 224.023C34.318 226.663 42.7335 236.286 41.5594 251.739Z" fill="#0BB55D"/>
<path opacity="0.65" d="M41.5594 251.739L38.788 253.381L38.335 253.65C37.4232 249.393 34.9855 244.953 30.3665 240.175C24.9489 234.595 17.3976 229.383 18.7326 224.697C20.0676 220.011 26.1588 221.249 30.3665 224.023C34.318 226.663 42.7335 236.286 41.5594 251.739Z" fill="white"/>
<path d="M40.0867 250.437C40.0192 250.426 39.9574 250.391 39.9119 250.339C39.8663 250.287 39.8396 250.22 39.8364 250.149C39.449 239.774 28.3694 226.341 23.0888 224.136C23.049 224.125 23.0121 224.105 22.9803 224.078C22.9486 224.051 22.9228 224.017 22.9047 223.979C22.8866 223.941 22.8765 223.899 22.8752 223.857C22.8738 223.814 22.8812 223.772 22.8969 223.733C22.9126 223.694 22.9362 223.658 22.9662 223.629C22.9962 223.6 23.0318 223.578 23.0708 223.564C23.1097 223.55 23.1511 223.544 23.1923 223.548C23.2334 223.552 23.2733 223.564 23.3093 223.585C28.8402 225.894 39.9973 239.345 40.4145 250.125C40.4169 250.165 40.4115 250.204 40.3986 250.242C40.3857 250.279 40.3655 250.313 40.3394 250.343C40.3132 250.372 40.2815 250.395 40.2463 250.412C40.2111 250.428 40.173 250.437 40.1344 250.437H40.0867Z" fill="white"/>
<path d="M197.503 44.0469L200.68 58.6614L213.744 66.5199L210.496 51.7522L197.503 44.0469Z" fill="white"/>
<path opacity="0.2" d="M197.503 44.0469L200.68 58.6614L213.744 66.5199L210.496 51.7522L197.503 44.0469Z" fill="black"/>
<path d="M169.342 116.138L210.496 51.7507L197.503 44.0454L246.899 29.7188L255.893 78.6889L242.936 71.0019L201.782 135.383L169.342 116.138Z" fill="white"/>
<path opacity="0.2" d="M169.342 116.138L210.496 51.7507L197.503 44.0454L246.899 29.7188L255.893 78.6889L242.936 71.0019L201.782 135.383L169.342 116.138Z" fill="white"/>
<path d="M242.936 71L201.8 135.381L209.083 143.895L246.232 85.786L259.159 93.4607L255.893 78.687L242.936 71Z" fill="white"/>
<path opacity="0.2" d="M242.936 71L201.8 135.381L209.083 143.895L246.232 85.786L259.159 93.4607L255.893 78.687L242.936 71Z" fill="black"/>
<path d="M176.625 124.707L169.342 116.199L201.8 135.383L209.083 143.897L176.625 124.707Z" fill="white"/>
<path opacity="0.4" d="M176.625 124.707L169.342 116.199L201.8 135.383L209.083 143.897L176.625 124.707Z" fill="black"/>
<path opacity="0.2" d="M246.231 85.786L242.936 71L255.893 78.687L259.159 93.4607L246.231 85.786Z" fill="black"/>
<path d="M62.1385 281.827L110.23 206.776L77.7895 187.531L29.6982 262.582L62.1385 281.827Z" fill="#0BB55D"/>
<path opacity="0.2" d="M62.1385 281.827L110.23 206.776L77.7895 187.531L29.6982 262.582L62.1385 281.827Z" fill="white"/>
<path d="M110.23 206.777L62.1387 281.828L81.5981 270.282L116.673 215.763L110.23 206.777Z" fill="#0BB55D"/>
<path opacity="0.2" d="M110.23 206.777L62.1387 281.828L81.5981 270.282L116.673 215.763L110.23 206.777Z" fill="black"/>
<path d="M196.036 242.322C196.036 245.862 196.036 250.652 196.036 253.696C196.036 254.358 196.036 255.178 196.036 256.262C195.565 259.448 193.271 262.565 189.158 265.003C179.861 270.516 164.788 270.516 155.49 265.003C150.722 262.161 148.374 258.4 148.529 254.676C148.529 254.358 148.588 254.027 148.624 253.684C148.624 253.684 148.624 253.684 148.624 253.647C149.029 250.027 149.316 246.401 149.512 243.002C149.828 237.605 149.786 235.229 149.745 232.326C149.691 228.742 148.243 225.931 144.565 222.752C140.888 219.573 133.575 208.707 133.575 208.707L182.072 183.086L195.857 227.971C195.857 227.971 196.036 238.781 196.036 242.322Z" fill="#FFA8A7"/>
<path d="M182.447 173.787C182.447 173.787 181.536 177.56 177.203 172.562C172.87 167.564 165.777 159.932 158.303 152.588C154.727 149.066 140.376 137.208 130.75 128.241C127.681 124.988 123.324 122.728 120.326 125.08C117.328 127.432 117.346 133.257 119.212 136.136C120.881 138.69 124.457 142.231 127.186 144.773C127.186 144.926 127.156 145.079 127.139 145.232C126.62 149.869 125.696 155.081 125.261 160.698C124.999 164.048 121.089 168.262 121.125 171.723C122.281 176.623 128.593 181.872 133.045 185.535C137.497 189.198 139.452 190.686 139.404 191.844C139.327 193.614 132.097 187.17 128.885 184.904C129.064 195.421 122.52 196.689 122.52 196.689C123.503 198.71 129.076 203.169 137.008 213.6C140.137 217.722 171.988 190.625 171.988 190.625L179.551 185.633L184.873 176.586L182.447 173.787Z" fill="#FFA8A7"/>
<path d="M179.807 183.067C176.827 186.926 165.08 199.237 174.318 215.561C173.68 214.952 173.102 214.281 172.59 213.558C171.267 211.749 170.22 209.743 169.484 207.61C169.455 207.531 169.431 207.457 169.407 207.378C167.309 201.167 168.024 194.84 171.94 189.498C175.021 185.303 180.63 181.223 181.381 176.697C181.381 176.532 181.422 176.366 181.434 176.207C181.565 177.628 181.72 180.605 179.807 183.067Z" fill="#F28F8F"/>
<path opacity="0.5" d="M118.604 127.402C117.412 130.171 117.776 133.981 119.2 136.137C120.869 138.691 124.445 142.231 127.175 144.773L127.139 145.141C128.331 146.2 129.636 147.327 131.055 148.614C134.476 151.707 139 155.7 142.415 158.8C144.125 160.349 152.249 167.068 155.199 169.77C150.663 164.655 140.472 155.376 135.346 150.169C131.478 146.255 125.768 140.792 123.915 138.611C122.061 136.431 120.971 134.936 120.339 134.128C119.618 133.188 119.092 132.106 118.793 130.95C118.495 129.793 118.431 128.586 118.604 127.402Z" fill="#F28F8F"/>
<path d="M127.318 201.208C128.214 201.083 129.076 200.771 129.85 200.291C130.624 199.81 131.294 199.172 131.818 198.415C133.01 196.375 133.242 194.789 132.921 191.604C132.758 190.116 132.465 188.646 132.044 187.212C130.984 186.428 129.875 185.583 128.892 184.891C129.07 195.407 122.526 196.675 122.526 196.675C122.973 197.588 124.362 199.009 126.484 201.257C126.764 201.251 127.038 201.232 127.318 201.208Z" fill="#F28F8F"/>
<path d="M122.079 158.711C121.823 158.95 125.447 162.54 125.828 162.754C127.169 163.526 129.732 162.57 130.841 161.615C131.533 160.995 132.07 160.213 132.408 159.336C133.6 156.396 133.004 153.033 132.408 149.903C132.393 149.653 132.326 149.409 132.212 149.187C132.098 148.965 131.939 148.771 131.746 148.617C131.675 150.259 130.268 150.969 129.231 151.955L126.251 154.767L122.079 158.711Z" fill="#F28F8F"/>
<path d="M130.315 160.641L149.28 180.314L127.139 161.241L130.315 160.641Z" fill="#F28F8F"/>
<path d="M127.723 177.448C128.642 177.136 129.479 176.614 130.173 175.922C130.867 175.229 131.399 174.383 131.729 173.449C132.271 171.85 132.181 170.11 132.074 168.42C132.057 166.98 131.82 165.552 131.371 164.188L122.502 167.287C121.728 168.812 121.102 170.349 121.126 171.709C121.596 173.7 122.83 175.715 124.565 177.65C125.619 177.835 126.7 177.766 127.723 177.448Z" fill="#F28F8F"/>
<path d="M125.362 144.63C129.26 144.262 131.322 146.02 132.181 149.616C132.535 151.66 132.535 153.752 132.181 155.796C131.811 158.466 129.356 161.67 126.185 161.192H126.03C120.904 160.335 120.326 157.517 120.326 152.942C120.326 148.366 121.894 144.955 125.362 144.63Z" fill="#FFA8A7"/>
<path opacity="0.5" d="M129.964 145.691C130.25 145.943 131.901 147.609 131.919 152.215C131.919 157.249 129.476 158.291 126.758 158.744C124.04 159.197 120.393 157.452 120.393 154.965C120.625 158.352 121.716 160.477 126.037 161.2H126.192C129.362 161.678 131.818 158.474 132.187 155.804C132.542 153.76 132.542 151.668 132.187 149.624C131.907 148.09 131.122 146.701 129.964 145.691Z" fill="#F28F8F"/>
<path d="M125.453 160.685C129.029 160.348 130.882 161.953 131.681 165.236C132.002 167.104 132.002 169.015 131.681 170.883C131.347 173.333 129.094 176.249 126.204 175.783H126.061C121.382 174.999 120.852 172.414 120.852 168.249C120.852 164.084 122.282 160.979 125.453 160.685Z" fill="#FFA8A7"/>
<path opacity="0.5" d="M130.417 162.418C130.918 163.184 131.281 165.07 131.013 167.931C130.626 171.673 129.821 173.486 126.668 173.725C123.372 173.964 121.346 172.396 120.994 170.748C121.31 173.468 122.425 175.189 126.09 175.801H126.233C129.124 176.242 131.376 173.351 131.71 170.901C132.031 169.033 132.031 167.122 131.71 165.254C131.484 164.223 131.043 163.256 130.417 162.418Z" fill="#F28F8F"/>
<path d="M125.643 183.323C129.338 182.98 132.104 184.781 132.104 188.051V193.913C132.107 194.649 131.956 195.378 131.662 196.049C131.367 196.721 130.936 197.319 130.397 197.804C129.858 198.289 129.223 198.649 128.537 198.86C127.85 199.071 127.128 199.128 126.418 199.028H126.275C121.418 198.213 121.477 193.656 121.418 191.261C121.358 188.866 122.353 183.635 125.643 183.323Z" fill="#FFA8A7"/>
<path opacity="0.5" d="M130.303 184.363C131.918 186.097 131.287 189.631 131.167 193.116C131.078 195.535 129.856 197.538 126.638 197.538C123.419 197.538 121.977 195.523 121.542 193.545C121.81 195.829 122.734 198.408 126.274 199.002H126.417C127.127 199.103 127.85 199.046 128.536 198.835C129.223 198.624 129.857 198.264 130.396 197.779C130.935 197.294 131.367 196.695 131.661 196.024C131.956 195.353 132.106 194.624 132.103 193.888V188.038C132.124 187.32 131.971 186.608 131.656 185.966C131.342 185.325 130.877 184.774 130.303 184.363Z" fill="#F28F8F"/>
<path d="M84.6738 182.172L164.174 120.223L196.638 139.474L117.114 201.423L84.6738 182.172Z" fill="#0BB55D"/>
<path d="M196.639 139.473L203.922 147.98L123.557 210.401L117.114 201.422L196.639 139.473Z" fill="#0BB55D"/>
<path opacity="0.2" d="M196.639 139.473L203.922 147.98L123.557 210.401L117.114 201.422L196.639 139.473Z" fill="#00342C"/>
<path d="M84.6738 182.172L91.1166 191.157L123.557 210.402L117.114 201.423L84.6738 182.172Z" fill="#0BB55D"/>
<path opacity="0.4" d="M84.6738 182.172L91.1166 191.157L123.557 210.402L117.114 201.423L84.6738 182.172Z" fill="black"/>
<path d="M195.864 227.957C195.883 217.792 196.554 207.639 197.872 197.564C199.273 187.513 198.999 178.914 198.576 176.482C198.152 174.05 198.021 170.522 194.374 166.039C192.657 163.925 188.885 160.851 185.738 157.053C182.591 153.256 179.605 148.968 177.924 146.64C176.243 144.313 172.077 148.055 172.28 155.473C172.447 161.531 176.452 166.829 178.031 169.095C179.933 171.857 181.28 174.528 181.429 176.194C181.56 177.603 181.715 180.592 179.796 183.066C176.816 186.919 165.074 199.23 174.312 215.529V230.505L195.864 227.957Z" fill="#FFA8A7"/>
<path d="M178.687 151.179C178.687 151.179 182.263 156.171 183.413 156.814C184.563 157.457 184.885 155.993 184.885 155.993C183.24 153.617 180.171 149.292 177.936 146.652C178.575 148.065 178.834 149.628 178.687 151.179Z" fill="#FFA8A7"/>
<path opacity="0.6" d="M178.687 151.179C178.687 151.179 182.263 156.171 183.413 156.814C184.563 157.457 184.885 155.993 184.885 155.993C183.24 153.617 180.171 149.292 177.936 146.652C178.575 148.065 178.834 149.628 178.687 151.179Z" fill="white"/>
<path d="M184.885 155.992C184.725 155.725 184.548 155.47 184.355 155.227C184.41 155.547 184.377 155.877 184.259 156.179C184.141 156.481 183.943 156.743 183.688 156.935C184.623 157.217 184.885 155.992 184.885 155.992Z" fill="#F28F8F"/>
<path opacity="0.2" d="M134.404 173.993C137.585 171.306 141.118 169.091 144.899 167.415C149.733 165.161 155.538 163.17 159.573 160.72C164.812 157.535 166.814 153.701 166.433 149.842C166.212 147.655 164.949 145.23 160.109 143.619C158.695 143.142 157.227 142.858 155.741 142.773C153.658 142.697 151.579 142.996 149.596 143.655C140.716 146.418 136.943 150.662 133.963 154.785C130.983 158.907 127.359 161.302 120.851 165.197C118.068 166.857 115.082 168.487 112.447 170.171L112.388 170.214C111.054 170.979 109.771 171.837 108.549 172.78C106.881 174.244 105.414 175.757 104.813 177.356C104.211 178.954 104.509 180.651 106.285 182.256C106.872 182.795 107.581 183.176 108.347 183.364C109.323 183.605 110.323 183.732 111.327 183.744C113.301 183.811 115.276 183.651 117.215 183.266C118.749 182.949 120.254 182.5 121.715 181.925C126.395 180.131 130.701 177.439 134.404 173.993Z" fill="black"/>
<path d="M107.161 92.7005C106.672 94.0297 105.254 96.8472 105.343 97.2025C105.599 98.0821 105.628 99.0152 105.426 99.9097C105.301 100.59 99.5796 102.899 99.5796 102.899L99.4425 101.968C99.3492 101.346 99.4276 100.709 99.669 100.13C100.762 97.6093 101.579 94.9716 102.107 92.2656L107.161 92.7005Z" fill="#FFA8A7"/>
<path d="M105.492 99.3125L99.4424 102.112L99.5556 102.902C99.5556 102.902 105.277 100.593 105.402 99.9128C105.492 99.6923 105.492 99.5024 105.492 99.3125Z" fill="#F28F8F"/>
<path d="M87.1647 111.267L85.3469 130.463C85.2575 131.394 85.8475 131.994 86.5866 132.545L88.4401 133.911C88.645 134.094 88.8856 134.23 89.1457 134.309C89.4057 134.388 89.6793 134.409 89.948 134.371C90.3249 134.311 90.692 134.197 91.0387 134.034H91.0804L91.1936 133.979L112.399 124.074C113.159 123.718 113.815 123.162 114.3 122.464C114.785 121.765 115.084 120.948 115.165 120.093L116.816 102.6C116.825 102.381 116.784 102.164 116.696 101.965C116.608 101.765 116.476 101.591 116.309 101.454L113.144 99.133C112.968 99.0199 112.769 98.95 112.562 98.9288C112.356 98.9075 112.147 98.9355 111.952 99.0105L87.8799 110.25C87.6896 110.349 87.5259 110.494 87.4031 110.673C87.2785 110.848 87.1968 111.052 87.1647 111.267Z" fill="#37474F"/>
<path d="M87.1647 111.267L85.3469 130.463C85.2575 131.394 85.8475 131.994 86.5866 132.546L88.4401 133.912C88.645 134.094 88.8856 134.23 89.1457 134.309C89.4057 134.388 89.6793 134.409 89.948 134.371C90.3249 134.311 90.692 134.198 91.0387 134.034C90.2162 134.334 89.644 133.85 89.7334 132.901L91.4439 114.814C91.4866 114.494 91.6031 114.189 91.7837 113.925L87.3852 110.691C87.2696 110.863 87.1941 111.06 87.1647 111.267Z" fill="#263238"/>
<path d="M91.4435 114.806C91.4935 114.479 91.6171 114.169 91.8044 113.9C91.9917 113.631 92.2375 113.41 92.5222 113.256L115.254 102.641C116.154 102.219 116.815 102.703 116.714 103.713L115.17 120.079C115.088 120.934 114.789 121.752 114.303 122.451C113.817 123.15 113.16 123.705 112.399 124.061L91.1872 133.965C90.2872 134.388 89.6316 133.904 89.727 132.893L91.4435 114.806Z" fill="#455A64"/>
<path d="M115.845 103.407C115.841 103.478 115.841 103.55 115.845 103.621L114.295 119.988C114.228 120.682 113.986 121.347 113.591 121.915C113.197 122.484 112.665 122.936 112.048 123.228L90.8424 133.132C90.7742 133.165 90.702 133.187 90.6278 133.2C90.6278 133.2 90.6278 133.095 90.6278 132.985L92.3383 114.898C92.3637 114.728 92.4276 114.567 92.525 114.428C92.6223 114.288 92.7503 114.174 92.8986 114.095L115.624 103.474C115.692 103.442 115.764 103.419 115.839 103.407M115.839 102.488C115.632 102.495 115.428 102.547 115.243 102.641L92.5052 113.256C92.2205 113.41 91.9747 113.631 91.7874 113.9C91.6001 114.169 91.4765 114.479 91.4264 114.806L89.7338 132.912C89.6623 133.671 90.0139 134.137 90.5801 134.137C90.787 134.129 90.99 134.077 91.1761 133.984L112.382 124.079C113.143 123.724 113.8 123.169 114.286 122.47C114.772 121.771 115.071 120.953 115.153 120.098L116.697 103.732C116.774 102.972 116.417 102.507 115.851 102.507L115.839 102.488Z" fill="#37474F"/>
<path d="M114.175 99.8867L90.0672 111.273C89.7269 111.435 89.4335 111.685 89.216 111.998C88.9986 112.312 88.8647 112.679 88.8275 113.062L86.9561 132.815L87.2839 133.06L89.1732 113.099C89.2053 112.778 89.3177 112.471 89.4994 112.208C89.6811 111.945 89.926 111.735 90.2102 111.598L114.503 100.126L114.175 99.8867Z" fill="#0BB55D"/>
<path opacity="0.2" d="M89.2149 112C88.997 112.312 88.8633 112.677 88.8275 113.06L86.9561 132.813L87.2839 133.058L89.1732 113.096C89.2072 112.777 89.32 112.471 89.501 112.208L89.2149 112Z" fill="black"/>
<path opacity="0.2" d="M89.5009 112.21C89.6809 111.946 89.9255 111.734 90.2102 111.598L114.503 100.126L114.175 99.8867L90.0671 111.273C89.7259 111.436 89.4321 111.687 89.2148 112.002" fill="black"/>
<path d="M105.838 101.529L105.558 104.5L106.624 105.284L107 101.339C107 101.137 106.887 101.039 106.708 101.125L105.838 101.529Z" fill="#0BB55D"/>
<path opacity="0.4" d="M105.838 101.529L105.558 104.5L106.624 105.284L107 101.339C107 101.137 106.887 101.039 106.708 101.125L105.838 101.529Z" fill="black"/>
<path d="M97.6122 103.673L97.1533 108.481L98.1725 109.234L98.9413 108.873L99.3168 104.929C99.333 104.818 99.3744 104.714 99.4376 104.623C99.5008 104.533 99.584 104.459 99.6804 104.408L105.491 101.676L106.683 101.113C106.862 101.027 106.993 101.113 106.975 101.327L106.6 105.272L107.369 104.916L107.828 100.102V100.041C107.823 99.9397 107.797 99.8409 107.752 99.751C107.707 99.6612 107.643 99.5824 107.565 99.5201L107.136 99.2016C107.048 99.1461 106.948 99.1118 106.845 99.1012C106.742 99.0906 106.638 99.104 106.54 99.1403L97.9758 103.14C97.8777 103.192 97.7933 103.267 97.7299 103.36C97.6666 103.453 97.6262 103.56 97.6122 103.673Z" fill="#0BB55D"/>
<path opacity="0.2" d="M98.6318 104.418L98.1729 109.232L98.9417 108.871L99.3172 104.926C99.3334 104.816 99.3748 104.711 99.438 104.621C99.5012 104.53 99.5844 104.457 99.6807 104.405L105.492 101.674L106.684 101.11C106.863 101.024 106.994 101.11 106.976 101.325L106.6 105.269L107.369 104.914L107.828 100.1V100.038C107.828 99.879 107.697 99.8117 107.536 99.8852L98.9715 103.885C98.8787 103.941 98.7998 104.018 98.7408 104.11C98.6819 104.203 98.6446 104.308 98.6318 104.418Z" fill="black"/>
<path d="M104.585 101.309C104.71 101.31 104.83 101.351 104.931 101.426C105.011 101.291 105.123 101.181 105.256 101.105C105.39 101.028 105.541 100.989 105.694 100.991C105.761 100.982 105.829 100.996 105.888 101.03C105.947 101.064 105.994 101.117 106.022 101.181C106.031 101.225 106.031 101.271 106.022 101.315C105.982 101.761 105.922 102.202 105.843 102.638C105.828 102.964 105.704 103.273 105.491 103.514C105.393 103.599 105.275 103.657 105.149 103.682C105.022 103.706 104.892 103.697 104.77 103.655C104.68 103.865 104.513 104.03 104.305 104.115C104.258 104.115 103.656 104.188 103.709 104.115C103.591 104.374 103.394 104.588 103.148 104.722C102.902 104.857 102.62 104.906 102.344 104.862C102.344 104.862 102.183 105.34 101.331 105.235C101.059 105.173 100.805 105.044 100.592 104.858C100.379 104.672 100.213 104.436 100.109 104.17C100.157 103.906 100.246 103.796 100.538 103.68C100.682 103.618 100.836 103.557 100.98 103.484C101.166 103.343 101.325 103.169 101.45 102.969C101.588 102.784 101.768 102.637 101.975 102.54C102.08 102.496 102.195 102.481 102.307 102.499C102.419 102.516 102.525 102.564 102.613 102.638C102.65 102.459 102.741 102.295 102.875 102.173C102.979 102.042 103.124 101.953 103.286 101.922C103.334 101.922 103.721 101.983 103.673 102.087C103.776 101.822 103.955 101.596 104.186 101.438C104.306 101.36 104.444 101.315 104.585 101.309Z" fill="#FFA8A7"/>
<path d="M108.012 92.2556C107.643 94.0135 106.713 95.5938 107.124 97.0699C107.405 98.0683 107.482 97.9642 107.369 98.981C107.306 99.4362 107.198 99.8836 107.047 100.316C106.975 100.524 106.904 100.739 106.826 100.929C106.754 101.154 106.665 101.374 106.558 101.584C106.398 101.843 106.217 102.086 106.016 102.313C105.694 102.732 105.32 103.105 104.901 103.422L104.83 103.465C104.775 103.479 104.717 103.476 104.663 103.458C104.609 103.44 104.562 103.406 104.526 103.36C104.15 102.938 104.43 102.325 104.627 101.903C104.894 101.447 105.053 100.933 105.092 100.402C105.092 100.335 105.092 100.126 105.092 99.7895L104.562 99.6547C104.562 99.6547 102.851 99.2321 102.821 98.3807C102.791 97.5293 103.447 96.7147 103.942 95.7163C104.436 94.7179 104.639 94.0686 105.134 91.4961L108.012 92.2556Z" fill="#FFA8A7"/>
<path d="M106.559 101.608C106.161 102.257 105.673 102.843 105.11 103.347C105.015 103.415 104.938 103.543 104.765 103.556C103.972 103.403 104.348 102.331 104.616 101.847C104.873 101.414 105.035 100.929 105.093 100.426C105.083 100.94 104.948 101.443 104.699 101.89C104.491 102.331 104.103 103.237 104.765 103.439C105.454 102.93 106.058 102.31 106.553 101.602L106.559 101.608Z" fill="#F28F8F"/>
<path d="M104.962 99.6476C104.753 99.5373 104.527 99.4577 104.33 99.3291C104.177 99.2236 104.045 99.0884 103.943 98.9309C103.654 98.5538 103.512 98.0803 103.543 97.6018C103.543 97.6018 103.543 97.5222 103.501 97.6018C103.425 97.8656 103.406 98.1435 103.446 98.4156C103.487 98.6877 103.585 98.9474 103.734 99.1759C103.867 99.3892 104.046 99.5675 104.258 99.6966C104.365 99.764 104.482 99.8136 104.604 99.8436C104.723 99.8926 104.855 99.8926 104.974 99.8436C105.021 99.7701 104.997 99.666 104.962 99.6476Z" fill="#F28F8F"/>
<path d="M118.168 56.9926C114.479 56.6986 111.529 57.452 109.616 62.4439C107.464 68.0851 105.336 72.434 104.252 76.5316C103.167 80.6293 101.605 93.6084 101.605 93.6084C101.605 93.6084 104.395 96.1075 107.464 94.9682L112.113 80.219L118.15 68.2811L118.168 56.9926Z" fill="#E6E6E6"/>
<path d="M160.109 150.117C160.365 149.933 160.747 150.613 160.753 151.042C160.753 152.267 159.978 154.061 158.238 155.654C156.497 157.246 152.319 158.931 151.115 159.556C149.911 160.18 148.219 161.963 147.152 162.832C145.203 164.407 143.415 164.639 142.33 164.333C142.137 164.258 141.961 164.141 141.814 163.992C141.667 163.842 141.553 163.662 141.478 163.463C141.043 162.618 141.025 162.41 141.114 162.367L160.109 150.117Z" fill="#37474F"/>
<path d="M140.059 159.802C140.39 160.908 140.875 161.958 141.502 162.919C141.804 163.119 142.144 163.251 142.5 163.305C142.855 163.36 143.218 163.337 143.564 163.238C145.19 162.832 146.68 161.986 147.879 160.788C148.726 159.958 149.681 159.253 150.716 158.693C151.973 158.08 154.804 156.806 156.032 156.126C157.185 155.49 158.199 154.619 159.012 153.566C159.608 152.721 160.365 151.171 160.288 150.375C159.739 148.721 159.096 147.925 157.987 147.888C156.879 147.851 155.478 148.501 153.654 149.352C153.106 149.609 152.426 149.965 152.128 150.087C150.996 150.577 149.959 151.067 149.148 151.478C148.467 151.875 147.707 152.112 146.925 152.17C146.567 152.199 146.21 152.102 145.912 151.894C145.537 151.606 145.239 151.043 144.893 151.196C144.893 151.196 139.452 155.692 138.999 156.022C138.546 156.353 139.207 157.027 140.059 159.802Z" fill="#455A64"/>
<path d="M152.51 149.779C152.772 149.819 153.024 149.915 153.249 150.06C153.492 150.221 153.716 150.41 153.916 150.624C154.166 150.893 153.821 151.169 153.475 150.893C153.202 150.653 152.902 150.447 152.581 150.281C152.352 150.171 152.094 150.143 151.848 150.201L151.526 150.342C151.484 150.06 152.194 149.754 152.51 149.779Z" fill="#FAFAFA"/>
<path d="M149.625 151.005C149.719 150.934 149.826 150.885 149.94 150.859C150.054 150.834 150.172 150.833 150.286 150.858C150.578 150.919 150.848 151.061 151.067 151.268C151.336 151.512 151.585 151.778 151.812 152.064C151.943 152.254 151.478 152.512 151.305 152.316C151.085 152.067 150.852 151.829 150.608 151.605C150.477 151.495 149.953 151.103 149.601 151.231L149.452 151.305C149.41 151.237 149.452 151.133 149.535 151.084C149.562 151.055 149.592 151.028 149.625 151.005Z" fill="#FAFAFA"/>
<path d="M148.01 151.901C148.16 151.846 148.324 151.846 148.474 151.901C148.662 151.986 148.835 152.102 148.987 152.244C149.256 152.514 149.485 152.824 149.666 153.163C149.815 153.42 149.315 153.616 149.208 153.45C148.974 152.985 148.624 152.592 148.194 152.311C148 152.195 147.781 152.126 147.557 152.109C147.557 152.06 147.61 152.011 147.658 151.993C147.706 151.974 147.926 151.901 148.01 151.901Z" fill="#FAFAFA"/>
<path d="M135.185 149.596C135.185 149.596 138.236 155.152 139.082 156.389C139.351 156.787 140.215 156.512 140.709 156.463C141.301 156.36 141.906 156.36 142.497 156.463C144.071 156.916 144.959 156.72 144.589 154.564C144.512 154.123 144.655 153.829 145.185 153.651C145.584 153.574 145.966 153.423 146.312 153.204C146.342 153.137 146.264 153.069 146.199 153.039C145.935 152.93 145.697 152.764 145.5 152.553C145.304 152.342 145.154 152.09 145.06 151.814C143.97 149.394 142.98 144.402 142.98 144.402L135.185 149.596Z" fill="#FFA8A7"/>
<path d="M112.048 162.017C112.984 160.479 113.49 157.521 115.546 151.5L123.181 157.251L118.806 165.986C118.654 166.382 118.538 166.792 118.461 167.211C117.442 168.748 112.048 162.017 112.048 162.017Z" fill="#FFA8A7"/>
<path d="M109.211 165.302C109.211 165.21 109.181 164.487 109.211 164.401C109.413 163.617 109.884 163.403 110.486 162.968C111.095 162.549 111.653 162.058 112.149 161.504C112.351 161.216 112.387 161.069 112.703 160.941C113.11 160.809 113.54 160.77 113.963 160.826C114.386 160.882 114.792 161.032 115.153 161.265C116.881 162.202 117.411 163.329 117.31 164.548C117.239 165.479 117.161 166.717 117.96 167.268C118.294 167.501 118.818 166.043 118.818 166.043C119.307 166.894 118.615 168.064 118.258 169.785C118.045 170.733 118.029 171.716 118.21 172.67C118.383 174.177 118.586 174.171 119.366 174.275C120.034 174.367 121.941 174.238 123.097 175.065C123.542 175.327 123.896 175.726 124.109 176.204C124.323 176.683 124.386 177.218 124.289 177.736C124.081 178.318 122.346 181.129 116.011 180.075C114.169 179.775 110.307 176.805 110.367 176.523C110.399 176.24 110.399 175.954 110.367 175.671C110.367 175.004 110.319 174.342 110.289 173.675C110.314 173.038 110.278 172.4 110.182 171.77C110.066 171.252 109.987 170.725 109.944 170.196C109.824 168.86 109.703 167.523 109.58 166.184C109.497 165.767 109.163 165.681 109.211 165.302Z" fill="#455A64"/>
<path d="M108.418 165.039C107.822 165.652 108.168 167.49 109.014 169.627C109.389 170.589 110.081 172.243 109.878 174C109.675 175.758 109.634 176.585 110.075 177.412C110.766 178.698 114.449 180.346 116.631 180.867C115.321 178.973 114.558 176.737 114.432 174.417C114.217 170.54 113.925 168.041 112.202 166.32C109.997 164.151 108.418 165.039 108.418 165.039Z" fill="#263238"/>
<path d="M124.254 177.703C124.254 177.703 122.984 180.153 118.079 180.073C116.148 180.043 115.099 179.075 115.063 176.055C115.01 172.423 114.724 168.754 113.579 166.947C112.435 165.14 110.599 164.271 109.199 164.399C108.872 164.493 108.593 164.713 108.418 165.012C108.418 165.012 109.83 164.534 112.03 166.408C113.657 167.792 114.092 170.696 114.068 174.285C114.068 175.829 113.967 177.586 114.408 178.756C114.609 179.274 114.926 179.735 115.332 180.104C115.739 180.472 116.225 180.736 116.75 180.876C119.414 181.647 123.068 180.38 123.985 179.222C124.135 179.004 124.236 178.755 124.282 178.493C124.329 178.23 124.319 177.961 124.254 177.703Z" fill="#37474F"/>
<path d="M118.359 173.59C118.56 173.737 118.702 173.955 118.758 174.202C118.782 174.512 118.725 174.822 118.593 175.101C118.461 175.38 118.258 175.617 118.007 175.789C117.715 175.973 117.459 175.911 117.924 175.274C118.221 174.766 118.372 174.182 118.359 173.59Z" fill="#FAFAFA"/>
<path d="M118.097 171.707C118.097 171.707 118.252 171.805 118.293 172.32C118.216 172.96 117.9 173.544 117.411 173.949C116.893 174.206 117.173 173.594 117.411 173.293C117.751 172.823 117.986 172.282 118.097 171.707Z" fill="#FAFAFA"/>
<path d="M118.269 169.625C118.269 169.625 118.436 169.674 118.269 170.372C118.029 170.807 117.653 171.146 117.202 171.334C116.869 171.377 116.708 171.205 117.119 170.899C117.411 170.66 118.21 169.962 118.269 169.625Z" fill="#FAFAFA"/>
<path d="M130.785 91.9469C130.785 91.9469 133.765 95.6219 135.553 102.433C137.173 108.786 138.409 115.236 139.255 121.745C139.684 124.655 140.089 127.46 141.078 133.059C142.014 138.375 144.338 149.872 144.338 149.872C144.338 149.872 143.933 151.63 141.627 152.665C140.113 153.277 138.473 153.488 136.859 153.277C136.859 153.277 135.279 150.503 131.989 143.98C130.482 141.143 129.458 138.063 128.962 134.872C128.567 132.705 128.34 130.509 128.282 128.305L115.903 106.757C114.832 105.454 113.993 103.968 113.424 102.366C111.678 97.8637 113.907 91.3711 113.907 91.3711L130.785 91.9469Z" fill="#37474F"/>
<path d="M130.785 91.9469C130.785 91.9469 133.765 95.6219 135.553 102.433C137.173 108.786 138.409 115.236 139.255 121.745C139.684 124.655 140.089 127.46 141.078 133.059C142.014 138.375 144.338 149.872 144.338 149.872C144.338 149.872 143.933 151.63 141.627 152.665C140.113 153.277 138.473 153.488 136.859 153.277C136.859 153.277 135.279 150.503 131.989 143.98C130.482 141.143 129.458 138.063 128.962 134.872C128.567 132.705 128.34 130.509 128.282 128.305L115.903 106.757C114.832 105.454 113.993 103.968 113.424 102.366C111.678 97.8637 113.907 91.3711 113.907 91.3711L130.785 91.9469Z" fill="#37474F"/>
<path d="M139.005 120.084C138.2 114.133 137.046 108.238 135.548 102.431C135.061 100.573 134.429 98.7582 133.659 97.0044L118.008 96.7227C116.816 99.5218 115.922 103.019 118.473 107.295L119.14 112.391L128.265 128.316C128.323 130.52 128.55 132.715 128.944 134.882C129.441 138.073 130.465 141.154 131.972 143.99L132.258 144.554C133.43 142.829 134.476 141.017 135.387 139.133C136.281 136.952 136.901 132.738 137.837 127.409C138.176 125.455 138.623 122.607 139.005 120.084Z" fill="#263238"/>
<path d="M120.486 91.9469C118.684 94.1237 117.625 96.8473 117.471 99.7012C117.349 102.468 118.194 105.188 119.855 107.37C120.451 116.705 122.268 134.682 122.268 134.682C119.884 137.224 119.247 138.859 117.858 143.416C117.018 146.178 114.556 154.533 113.603 157.651C119.425 157.908 120.522 163.035 120.522 163.035C120.522 163.035 127.579 151.342 131.143 144.739C133.777 139.839 134.123 138.694 134.826 135.784C135.529 132.875 135.678 130.18 136.543 124.11C137.407 118.04 138.927 109.667 139.368 103.689C139.809 97.7106 139.868 91.3711 139.868 91.3711L120.486 91.9469Z" fill="#37474F"/>
<path d="M112.786 99.2607C113.481 99.0293 114.091 98.5847 114.532 97.9867C114.74 97.5707 114.893 97.1277 114.985 96.6698C115.163 95.8991 115.408 95.1467 115.718 94.4219L116.165 94.6301C115.872 95.3319 115.635 96.0571 115.456 96.7984C115.356 97.3068 115.186 97.7978 114.95 98.2562C114.425 98.9865 113.678 99.5166 112.828 99.763C112.816 99.5976 112.798 99.4322 112.786 99.2607Z" fill="#263238"/>
<path d="M124.456 104.606C124.351 104.617 124.245 104.617 124.14 104.606C123.425 104.447 122.87 103.951 121.756 102.499C120.916 101.396 120.999 100.6 121.16 99.2893C121.214 98.8054 121.708 96.2268 121.756 95.5469L122.227 95.8164C122.227 96.5085 121.72 98.8789 121.666 99.3444C121.529 100.649 121.464 101.249 122.179 102.193C123.198 103.534 123.687 103.981 124.271 104.11C125.55 104.139 126.82 103.878 127.99 103.344C128.371 103.075 129.015 99.6691 129.391 96.729L129.879 96.7964C129.689 98.297 129.009 103.234 128.27 103.761C127.531 104.287 125.445 104.637 124.456 104.606Z" fill="#263238"/>
<path d="M113.782 59.6981C112.119 62.9627 112.322 65.8905 112.804 70.4782C113.245 74.7107 113.555 77.3261 113.937 82.5569C114.23 85.8088 114.116 89.086 113.597 92.3081C113.597 92.3081 113.758 94.8377 121.011 96.7365C133.754 100.075 139.869 96.271 139.869 96.271C139.869 96.271 140.179 88.9209 139.684 79.2494C139.13 68.4386 138.945 66.8583 138.134 64.2857C137.49 62.7771 136.33 61.5634 134.874 60.8741C133.605 60.2616 130.577 59.2693 128.777 58.5527C125.878 57.5141 122.829 56.988 119.76 56.9969C116.13 56.7458 114.646 58.0014 113.782 59.6981Z" fill="#F5F5F5"/>
<path d="M118.866 57.5758C119.14 57.5758 119.426 57.5758 119.718 57.5758H119.933C122.871 57.5859 125.788 58.0992 128.563 59.0948C129.296 59.3827 130.231 59.7073 131.137 60.0564C132.49 60.5464 133.891 61.0548 134.624 61.3978C135.947 62.0116 137.007 63.1006 137.604 64.4604C138.373 66.9104 138.552 68.2396 139.118 79.2341C139.541 87.5642 139.368 94.2712 139.314 95.8454C138.468 96.268 135.661 97.4501 130.863 97.4501C127.589 97.438 124.33 97.0059 121.16 96.1639C115.159 94.5958 114.306 92.6419 114.205 92.3296C114.707 89.0893 114.817 85.7975 114.533 82.5294C114.211 78.101 113.937 75.5407 113.597 72.3005L113.394 70.4262C112.918 65.8508 112.727 63.1129 114.312 60.0136C114.908 58.8253 115.927 57.6125 118.866 57.6125M118.866 57C115.886 57 114.574 58.1821 113.782 59.7318C112.119 62.9965 112.322 65.9243 112.804 70.512C113.245 74.7444 113.555 77.3598 113.937 82.5907C114.23 85.8426 114.116 89.1198 113.597 92.3418C113.597 92.3418 113.758 94.8715 121.011 96.7703C124.217 97.6455 127.517 98.1064 130.833 98.1423C136.919 98.1423 139.869 96.3047 139.869 96.3047C139.869 96.3047 140.179 88.9546 139.684 79.2831C139.13 68.4723 138.945 66.892 138.134 64.3195C137.49 62.8109 136.33 61.5972 134.874 60.9078C133.605 60.2953 130.577 59.303 128.777 58.5864C125.934 57.5639 122.945 57.038 119.933 57.0306H119.76C119.444 57.0306 119.164 57.0306 118.866 57.0306V57Z" fill="#E0E0E0"/>
<path d="M129.093 54.8546L128.736 58.8298C126.614 59.3014 121.47 58.9645 120.505 57.6047L120.708 53.9297L129.093 54.8546Z" fill="#FFA8A7"/>
<path d="M134.606 44.6641C134.606 44.6641 135.589 45.4297 136.334 48.0696L134.88 49.166C134.403 47.3101 133.885 45.4236 134.606 44.6641Z" fill="#F28F8F"/>
<path d="M130.851 37.2745C134.469 37.5195 135.071 39.455 134.534 45.7884C135.804 51.8032 134.052 54.1859 133.295 54.976C131.596 55.9132 129.862 56.0724 127.508 55.4415C125.72 54.9576 121.172 53.5734 119.271 50.6762C117.03 47.2706 116.446 42.1011 118.83 40.1594C122.179 37.4337 129.415 37.1765 130.851 37.2745Z" fill="#FFA8A7"/>
<path d="M133.295 54.9718C132.877 55.4067 130.464 56.1969 128.974 56.0254L129.093 54.8555C130.482 55.0928 131.895 55.132 133.295 54.9718Z" fill="#F28F8F"/>
<path d="M131.233 41.6493C131.157 41.9221 131.042 42.1821 130.893 42.4211C130.471 43.0133 129.92 43.4957 129.284 43.8298C129.551 44.6037 129.714 45.4116 129.767 46.2309C129.788 46.4956 129.73 46.7606 129.6 46.9904C129.559 47.0741 129.496 47.1444 129.418 47.1935C129.34 47.2426 129.25 47.2685 129.159 47.2685C129.068 47.2685 128.978 47.2426 128.9 47.1935C128.822 47.1444 128.759 47.0741 128.718 46.9904C128.525 46.5405 128.279 46.1167 127.985 45.7286C127.606 45.2753 127.077 44.9827 126.501 44.9079C124.319 44.6874 124.313 48.1787 125.184 49.3608C126.614 51.2902 127.794 50.0529 127.794 50.0529C127.794 50.0529 128.527 53.0359 126.423 54.3405C126.423 54.3405 123.038 55.198 120.726 53.9914C119.671 51.7557 118.24 50.4511 117.108 48.0684C115.117 43.8972 116.071 40.2405 117.424 39.4933C117.042 37.5455 118.199 35.6345 120.648 34.4462C123.098 33.2579 126.399 33.8704 128.992 34.2931C130.523 34.5451 132.088 34.4531 133.581 34.0236C133.79 33.9562 134.006 33.9151 134.225 33.9011C134.338 33.892 134.451 33.9113 134.555 33.9572C134.658 34.0031 134.75 34.0742 134.821 34.1644C134.893 34.292 134.93 34.4367 134.93 34.584C134.93 34.7313 134.893 34.876 134.821 35.0036C134.67 35.2515 134.534 35.5093 134.416 35.7753C134.687 35.7334 134.964 35.7861 135.203 35.9248C135.441 36.0636 135.628 36.2805 135.733 36.541C135.885 36.9052 135.943 37.3041 135.9 37.6982C135.858 38.0923 135.716 38.4682 135.489 38.7889C135.024 39.4252 134.365 39.8825 133.617 40.0874C132.873 40.2892 132.103 40.3759 131.334 40.3447C131.406 40.7815 131.372 41.2298 131.233 41.6493Z" fill="#263238"/>
<path d="M128.896 57.1325C129.451 57.1325 130.053 58.2779 131.131 59.4355C128.772 60.6233 126.108 61.0136 123.52 60.5503C118.961 59.8459 118.085 56.9977 118.085 56.9977C118.085 56.9977 119.128 56.1709 119.676 55.6196C120.344 54.9458 120.672 54.9336 120.672 54.9336L120.618 55.8952C120.618 55.8952 121.494 56.8262 124.271 57.402C125.806 57.7701 127.412 57.6766 128.896 57.1325Z" fill="#E6E6E6"/>
<path d="M145.03 84.7137C145.03 84.7137 143.724 77.976 142.777 73.2903C141.829 68.6047 142.181 63.1472 134.981 61.2852C133.789 63.1227 133.014 66.0199 133.414 69.5908C133.813 73.1617 135.404 78.7784 135.798 80.6588C136.513 83.5967 137.684 86.397 139.266 88.9522C141.549 92.4435 145.822 98.3481 147.539 100.516C148.337 101.521 149.029 102.538 149.768 103.579C150.596 104.634 151.494 105.628 152.456 106.556C152.902 107.014 153.456 107.346 154.065 107.517C154.452 107.628 154.84 107.475 155.203 107.579C155.567 107.683 155.799 108.044 156.264 108.056C156.729 108.069 157.17 107.72 157.623 107.762C158.093 107.863 158.569 107.933 159.047 107.971C159.448 107.907 159.857 107.945 160.239 108.081C160.585 108.228 161.074 108.693 161.473 108.461C161.873 108.228 161.783 107.689 161.628 107.272C161.26 106.484 160.654 105.84 159.9 105.435C159.172 104.953 158.418 104.516 157.641 104.124C156.896 103.757 156.239 103.226 155.716 102.568C155.346 102.14 155.12 101.484 155.859 101.478C156.747 101.478 157.855 101.815 158.666 101.233C159.226 100.835 159.036 100.327 158.493 100.082C157.598 99.6833 156.733 99.2165 155.907 98.685C155.06 98.146 154.279 97.5212 153.427 97.0067C152.97 96.7442 152.496 96.513 152.009 96.3146C150.668 95.7388 150.084 94.3607 149.404 93.1418C148.463 91.4635 146.084 86.9738 145.03 84.7137Z" fill="#FFA8A7"/>
<path d="M134.636 77.5368C134.636 77.5368 133.372 72.4346 133.044 70.2969C132.716 68.1592 132.538 62.616 134.689 60.7969C136.239 61.1828 140.393 61.9423 141.591 65.9603C142.789 69.9784 144.571 80.5442 144.571 80.5442L149.983 93.6703C149.983 93.6703 149.983 94.8953 147.736 96.4694C145.489 98.0436 144.315 97.5107 144.315 97.5107C144.315 97.5107 139.851 90.5648 137.687 87.1409C136.245 84.844 135.887 83.3005 134.636 77.5368Z" fill="#E6E6E6"/>
<path d="M149.715 263.471C148.444 261.439 146.691 259.774 144.619 258.632C136.275 253.695 122.794 253.695 114.468 258.632C112.397 259.772 110.644 261.438 109.378 263.471H108.228V267.949C108.382 271.06 110.457 274.147 114.456 276.524C122.8 281.461 136.281 281.461 144.607 276.524C148.613 274.147 150.699 271.06 150.853 267.949V263.471H149.715Z" fill="#0BB55D"/>
<path opacity="0.25" d="M149.715 263.471C148.444 261.439 146.691 259.774 144.619 258.632C136.275 253.695 122.794 253.695 114.468 258.632C112.397 259.772 110.644 261.438 109.378 263.471H108.228V267.949C108.382 271.06 110.457 274.147 114.456 276.524C122.8 281.461 136.281 281.461 144.607 276.524C148.613 274.147 150.699 271.06 150.853 267.949V263.471H149.715Z" fill="black"/>
<path opacity="0.1" d="M129.546 254.926C124.087 254.926 118.634 256.151 114.468 258.631C112.397 259.771 110.644 261.437 109.378 263.47H108.228V267.948C108.382 271.059 110.457 274.146 114.456 276.523C118.628 278.973 124.075 280.229 129.535 280.229L129.546 254.926Z" fill="black"/>
<path opacity="0.1" d="M117.901 256.984C116.714 257.435 115.566 257.986 114.468 258.632C112.397 259.772 110.644 261.438 109.378 263.471H108.228V267.948C108.382 271.06 110.457 274.147 114.456 276.523C115.554 277.169 116.702 277.72 117.889 278.171L117.901 256.984Z" fill="black"/>
<path opacity="0.5" d="M141.187 256.984C142.373 257.435 143.521 257.986 144.619 258.632C146.691 259.773 148.445 261.439 149.715 263.471H150.866V267.948C150.711 271.06 148.625 274.147 144.619 276.523C143.521 277.169 142.373 277.72 141.187 278.171V256.984Z" fill="#0BB55D"/>
<path d="M114.468 254.527C106.124 259.47 106.124 267.481 114.468 272.418C121.757 276.743 132.998 277.282 141.288 274.041L141.616 273.907C142.654 273.485 143.662 272.987 144.632 272.418C151.575 268.296 152.731 262.042 148.088 257.216C147.058 256.165 145.895 255.26 144.632 254.527C136.293 249.59 122.776 249.59 114.468 254.527Z" fill="#0BB55D"/>
<path opacity="0.2" d="M114.468 254.527C106.124 259.47 106.124 267.481 114.468 272.418C121.757 276.743 132.998 277.282 141.288 274.041L141.616 273.907C142.654 273.485 143.662 272.987 144.632 272.418C151.575 268.296 152.731 262.042 148.088 257.216C147.058 256.165 145.895 255.26 144.632 254.527C136.293 249.59 122.776 249.59 114.468 254.527Z" fill="black"/>
<path opacity="0.5" d="M148.076 257.215C148.982 258.268 149.652 259.513 150.038 260.861C150.425 262.209 150.518 263.629 150.311 265.018C149.572 269.367 143.648 273.03 141.604 273.906C142.642 273.484 143.65 272.987 144.619 272.417C151.563 268.277 152.719 262.041 148.076 257.215Z" fill="#F5F5F5"/>
<path opacity="0.5" d="M111.011 269.73C110.104 268.678 109.434 267.433 109.049 266.084C108.663 264.735 108.572 263.316 108.782 261.927C109.521 257.578 115.445 253.921 117.483 253.039C116.445 253.462 115.438 253.959 114.467 254.527C107.524 258.65 106.374 264.903 111.011 269.73Z" fill="#F5F5F5"/>
<path d="M143.564 271.768C151.312 267.18 151.312 259.732 143.564 255.138C135.816 250.545 123.3 250.551 115.552 255.138C107.804 259.726 107.804 267.18 115.552 271.768C123.3 276.356 135.828 276.362 143.564 271.768Z" fill="#0BB55D"/>
<path opacity="0.4" d="M143.564 271.768C151.312 267.18 151.312 259.732 143.564 255.138C135.816 250.545 123.3 250.551 115.552 255.138C107.804 259.726 107.804 267.18 115.552 271.768C123.3 276.356 135.828 276.362 143.564 271.768Z" fill="white"/>
<path opacity="0.2" d="M148.47 266.967C150.061 263.941 149.543 260.609 146.914 257.779C146.396 257.227 145.834 256.721 145.234 256.266C144.721 255.871 144.186 255.509 143.63 255.182C143.314 254.986 142.993 254.808 142.653 254.637C143.481 256.027 143.177 257.522 138.511 257.803C129.374 258.349 140.948 267.322 140.948 267.322C140.948 267.322 146.837 264.4 148.47 266.967Z" fill="white"/>
<path opacity="0.5" d="M147.528 264.487C148.899 264.328 149.578 262.882 149.048 261.253C148.517 259.624 146.968 258.429 145.597 258.588C144.226 258.748 143.547 260.193 144.083 261.823C144.619 263.452 146.157 264.646 147.528 264.487Z" fill="white"/>
<path d="M133.081 271.954C132.628 268.469 117.805 258.816 117.805 258.816C117.805 258.816 114.515 257.462 115.606 255.098C115.059 255.418 114.53 255.77 114.021 256.151C113.675 256.402 113.359 256.666 113.055 256.935C108.645 260.861 108.639 266.025 113.055 269.957C113.353 270.221 113.651 270.484 114.015 270.741C114.487 271.097 114.978 271.424 115.487 271.721C115.995 272.031 116.518 272.313 117.054 272.566C117.489 272.781 117.936 272.977 118.389 273.179C118.842 273.381 119.307 273.534 119.784 273.693C121.227 274.178 122.706 274.543 124.206 274.784L125.202 274.937C126.668 275.129 128.145 275.223 129.624 275.219C131.437 275.219 133.247 275.067 135.036 274.765C135.036 274.765 132.658 274.257 133.081 271.954Z" fill="#0BB55D"/>
<path opacity="0.3" d="M133.081 271.954C132.628 268.469 117.805 258.816 117.805 258.816C117.805 258.816 114.515 257.462 115.606 255.098C115.059 255.418 114.53 255.77 114.021 256.151C113.675 256.402 113.359 256.666 113.055 256.935C108.645 260.861 108.639 266.025 113.055 269.957C113.353 270.221 113.651 270.484 114.015 270.741C114.487 271.097 114.978 271.424 115.487 271.721C115.995 272.031 116.518 272.313 117.054 272.566C117.489 272.781 117.936 272.977 118.389 273.179C118.842 273.381 119.307 273.534 119.784 273.693C121.227 274.178 122.706 274.543 124.206 274.784L125.202 274.937C126.668 275.129 128.145 275.223 129.624 275.219C131.437 275.219 133.247 275.067 135.036 274.765C135.036 274.765 132.658 274.257 133.081 271.954Z" fill="white"/>
<path d="M119.105 257.253C113.574 260.536 113.347 265.773 118.431 269.215C118.646 269.362 118.872 269.503 119.105 269.644C124.874 273.068 134.219 273.068 139.965 269.644C145.71 266.22 145.734 260.677 139.965 257.253L139.238 256.855C133.462 253.847 124.636 253.982 119.105 257.253Z" fill="#0BB55D"/>
<path opacity="0.2" d="M119.105 257.253C113.574 260.536 113.347 265.773 118.431 269.215C118.646 269.362 118.872 269.503 119.105 269.644C124.874 273.068 134.219 273.068 139.965 269.644C145.71 266.22 145.734 260.677 139.965 257.253L139.238 256.855C133.462 253.847 124.636 253.982 119.105 257.253Z" fill="black"/>
<path d="M129.553 271.832C137.347 271.832 143.666 268.083 143.666 263.459C143.666 258.835 137.347 255.086 129.553 255.086C121.758 255.086 115.439 258.835 115.439 263.459C115.439 268.083 121.758 271.832 129.553 271.832Z" fill="#0BB55D"/>
<path opacity="0.5" d="M129.553 271.832C137.347 271.832 143.666 268.083 143.666 263.459C143.666 258.835 137.347 255.086 129.553 255.086C121.758 255.086 115.439 258.835 115.439 263.459C115.439 268.083 121.758 271.832 129.553 271.832Z" fill="black"/>
<path d="M119.575 259.867C125.082 256.596 134.022 256.596 139.529 259.867C141.788 261.209 143.105 262.887 143.529 264.62C143.117 266.36 141.788 268.038 139.529 269.373C134.022 272.644 125.082 272.644 119.575 269.373C117.322 268.038 115.999 266.36 115.576 264.62C115.987 262.887 117.322 261.209 119.575 259.867Z" fill="#0BB55D"/>
<path opacity="0.35" d="M119.575 259.867C125.082 256.596 134.022 256.596 139.529 259.867C141.788 261.209 143.105 262.887 143.529 264.62C143.117 266.36 141.788 268.038 139.529 269.373C134.022 272.644 125.082 272.644 119.575 269.373C117.322 268.038 115.999 266.36 115.576 264.62C115.987 262.887 117.322 261.209 119.575 259.867Z" fill="black"/>
<path d="M138.439 265.979C138.439 265.691 138.439 264.54 138.439 264.246C138.439 263.535 137.962 262.849 136.937 262.23H136.901C135.006 261.103 133.045 261.25 131.299 261.704C130.56 261.9 129.851 262.145 129.207 262.371C128.474 262.653 127.725 262.892 126.966 263.088C126.616 263.171 126.258 263.206 125.899 263.192C125.592 263.174 125.292 263.093 125.017 262.953L125.089 262.898L125.309 262.763C125.5 262.646 125.699 262.544 125.905 262.457C126.397 262.234 126.928 262.112 127.465 262.1C128.003 262.087 128.538 262.184 129.04 262.384L130.828 260.509V258.788C129.233 258.229 127.512 258.165 125.881 258.604C125.343 258.746 124.817 258.932 124.308 259.162L122.52 258.09L120.362 259.37V261.091L121.101 261.532C120.905 261.829 120.795 262.178 120.785 262.537V264.252C120.785 264.962 121.286 265.648 122.323 266.267C123.229 266.812 124.254 267.115 125.303 267.149H125.899C126.993 267.065 128.07 266.826 129.1 266.438L129.696 266.218L127.872 268.092V269.813C128.995 270.25 130.193 270.447 131.393 270.394C132.592 270.34 133.769 270.036 134.851 269.501L136.639 270.561L138.797 269.28V267.559L138.058 267.118C138.293 266.787 138.426 266.39 138.439 265.979ZM133.886 265.826C133.725 265.924 133.558 266.01 133.385 266.083C132.262 266.581 130.993 266.601 129.857 266.138C131.543 265.526 132.956 264.993 134.16 265.648C134.072 265.714 133.981 265.773 133.886 265.826Z" fill="#0BB55D"/>
<path d="M131.299 261.68C130.56 261.876 129.851 262.121 129.207 262.348C128.474 262.63 127.725 262.869 126.966 263.064C126.616 263.148 126.258 263.183 125.899 263.169C125.538 263.148 125.186 263.039 124.874 262.85C124.177 262.44 124.075 261.839 125.089 261.153L125.309 261.013C125.502 260.9 125.701 260.8 125.905 260.712C126.397 260.489 126.928 260.368 127.465 260.355C128.003 260.342 128.538 260.439 129.04 260.639L130.828 258.765C129.233 258.205 127.512 258.141 125.881 258.581C125.343 258.723 124.817 258.909 124.308 259.138L122.52 258.066L120.362 259.347L122.15 260.406C120.362 261.821 120.303 263.291 122.341 264.504C123.247 265.049 124.272 265.352 125.321 265.386H125.917C127.011 265.303 128.089 265.062 129.118 264.669C131.192 263.959 132.872 263.12 134.267 263.947C135.203 264.504 134.94 265.202 133.915 265.784C133.755 265.882 133.587 265.968 133.415 266.041C132.85 266.29 132.244 266.421 131.63 266.426C131.016 266.431 130.407 266.311 129.839 266.072L127.937 268.026C129.061 268.462 130.259 268.66 131.458 268.606C132.658 268.552 133.835 268.249 134.917 267.713L136.705 268.773L138.862 267.493L137.074 266.433C138.862 265.006 139.083 263.45 136.985 262.189H136.949C135.006 261.08 133.045 261.227 131.299 261.68Z" fill="#0BB55D"/>
<g opacity="0.3">
<path d="M131.299 261.68C130.56 261.876 129.851 262.121 129.207 262.348C128.474 262.63 127.725 262.869 126.966 263.064C126.616 263.148 126.258 263.183 125.899 263.169C125.538 263.148 125.186 263.039 124.874 262.85C124.177 262.44 124.075 261.839 125.089 261.153L125.309 261.013C125.502 260.9 125.701 260.8 125.905 260.712C126.397 260.489 126.928 260.368 127.465 260.355C128.003 260.342 128.538 260.439 129.04 260.639L130.828 258.765C129.233 258.205 127.512 258.141 125.881 258.581C125.343 258.723 124.817 258.909 124.308 259.138L122.52 258.066L120.362 259.347L122.15 260.406C120.362 261.821 120.303 263.291 122.341 264.504C123.247 265.049 124.272 265.352 125.321 265.386H125.917C127.011 265.303 128.089 265.062 129.118 264.669C131.192 263.959 132.872 263.12 134.267 263.947C135.203 264.504 134.94 265.202 133.915 265.784C133.755 265.882 133.587 265.968 133.415 266.041C132.85 266.29 132.244 266.421 131.63 266.426C131.016 266.431 130.407 266.311 129.839 266.072L127.937 268.026C129.061 268.462 130.259 268.66 131.458 268.606C132.658 268.552 133.835 268.249 134.917 267.713L136.705 268.773L138.862 267.493L137.074 266.433C138.862 265.006 139.083 263.45 136.985 262.189H136.949C135.006 261.08 133.045 261.227 131.299 261.68Z" fill="white"/>
</g>
<path opacity="0.45" d="M120.345 259.347L122.526 258.33L124.314 259.138L122.502 258.066L120.345 259.347Z" fill="#F5F5F5"/>
<path opacity="0.45" d="M125.637 258.651C127.176 258.335 128.765 258.392 130.28 258.816L129.022 260.653L130.81 258.779C129.139 258.194 127.333 258.149 125.637 258.651Z" fill="#F5F5F5"/>
<path opacity="0.45" d="M136.901 262.209H136.937C139.035 263.471 138.826 265.027 137.026 266.454C138.624 264.671 138.332 263.428 136.603 262.405C134.968 261.547 133.098 261.284 131.299 261.658C133.045 261.229 135.006 261.082 136.901 262.209Z" fill="#F5F5F5"/>
<path opacity="0.45" d="M137.027 266.477L138.398 267.561L136.657 268.816L138.815 267.536L137.027 266.477Z" fill="#F5F5F5"/>
<path opacity="0.45" d="M133.385 266.086C132.32 266.64 131.089 266.752 129.946 266.398L127.89 268.07L129.791 266.117C130.362 266.358 130.974 266.48 131.591 266.475C132.208 266.469 132.818 266.337 133.385 266.086Z" fill="#F5F5F5"/>
<path opacity="0.45" d="M126.948 263.063C126.529 263.239 126.075 263.308 125.624 263.265C125.174 263.221 124.741 263.066 124.361 262.812C123.765 262.261 124.135 261.667 125.07 261.152C124.057 261.838 124.159 262.439 124.856 262.849C125.168 263.038 125.519 263.147 125.881 263.168C126.24 263.181 126.598 263.146 126.948 263.063Z" fill="#F5F5F5"/>
<path opacity="0.45" d="M122.115 260.426C121.966 260.561 120.667 261.81 121.239 263.053C121.811 264.297 123.754 265.234 125.292 265.405C124.242 265.372 123.218 265.069 122.312 264.523C120.267 263.311 120.303 261.841 122.115 260.426Z" fill="#F5F5F5"/>
<path d="M153.767 257.167C152.502 255.133 150.749 253.466 148.677 252.328C140.333 247.385 126.851 247.385 118.525 252.328C116.453 253.466 114.701 255.133 113.436 257.167H112.279V261.645C112.434 264.756 114.502 267.843 118.507 270.22C126.851 275.163 140.333 275.163 148.659 270.22C152.664 267.849 154.75 264.762 154.899 261.645V257.167H153.767Z" fill="#0BB55D"/>
<path opacity="0.25" d="M153.767 257.167C152.502 255.133 150.749 253.466 148.677 252.328C140.333 247.385 126.851 247.385 118.525 252.328C116.453 253.466 114.701 255.133 113.436 257.167H112.279V261.645C112.434 264.756 114.502 267.843 118.507 270.22C126.851 275.163 140.333 275.163 148.659 270.22C152.664 267.849 154.75 264.762 154.899 261.645V257.167H153.767Z" fill="black"/>
<path opacity="0.1" d="M133.581 248.625C128.121 248.625 122.668 249.85 118.502 252.3C116.43 253.438 114.677 255.104 113.412 257.139H112.256V261.616C112.411 264.728 114.479 267.815 118.484 270.191C122.656 272.642 128.103 273.867 133.563 273.867L133.581 248.625Z" fill="black"/>
<path opacity="0.1" d="M121.935 250.676C120.749 251.131 119.601 251.684 118.502 252.33C116.43 253.468 114.677 255.134 113.412 257.168H112.256V261.646C112.411 264.757 114.479 267.844 118.484 270.221C119.582 270.869 120.73 271.422 121.917 271.875L121.935 250.676Z" fill="black"/>
<path opacity="0.5" d="M145.221 250.676C146.406 251.131 147.554 251.684 148.654 252.33C150.726 253.468 152.478 255.134 153.743 257.168H154.894V261.646C154.745 264.757 152.653 267.844 148.654 270.221C147.556 270.869 146.407 271.422 145.221 271.875V250.676Z" fill="#0BB55D"/>
<path d="M118.502 248.226C110.158 253.163 110.158 261.174 118.502 266.117C125.785 270.405 137.032 270.981 145.322 267.734L145.65 267.606C146.688 267.183 147.696 266.685 148.666 266.117C155.609 261.995 156.759 255.741 152.123 250.915C151.092 249.866 149.929 248.964 148.666 248.232C140.328 243.283 126.828 243.283 118.502 248.226Z" fill="#0BB55D"/>
<path opacity="0.2" d="M118.502 248.226C110.158 253.163 110.158 261.174 118.502 266.117C125.785 270.405 137.032 270.981 145.322 267.734L145.65 267.606C146.688 267.183 147.696 266.685 148.666 266.117C155.609 261.995 156.759 255.741 152.123 250.915C151.092 249.866 149.929 248.964 148.666 248.232C140.328 243.283 126.828 243.283 118.502 248.226Z" fill="black"/>
<path opacity="0.5" d="M152.111 250.914C153.022 251.964 153.696 253.208 154.086 254.557C154.475 255.906 154.57 257.327 154.364 258.717C153.625 263.066 147.706 266.723 145.662 267.605C146.7 267.182 147.708 266.685 148.678 266.117C155.597 261.994 156.748 255.741 152.111 250.914Z" fill="#F5F5F5"/>
<path opacity="0.5" d="M115.027 263.429C114.121 262.376 113.451 261.131 113.066 259.783C112.681 258.434 112.589 257.015 112.798 255.626C113.531 251.277 119.455 247.614 121.5 246.738C120.461 247.16 119.453 247.658 118.484 248.227C111.558 252.355 110.408 258.603 115.027 263.429Z" fill="#F5F5F5"/>
<path d="M147.598 265.47C155.346 260.876 155.346 253.434 147.598 248.84C139.85 244.246 127.334 244.246 119.586 248.84C111.838 253.434 111.838 260.876 119.586 265.47C127.334 270.063 139.856 270.063 147.598 265.47Z" fill="#0BB55D"/>
<path opacity="0.4" d="M147.598 265.47C155.346 260.876 155.346 253.434 147.598 248.84C139.85 244.246 127.334 244.246 119.586 248.84C111.838 253.434 111.838 260.876 119.586 265.47C127.334 270.063 139.856 270.063 147.598 265.47Z" fill="white"/>
<path opacity="0.2" d="M152.504 260.666C154.095 257.64 153.576 254.302 150.948 251.478C150.43 250.928 149.868 250.424 149.267 249.971C148.754 249.576 148.219 249.212 147.664 248.881C147.348 248.691 147.02 248.507 146.687 248.336C147.509 249.732 147.211 251.221 142.515 251.503C133.384 252.054 144.958 261.021 144.958 261.021C144.958 261.021 150.871 258.093 152.504 260.666Z" fill="white"/>
<path opacity="0.5" d="M151.562 258.183C152.933 258.024 153.612 256.573 153.076 254.943C152.539 253.314 151.002 252.126 149.631 252.279C148.26 252.432 147.581 253.89 148.111 255.519C148.641 257.148 150.191 258.337 151.562 258.183Z" fill="white"/>
<path d="M137.115 265.659C136.663 262.174 121.834 252.527 121.834 252.527C121.834 252.527 118.55 251.167 119.641 248.809C119.091 249.125 118.562 249.477 118.055 249.862C117.72 250.106 117.398 250.367 117.09 250.646C112.674 254.572 112.668 259.73 117.09 263.662C117.388 263.931 117.71 264.195 118.055 264.452C118.528 264.804 119.017 265.131 119.522 265.432C120.03 265.73 120.555 266.012 121.095 266.277C121.524 266.486 121.977 266.688 122.43 266.89C122.883 267.092 123.348 267.245 123.819 267.404C125.265 267.885 126.746 268.25 128.247 268.495C128.575 268.55 128.909 268.599 129.236 268.642C132.507 269.076 135.822 269.019 139.076 268.47C139.076 268.47 136.686 267.956 137.115 265.659Z" fill="#0BB55D"/>
<path opacity="0.3" d="M137.115 265.659C136.663 262.174 121.834 252.527 121.834 252.527C121.834 252.527 118.55 251.167 119.641 248.809C119.091 249.125 118.562 249.477 118.055 249.862C117.72 250.106 117.398 250.367 117.09 250.646C112.674 254.572 112.668 259.73 117.09 263.662C117.388 263.931 117.71 264.195 118.055 264.452C118.528 264.804 119.017 265.131 119.522 265.432C120.03 265.73 120.555 266.012 121.095 266.277C121.524 266.486 121.977 266.688 122.43 266.89C122.883 267.092 123.348 267.245 123.819 267.404C125.265 267.885 126.746 268.25 128.247 268.495C128.575 268.55 128.909 268.599 129.236 268.642C132.507 269.076 135.822 269.019 139.076 268.47C139.076 268.47 136.686 267.956 137.115 265.659Z" fill="white"/>
<path d="M123.139 250.958C117.608 254.241 117.382 259.478 122.465 262.921C122.68 263.061 122.906 263.209 123.139 263.349C128.908 266.767 138.253 266.767 143.999 263.349C149.744 259.932 149.768 254.382 143.999 250.958C143.766 250.817 143.522 250.683 143.278 250.554C137.497 247.54 128.67 247.675 123.139 250.958Z" fill="#0BB55D"/>
<path opacity="0.2" d="M123.139 250.958C117.608 254.241 117.382 259.478 122.465 262.921C122.68 263.061 122.906 263.209 123.139 263.349C128.908 266.767 138.253 266.767 143.999 263.349C149.744 259.932 149.768 254.382 143.999 250.958C143.766 250.817 143.522 250.683 143.278 250.554C137.497 247.54 128.67 247.675 123.139 250.958Z" fill="black"/>
<path d="M133.587 265.523C141.381 265.523 147.7 261.775 147.7 257.15C147.7 252.526 141.381 248.777 133.587 248.777C125.792 248.777 119.474 252.526 119.474 257.15C119.474 261.775 125.792 265.523 133.587 265.523Z" fill="#0BB55D"/>
<path opacity="0.5" d="M133.587 265.523C141.381 265.523 147.7 261.775 147.7 257.15C147.7 252.526 141.381 248.777 133.587 248.777C125.792 248.777 119.474 252.526 119.474 257.15C119.474 261.775 125.792 265.523 133.587 265.523Z" fill="black"/>
<path d="M123.604 253.578C129.117 250.307 138.051 250.307 143.564 253.578C145.816 254.913 147.14 256.592 147.563 258.331C147.152 260.071 145.816 261.749 143.564 263.084C138.051 266.355 129.117 266.355 123.604 263.084C121.351 261.749 120.028 260.071 119.61 258.331C120.022 256.579 121.351 254.901 123.604 253.578Z" fill="#0BB55D"/>
<path opacity="0.35" d="M123.604 253.578C129.117 250.307 138.051 250.307 143.564 253.578C145.816 254.913 147.14 256.592 147.563 258.331C147.152 260.071 145.816 261.749 143.564 263.084C138.051 266.355 129.117 266.355 123.604 263.084C121.351 261.749 120.028 260.071 119.61 258.331C120.022 256.579 121.351 254.901 123.604 253.578Z" fill="black"/>
<path d="M142.473 259.704V257.977C142.473 257.266 141.996 256.574 140.965 255.955H140.93C139.034 254.834 137.079 254.981 135.333 255.435C134.588 255.625 133.885 255.876 133.241 256.102C132.509 256.385 131.76 256.623 131 256.813C130.652 256.893 130.296 256.928 129.939 256.917C129.631 256.894 129.329 256.811 129.051 256.672L129.123 256.623L129.343 256.482C129.536 256.37 129.735 256.27 129.939 256.182C130.431 255.957 130.961 255.835 131.5 255.822C132.038 255.809 132.573 255.907 133.074 256.108L134.862 254.234V252.513C133.267 251.951 131.547 251.885 129.915 252.323C129.376 252.465 128.85 252.654 128.342 252.887L126.554 251.809L124.396 253.095V254.816L125.136 255.251C124.933 255.545 124.823 255.895 124.82 256.255V257.977C124.82 258.687 125.314 259.373 126.357 259.992C127.265 260.534 128.288 260.837 129.337 260.874C129.534 260.874 129.731 260.874 129.933 260.874C131.027 260.79 132.104 260.551 133.134 260.163L133.73 259.943L131.906 261.817V263.544C133.03 263.976 134.228 264.171 135.427 264.118C136.626 264.064 137.802 263.763 138.885 263.232L140.673 264.292L142.831 263.011V261.235L142.092 260.794C142.319 260.476 142.451 260.098 142.473 259.704ZM137.92 259.557C137.758 259.652 137.591 259.738 137.419 259.814C136.294 260.309 135.024 260.329 133.885 259.869C135.577 259.257 136.99 258.718 138.194 259.379C138.11 259.41 138.015 259.465 137.92 259.526V259.557Z" fill="#0BB55D"/>
<path d="M135.333 255.38C134.588 255.57 133.885 255.821 133.241 256.048C132.509 256.331 131.76 256.568 131 256.758C130.652 256.838 130.296 256.873 129.939 256.862C129.576 256.842 129.222 256.733 128.908 256.544C128.217 256.133 128.116 255.527 129.123 254.847L129.343 254.706C129.536 254.594 129.735 254.494 129.939 254.406C130.431 254.181 130.961 254.059 131.5 254.046C132.038 254.034 132.573 254.131 133.074 254.333L134.862 252.458C133.267 251.897 131.547 251.831 129.915 252.268C129.376 252.41 128.85 252.599 128.342 252.832L126.554 251.754L124.396 253.04L126.184 254.1C124.396 255.521 124.331 256.991 126.375 258.204C127.282 258.746 128.306 259.049 129.355 259.086C129.554 259.098 129.753 259.098 129.951 259.086C131.045 259.002 132.122 258.763 133.152 258.375C135.226 257.665 136.901 256.825 138.301 257.652C139.231 258.21 138.975 258.908 137.95 259.49C137.788 259.585 137.62 259.671 137.449 259.747C136.882 259.99 136.275 260.116 135.661 260.116C135.047 260.116 134.439 259.99 133.873 259.747L131.978 261.701C133.101 262.137 134.298 262.334 135.498 262.282C136.697 262.229 137.874 261.927 138.957 261.395L140.745 262.454L142.902 261.174L141.114 260.115C142.902 258.681 143.117 257.126 141.019 255.864H140.983C139.034 254.804 137.079 254.927 135.333 255.38Z" fill="#0BB55D"/>
<g opacity="0.3">
<path d="M135.333 255.38C134.588 255.57 133.885 255.821 133.241 256.048C132.509 256.331 131.76 256.568 131 256.758C130.652 256.838 130.296 256.873 129.939 256.862C129.576 256.842 129.222 256.733 128.908 256.544C128.217 256.133 128.116 255.527 129.123 254.847L129.343 254.706C129.536 254.594 129.735 254.494 129.939 254.406C130.431 254.181 130.961 254.059 131.5 254.046C132.038 254.034 132.573 254.131 133.074 254.333L134.862 252.458C133.267 251.897 131.547 251.831 129.915 252.268C129.376 252.41 128.85 252.599 128.342 252.832L126.554 251.754L124.396 253.04L126.184 254.1C124.396 255.521 124.331 256.991 126.375 258.204C127.282 258.746 128.306 259.049 129.355 259.086C129.554 259.098 129.753 259.098 129.951 259.086C131.045 259.002 132.122 258.763 133.152 258.375C135.226 257.665 136.901 256.825 138.301 257.652C139.231 258.21 138.975 258.908 137.95 259.49C137.788 259.585 137.62 259.671 137.449 259.747C136.882 259.99 136.275 260.116 135.661 260.116C135.047 260.116 134.439 259.99 133.873 259.747L131.978 261.701C133.101 262.137 134.298 262.334 135.498 262.282C136.697 262.229 137.874 261.927 138.957 261.395L140.745 262.454L142.902 261.174L141.114 260.115C142.902 258.681 143.117 257.126 141.019 255.864H140.983C139.034 254.804 137.079 254.927 135.333 255.38Z" fill="white"/>
</g>
<path opacity="0.45" d="M124.379 253.046L126.56 252.029L128.348 252.838L126.536 251.766L124.379 253.046Z" fill="#F5F5F5"/>
<path opacity="0.45" d="M129.671 252.353C131.208 252.036 132.795 252.091 134.308 252.512L133.056 254.349L134.844 252.475C133.172 251.892 131.367 251.849 129.671 252.353Z" fill="#F5F5F5"/>
<path opacity="0.45" d="M140.929 255.903H140.965C143.063 257.164 142.86 258.72 141.061 260.154C142.652 258.371 142.366 257.128 140.637 256.099C139.001 255.246 137.132 254.984 135.333 255.358C137.079 254.929 139.034 254.806 140.929 255.903Z" fill="#F5F5F5"/>
<path opacity="0.45" d="M141.061 260.176L142.432 261.254L140.691 262.516L142.849 261.235L141.061 260.176Z" fill="#F5F5F5"/>
<path opacity="0.45" d="M137.419 259.785C136.352 260.339 135.118 260.449 133.974 260.091L131.924 261.764L133.819 259.81C134.39 260.052 135.003 260.175 135.621 260.171C136.24 260.167 136.851 260.036 137.419 259.785Z" fill="#F5F5F5"/>
<path opacity="0.45" d="M130.983 256.763C130.563 256.936 130.109 257.003 129.659 256.959C129.209 256.914 128.775 256.758 128.396 256.505C127.8 255.954 128.176 255.366 129.105 254.852C128.098 255.531 128.199 256.138 128.891 256.548C129.205 256.737 129.558 256.847 129.922 256.867C130.278 256.878 130.635 256.843 130.983 256.763Z" fill="#F5F5F5"/>
<path opacity="0.45" d="M126.148 254.117C125.993 254.258 124.694 255.501 125.272 256.751C125.85 258 127.787 258.932 129.325 259.097C128.276 259.06 127.252 258.757 126.345 258.215C124.295 257.008 124.337 255.538 126.148 254.117Z" fill="#F5F5F5"/>
<path d="M148.905 249.795C147.636 247.762 145.881 246.096 143.809 244.957C135.465 240.02 121.989 240.02 113.663 244.957C111.591 246.096 109.836 247.762 108.567 249.795H107.417V254.273C107.572 257.384 109.646 260.471 113.651 262.848C121.995 267.785 135.471 267.785 143.797 262.848C147.802 260.471 149.888 257.384 150.043 254.273V249.795H148.905Z" fill="#0BB55D"/>
<path opacity="0.25" d="M148.905 249.795C147.636 247.762 145.881 246.096 143.809 244.957C135.465 240.02 121.989 240.02 113.663 244.957C111.591 246.096 109.836 247.762 108.567 249.795H107.417V254.273C107.572 257.384 109.646 260.471 113.651 262.848C121.995 267.785 135.471 267.785 143.797 262.848C147.802 260.471 149.888 257.384 150.043 254.273V249.795H148.905Z" fill="black"/>
<path opacity="0.1" d="M128.736 241.25C123.283 241.25 117.823 242.475 113.663 244.956C111.591 246.095 109.836 247.761 108.567 249.795H107.417V254.272C107.572 257.384 109.646 260.471 113.651 262.847C117.823 265.297 123.271 266.553 128.724 266.553L128.736 241.25Z" fill="black"/>
<path opacity="0.1" d="M117.09 243.301C115.906 243.756 114.76 244.309 113.663 244.955C111.591 246.094 109.836 247.76 108.567 249.793H107.417V254.271C107.572 257.382 109.646 260.469 113.651 262.846C114.747 263.491 115.894 264.043 117.078 264.494L117.09 243.301Z" fill="black"/>
<path opacity="0.5" d="M140.382 243.301C141.566 243.756 142.712 244.309 143.809 244.955C145.881 246.094 147.636 247.76 148.905 249.793H150.055V254.271C149.9 257.382 147.814 260.469 143.809 262.846C142.713 263.491 141.566 264.043 140.382 264.494V243.301Z" fill="#0BB55D"/>
<path d="M113.663 240.851C105.319 245.794 105.319 253.8 113.663 258.742C120.946 263.067 132.193 263.606 140.483 260.366L140.817 260.231C141.843 259.808 142.839 259.31 143.797 258.742C150.74 254.62 151.897 248.367 147.26 243.54C146.231 242.488 145.068 241.583 143.803 240.851C135.489 235.914 121.989 235.914 113.663 240.851Z" fill="#0BB55D"/>
<path opacity="0.2" d="M113.663 240.851C105.319 245.794 105.319 253.8 113.663 258.742C120.946 263.067 132.193 263.606 140.483 260.366L140.817 260.231C141.843 259.808 142.839 259.31 143.797 258.742C150.74 254.62 151.897 248.367 147.26 243.54C146.231 242.488 145.068 241.583 143.803 240.851C135.489 235.914 121.989 235.914 113.663 240.851Z" fill="black"/>
<path opacity="0.5" d="M147.271 243.539C148.177 244.592 148.846 245.837 149.231 247.186C149.616 248.534 149.708 249.953 149.5 251.342C148.761 255.691 142.837 259.348 140.799 260.23C141.825 259.807 142.821 259.309 143.779 258.742C150.752 254.619 151.908 248.366 147.271 243.539Z" fill="#F5F5F5"/>
<path opacity="0.5" d="M110.2 256.031C109.295 254.978 108.626 253.733 108.24 252.384C107.855 251.036 107.763 249.616 107.971 248.227C108.71 243.879 114.634 240.222 116.673 239.34C115.647 239.764 114.651 240.262 113.693 240.828C106.719 245.006 105.563 251.229 110.2 256.031Z" fill="#F5F5F5"/>
<path d="M128.742 261.54C139.686 261.54 148.559 256.275 148.559 249.78C148.559 243.285 139.686 238.02 128.742 238.02C117.797 238.02 108.925 243.285 108.925 249.78C108.925 256.275 117.797 261.54 128.742 261.54Z" fill="#0BB55D"/>
<path opacity="0.4" d="M128.742 261.54C139.686 261.54 148.559 256.275 148.559 249.78C148.559 243.285 139.686 238.02 128.742 238.02C117.797 238.02 108.925 243.285 108.925 249.78C108.925 256.275 117.797 261.54 128.742 261.54Z" fill="white"/>
<path opacity="0.2" d="M109.825 253.291C108.234 250.265 108.752 246.927 111.381 244.103C111.898 243.551 112.461 243.045 113.061 242.59C113.575 242.195 114.11 241.831 114.664 241.5C114.98 241.31 115.308 241.132 115.642 240.961C114.819 242.351 115.117 243.846 119.814 244.121C128.945 244.673 117.37 253.646 117.37 253.646C117.37 253.646 111.452 250.724 109.825 253.291Z" fill="white"/>
<path opacity="0.5" d="M110.767 250.811C109.396 250.652 108.716 249.206 109.253 247.577C109.789 245.948 111.327 244.753 112.698 244.913C114.069 245.072 114.748 246.517 114.218 248.147C113.687 249.776 112.138 250.97 110.767 250.811Z" fill="white"/>
<path d="M125.214 258.29C125.667 254.799 140.495 245.152 140.495 245.152C140.495 245.152 143.779 243.792 142.688 241.434C143.236 241.753 143.766 242.104 144.274 242.487C144.609 242.731 144.931 242.992 145.239 243.271C149.656 247.197 149.662 252.361 145.239 256.293C144.941 256.556 144.643 256.82 144.274 257.077C143.802 257.429 143.312 257.756 142.808 258.057C142.299 258.363 141.775 258.645 141.234 258.902C140.805 259.117 140.352 259.313 139.899 259.515C139.446 259.717 138.981 259.87 138.511 260.029C137.065 260.513 135.584 260.878 134.082 261.12L133.093 261.273C131.624 261.465 130.145 261.559 128.665 261.555C126.852 261.555 125.042 261.403 123.253 261.101C123.253 261.101 125.643 260.581 125.214 258.29Z" fill="#0BB55D"/>
<path opacity="0.3" d="M125.214 258.29C125.667 254.799 140.495 245.152 140.495 245.152C140.495 245.152 143.779 243.792 142.688 241.434C143.236 241.753 143.766 242.104 144.274 242.487C144.609 242.731 144.931 242.992 145.239 243.271C149.656 247.197 149.662 252.361 145.239 256.293C144.941 256.556 144.643 256.82 144.274 257.077C143.802 257.429 143.312 257.756 142.808 258.057C142.299 258.363 141.775 258.645 141.234 258.902C140.805 259.117 140.352 259.313 139.899 259.515C139.446 259.717 138.981 259.87 138.511 260.029C137.065 260.513 135.584 260.878 134.082 261.12L133.093 261.273C131.624 261.465 130.145 261.559 128.665 261.555C126.852 261.555 125.042 261.403 123.253 261.101C123.253 261.101 125.643 260.581 125.214 258.29Z" fill="white"/>
<path d="M139.19 243.582C144.721 246.865 144.947 252.102 139.863 255.544C139.649 255.691 139.422 255.832 139.19 255.973C133.42 259.397 124.075 259.397 118.33 255.973C112.584 252.549 112.56 247.006 118.33 243.582C118.562 243.447 118.807 243.312 119.051 243.184C124.832 240.17 133.659 240.305 139.19 243.582Z" fill="#0BB55D"/>
<path opacity="0.2" d="M139.19 243.582C144.721 246.865 144.947 252.102 139.863 255.544C139.649 255.691 139.422 255.832 139.19 255.973C133.42 259.397 124.075 259.397 118.33 255.973C112.584 252.549 112.56 247.006 118.33 243.582C118.562 243.447 118.807 243.312 119.051 243.184C124.832 240.17 133.659 240.305 139.19 243.582Z" fill="black"/>
<path d="M138.725 243.857C144.232 247.128 144.232 252.432 138.725 255.697C133.218 258.962 124.278 258.968 118.765 255.697C113.252 252.426 113.252 247.122 118.765 243.857C124.278 240.592 133.212 240.586 138.725 243.857Z" fill="#0BB55D"/>
<path opacity="0.5" d="M138.725 243.857C144.232 247.128 144.232 252.432 138.725 255.697C133.218 258.962 124.278 258.968 118.765 255.697C113.252 252.426 113.252 247.122 118.765 243.857C124.278 240.592 133.212 240.586 138.725 243.857Z" fill="black"/>
<path d="M138.725 246.191C133.212 242.921 124.278 242.921 118.765 246.191C116.512 247.533 115.189 249.205 114.771 250.944C115.177 252.684 116.512 254.362 118.765 255.698C124.278 258.968 133.212 258.968 138.725 255.698C140.978 254.362 142.301 252.684 142.718 250.944C142.307 249.205 140.978 247.533 138.725 246.191Z" fill="#0BB55D"/>
<path opacity="0.35" d="M138.725 246.191C133.212 242.921 124.278 242.921 118.765 246.191C116.512 247.533 115.189 249.205 114.771 250.944C115.177 252.684 116.512 254.362 118.765 255.698C124.278 258.968 133.212 258.968 138.725 255.698C140.978 254.362 142.301 252.684 142.718 250.944C142.307 249.205 140.978 247.533 138.725 246.191Z" fill="black"/>
<path d="M137.628 252.299C137.628 252.018 137.628 250.866 137.628 250.572C137.628 249.861 137.146 249.175 136.12 248.557H136.085C134.189 247.43 132.229 247.577 130.488 248.03C129.749 248.226 129.046 248.471 128.402 248.698C127.67 248.98 126.921 249.217 126.161 249.408C125.812 249.492 125.453 249.527 125.094 249.512C124.788 249.495 124.488 249.413 124.212 249.273L124.284 249.218L124.504 249.077C124.697 248.965 124.896 248.865 125.1 248.777C126.097 248.326 127.226 248.3 128.241 248.704L130.029 246.83V245.108C128.434 244.549 126.713 244.485 125.083 244.925C124.544 245.066 124.018 245.253 123.509 245.482L121.721 244.41L119.558 245.69V247.411L120.303 247.852C120.102 248.148 119.99 248.497 119.981 248.857C119.981 249.139 119.981 250.284 119.981 250.572C119.981 251.283 120.475 251.969 121.518 252.587C122.425 253.131 123.449 253.434 124.498 253.469C124.695 253.469 124.898 253.469 125.094 253.469C126.19 253.389 127.27 253.149 128.301 252.759L128.897 252.538L127.079 254.419V256.14C128.201 256.576 129.398 256.774 130.597 256.72C131.796 256.666 132.971 256.362 134.052 255.827L135.84 256.887L138.004 255.607V253.886L137.259 253.445C137.497 253.113 137.626 252.712 137.628 252.299ZM133.075 252.152C132.914 252.249 132.746 252.335 132.574 252.41C131.452 252.908 130.183 252.928 129.046 252.465C130.739 251.852 132.145 251.313 133.349 251.975C133.262 252.04 133.17 252.1 133.075 252.152Z" fill="#0BB55D"/>
<path d="M130.524 248.007C129.785 248.203 129.082 248.448 128.438 248.674C127.706 248.956 126.957 249.194 126.197 249.385C125.848 249.468 125.489 249.503 125.131 249.489C124.769 249.468 124.418 249.359 124.105 249.17C123.408 248.76 123.307 248.154 124.32 247.474L124.541 247.333C124.733 247.22 124.932 247.12 125.137 247.033C126.133 246.581 127.262 246.555 128.277 246.959L130.065 245.085C128.47 244.525 126.749 244.461 125.119 244.901C124.58 245.043 124.054 245.229 123.545 245.459L121.757 244.387L119.594 245.667L121.382 246.727C119.594 248.141 119.528 249.611 121.572 250.824C122.479 251.368 123.503 251.671 124.552 251.706C124.749 251.706 124.952 251.706 125.148 251.706C126.244 251.626 127.324 251.386 128.355 250.996C130.423 250.285 132.104 249.446 133.498 250.273C134.434 250.83 134.178 251.529 133.147 252.11C132.985 252.207 132.818 252.293 132.646 252.368C132.082 252.617 131.475 252.747 130.861 252.753C130.247 252.758 129.638 252.637 129.07 252.398L127.175 254.352C128.297 254.789 129.494 254.986 130.693 254.932C131.891 254.879 133.067 254.575 134.148 254.04L135.936 255.1L138.1 253.819L136.312 252.76C138.1 251.333 138.314 249.777 136.216 248.515H136.18C134.196 247.406 132.235 247.553 130.524 248.007Z" fill="#0BB55D"/>
<g opacity="0.3">
<path d="M130.524 248.007C129.785 248.203 129.082 248.448 128.438 248.674C127.706 248.956 126.957 249.194 126.197 249.385C125.848 249.468 125.489 249.503 125.131 249.489C124.769 249.468 124.418 249.359 124.105 249.17C123.408 248.76 123.307 248.154 124.32 247.474L124.541 247.333C124.733 247.22 124.932 247.12 125.137 247.033C126.133 246.581 127.262 246.555 128.277 246.959L130.065 245.085C128.47 244.525 126.749 244.461 125.119 244.901C124.58 245.043 124.054 245.229 123.545 245.459L121.757 244.387L119.594 245.667L121.382 246.727C119.594 248.141 119.528 249.611 121.572 250.824C122.479 251.368 123.503 251.671 124.552 251.706C124.749 251.706 124.952 251.706 125.148 251.706C126.244 251.626 127.324 251.386 128.355 250.996C130.423 250.285 132.104 249.446 133.498 250.273C134.434 250.83 134.178 251.529 133.147 252.11C132.985 252.207 132.818 252.293 132.646 252.368C132.082 252.617 131.475 252.747 130.861 252.753C130.247 252.758 129.638 252.637 129.07 252.398L127.175 254.352C128.297 254.789 129.494 254.986 130.693 254.932C131.891 254.879 133.067 254.575 134.148 254.04L135.936 255.1L138.1 253.819L136.312 252.76C138.1 251.333 138.314 249.777 136.216 248.515H136.18C134.196 247.406 132.235 247.553 130.524 248.007Z" fill="white"/>
</g>
<path opacity="0.45" d="M119.54 245.671L121.715 244.654L123.503 245.463L121.698 244.391L119.54 245.671Z" fill="#F5F5F5"/>
<path opacity="0.45" d="M124.826 245.003C126.365 244.688 127.955 244.745 129.469 245.168L128.217 247.006L130.005 245.132C128.332 244.545 126.525 244.5 124.826 245.003Z" fill="#F5F5F5"/>
<path opacity="0.45" d="M136.091 248.533H136.126C138.224 249.795 138.016 251.351 136.222 252.778C137.813 250.996 137.527 249.752 135.799 248.723C134.162 247.871 132.293 247.609 130.494 247.982C132.234 247.553 134.195 247.406 136.091 248.533Z" fill="#F5F5F5"/>
<path opacity="0.45" d="M136.222 252.801L137.593 253.885L135.847 255.141L138.01 253.86L136.222 252.801Z" fill="#F5F5F5"/>
<path opacity="0.45" d="M132.574 252.41C131.509 252.964 130.278 253.076 129.135 252.723L127.085 254.395L128.98 252.441C129.551 252.682 130.163 252.804 130.78 252.799C131.397 252.794 132.007 252.661 132.574 252.41Z" fill="#F5F5F5"/>
<path opacity="0.45" d="M126.143 249.388C125.724 249.563 125.27 249.631 124.82 249.587C124.37 249.544 123.937 249.389 123.557 249.136C122.931 248.585 123.336 247.991 124.266 247.477C123.253 248.156 123.354 248.763 124.051 249.173C124.364 249.362 124.715 249.471 125.077 249.492C125.435 249.506 125.794 249.471 126.143 249.388Z" fill="#F5F5F5"/>
<path opacity="0.45" d="M121.31 246.75C121.155 246.885 119.855 248.134 120.427 249.378C121 250.621 122.943 251.558 124.48 251.73C123.431 251.695 122.407 251.392 121.5 250.848C119.456 249.635 119.492 248.165 121.31 246.75Z" fill="#F5F5F5"/>
<path d="M109.908 247.571L110.445 243.375L110.981 247.571L118.044 247.889L110.981 248.208L110.445 252.397L109.908 248.208L102.84 247.889L109.908 247.571Z" fill="white"/>
<g opacity="0.3">
<path d="M237.667 256.075C237.637 256.083 237.606 256.083 237.577 256.075L226.039 249.227C226.011 249.211 225.989 249.187 225.973 249.159C225.957 249.132 225.949 249.1 225.949 249.068C225.95 249.036 225.958 249.006 225.974 248.979C225.99 248.952 226.012 248.93 226.039 248.914L240.468 240.339C240.494 240.324 240.524 240.316 240.554 240.316C240.584 240.316 240.614 240.324 240.641 240.339L252.185 247.187C252.212 247.203 252.235 247.227 252.251 247.254C252.266 247.282 252.275 247.314 252.275 247.346C252.274 247.379 252.265 247.41 252.25 247.438C252.234 247.466 252.212 247.489 252.185 247.506L237.756 256.081C237.726 256.088 237.695 256.086 237.667 256.075ZM226.48 249.043L237.661 255.683L251.732 247.334L240.551 240.713L226.48 249.043Z" fill="#0BB55D"/>
</g>
<path d="M237.667 254.185V192.793L229.013 187.66V249.052L237.667 254.185Z" fill="#0BB55D"/>
<path opacity="0.2" d="M237.667 254.185V192.793L229.013 187.66V249.052L237.667 254.185Z" fill="black"/>
<path d="M237.667 254.183L249.212 247.335V185.949L237.667 192.791V254.183Z" fill="#0BB55D"/>
<path d="M249.211 185.951L240.557 180.812L229.013 187.66L237.667 192.793L249.211 185.951Z" fill="#0BB55D"/>
<path opacity="0.25" d="M249.211 185.951L240.557 180.812L229.013 187.66L237.667 192.793L249.211 185.951Z" fill="white"/>
<path opacity="0.3" d="M249.211 185.949L237.554 192.552L233.769 190.378L229.001 187.658L233.674 190.531L237.5 192.877C237.411 194.212 237.387 248.756 237.405 250.091C237.411 251.459 237.494 252.825 237.655 254.183C237.817 252.825 237.903 251.459 237.911 250.091C237.911 248.799 237.911 194.298 237.816 193.005L249.211 185.949Z" fill="white"/>
<g opacity="0.3">
<path d="M216.032 268.922C216.003 268.929 215.972 268.929 215.943 268.922L204.428 262.043C204.402 262.028 204.379 262.006 204.363 261.979C204.348 261.952 204.339 261.921 204.339 261.89C204.339 261.858 204.347 261.826 204.363 261.798C204.378 261.77 204.401 261.747 204.428 261.731L218.857 253.156C218.885 253.141 218.916 253.133 218.947 253.133C218.978 253.133 219.009 253.141 219.036 253.156L230.575 260.004C230.601 260.021 230.623 260.044 230.639 260.072C230.654 260.099 230.663 260.131 230.664 260.163C230.664 260.195 230.656 260.227 230.64 260.255C230.625 260.283 230.602 260.306 230.575 260.322L216.146 268.897C216.111 268.917 216.072 268.925 216.032 268.922ZM204.845 261.89L216.032 268.524L230.098 260.175L218.917 253.542L204.845 261.89Z" fill="#0BB55D"/>
</g>
<path d="M216.032 267.02L216.026 230.19L207.372 225.051V261.887L216.032 267.02Z" fill="#0BB55D"/>
<path opacity="0.1" d="M216.032 267.02L216.026 230.19L207.372 225.051V261.887L216.032 267.02Z" fill="white"/>
<path d="M216.032 267.022L227.571 260.174V223.344L216.026 230.192L216.032 267.022Z" fill="#0BB55D"/>
<path opacity="0.3" d="M216.032 267.022L227.571 260.174V223.344L216.026 230.192L216.032 267.022Z" fill="white"/>
<path d="M227.57 223.342L218.917 218.203L207.372 225.051L216.026 230.19L227.57 223.342Z" fill="#0BB55D"/>
<path opacity="0.55" d="M227.57 223.342L218.917 218.203L207.372 225.051L216.026 230.19L227.57 223.342Z" fill="white"/>
<path opacity="0.3" d="M216.181 230.412L227.571 223.344L215.913 229.953C214.655 229.218 213.392 228.501 212.128 227.778L207.36 225.053L212.033 227.925C213.308 228.717 214.586 229.502 215.865 230.277C215.824 231.662 215.782 238.344 215.77 239.728C215.758 241.113 215.77 257.13 215.77 258.545C215.77 259.96 215.77 261.368 215.847 262.783C215.925 264.198 215.937 265.613 216.026 267.022C216.11 265.613 216.167 264.2 216.199 262.783C216.247 261.368 216.271 259.96 216.277 258.545C216.282 257.13 216.277 241.137 216.277 239.728C216.277 238.32 216.223 231.747 216.181 230.412Z" fill="white"/>
<g opacity="0.3">
<path d="M194.391 281.754C194.362 281.759 194.331 281.759 194.302 281.754L182.757 274.906C182.731 274.889 182.71 274.865 182.695 274.838C182.681 274.81 182.673 274.778 182.674 274.747C182.673 274.715 182.68 274.683 182.694 274.655C182.709 274.627 182.731 274.604 182.757 274.587L197.187 266.012C197.213 265.994 197.244 265.984 197.276 265.984C197.308 265.984 197.339 265.994 197.365 266.012L208.904 272.86C208.931 272.875 208.953 272.897 208.969 272.924C208.984 272.951 208.993 272.982 208.993 273.013C208.993 273.046 208.985 273.077 208.969 273.105C208.954 273.133 208.931 273.156 208.904 273.172L194.481 281.748C194.452 281.755 194.421 281.757 194.391 281.754ZM183.204 274.722L194.391 281.362L208.463 273.007L197.276 266.38L183.204 274.722Z" fill="#0BB55D"/>
</g>
<path d="M194.391 279.86L194.385 266.918L185.731 261.785V274.727L194.391 279.86Z" fill="#0BB55D"/>
<path opacity="0.45" d="M194.391 279.86L194.385 266.918L185.731 261.785V274.727L194.391 279.86Z" fill="black"/>
<path d="M194.392 279.86L205.93 273.019V260.07L194.386 266.918L194.392 279.86Z" fill="#0BB55D"/>
<path opacity="0.3" d="M194.392 279.86L205.93 273.019V260.07L194.386 266.918L194.392 279.86Z" fill="black"/>
<path d="M205.93 260.07L197.276 254.938L185.731 261.785L194.385 266.918L205.93 260.07Z" fill="#0BB55D"/>
<path opacity="0.15" d="M205.93 260.07L197.276 254.938L185.731 261.785L194.385 266.918L205.93 260.07Z" fill="black"/>
<path opacity="0.3" d="M205.93 260.07L194.296 266.679L190.511 264.505L185.743 261.785L190.416 264.658L194.242 267.004C194.153 267.812 194.129 276.528 194.147 277.343C194.155 278.189 194.241 279.031 194.403 279.86C194.563 279.031 194.647 278.188 194.653 277.343C194.653 276.571 194.653 267.898 194.57 267.126L205.93 260.07Z" fill="white"/>
<g opacity="0.3">
<path d="M259.307 243.238C259.278 243.246 259.247 243.246 259.218 243.238L247.679 236.366C247.652 236.35 247.629 236.326 247.614 236.298C247.598 236.27 247.59 236.239 247.59 236.206C247.591 236.174 247.6 236.143 247.615 236.115C247.631 236.088 247.653 236.064 247.679 236.047L262.102 227.472C262.13 227.457 262.161 227.449 262.192 227.449C262.223 227.449 262.254 227.457 262.281 227.472L273.826 234.32C273.852 234.336 273.874 234.36 273.889 234.388C273.903 234.416 273.91 234.447 273.909 234.479C273.909 234.511 273.902 234.542 273.887 234.57C273.873 234.598 273.851 234.621 273.826 234.638L259.397 243.214C259.37 243.23 259.339 243.239 259.307 243.238ZM248.12 236.206L259.307 242.846L273.379 234.498L262.192 227.852L248.12 236.206Z" fill="#0BB55D"/>
</g>
<path d="M259.307 241.345V156.366L250.653 151.227V236.206L259.307 241.345Z" fill="#0BB55D"/>
<path opacity="0.3" d="M259.307 241.345V156.366L250.653 151.227V236.206L259.307 241.345Z" fill="white"/>
<path d="M259.308 241.347L270.846 234.499L270.852 149.52L259.308 156.367V241.347Z" fill="#0BB55D"/>
<path opacity="0.55" d="M259.308 241.347L270.846 234.499L270.852 149.52L259.308 156.367V241.347Z" fill="white"/>
<path d="M270.852 149.518L262.192 144.379L250.653 151.227L259.307 156.366L270.852 149.518Z" fill="#0BB55D"/>
<path opacity="0.75" d="M270.852 149.518L262.192 144.379L250.653 151.227L259.307 156.366L270.852 149.518Z" fill="white"/>
<path opacity="0.3" d="M259.463 156.588L270.852 149.52L259.188 156.122C257.929 155.396 256.667 154.673 255.404 153.954L250.636 151.228L255.302 154.101C256.578 154.891 257.853 155.675 259.141 156.453C259.099 158.021 259.057 177.701 259.045 179.275C259.033 180.849 259.045 230.163 259.045 231.761C259.045 233.36 259.075 234.952 259.123 236.551C259.17 238.15 259.212 239.748 259.302 241.347C259.391 239.748 259.445 238.15 259.48 236.551C259.516 234.952 259.546 233.36 259.558 231.761C259.57 230.163 259.558 180.868 259.558 179.275C259.558 177.683 259.498 158.113 259.463 156.588Z" fill="white"/>
<path opacity="0.5" d="M58.3907 104.028L24.9551 123.867L41.6729 92.3047L58.3907 104.028Z" fill="#0BB55D"/>
<path opacity="0.3" d="M58.3907 118.458L24.9551 138.297L41.6729 106.734L58.3907 118.458Z" fill="#0BB55D"/>
<path opacity="0.15" d="M58.3907 132.884L24.9551 152.723L41.6729 121.16L58.3907 132.884Z" fill="#0BB55D"/>
<path d="M93.7803 55.5989V47.7037L100.241 47.0054C100.369 46.9872 100.5 47.0153 100.61 47.085L103.996 49.1002C104.078 49.1456 104.148 49.21 104.201 49.2884C104.255 49.3668 104.289 49.457 104.303 49.5517C104.316 49.6463 104.308 49.7429 104.278 49.8336C104.249 49.9243 104.199 50.0067 104.133 50.0741L97.1477 57.6202L93.7803 55.5989Z" fill="#0BB55D"/>
<path d="M73.5166 73.4092V49.0007C73.5259 48.8067 73.5799 48.6178 73.6742 48.4496C73.7685 48.2813 73.9004 48.1385 74.059 48.0329L93.4409 36.5545C93.608 36.4673 93.7928 36.4219 93.9803 36.4219C94.1677 36.4219 94.3525 36.4673 94.5196 36.5545L97.5354 38.392C97.6929 38.4983 97.8236 38.6414 97.9168 38.8096C98.0101 38.9778 98.0632 39.1664 98.0718 39.3598V63.7866C98.0625 63.9806 98.0085 64.1695 97.9142 64.3377C97.8199 64.506 97.688 64.6488 97.5294 64.7544L78.1475 76.2267C77.9804 76.3139 77.7956 76.3593 77.6081 76.3593C77.4207 76.3593 77.2359 76.3139 77.0688 76.2267L74.053 74.3892C73.8939 74.2817 73.7623 74.1367 73.6689 73.9662C73.5756 73.7957 73.5234 73.6047 73.5166 73.4092Z" fill="#0BB55D"/>
<path opacity="0.15" d="M78.0757 76.251C77.8194 76.3552 77.6227 76.2082 77.6227 75.8897V51.4505C77.6291 51.2555 77.6845 51.0656 77.7837 50.8993L73.6832 48.4492C73.5902 48.6109 73.5389 48.7943 73.5342 48.9821V73.409C73.5428 73.6024 73.5959 73.7909 73.6892 73.9591C73.7824 74.1274 73.9131 74.2705 74.0706 74.3768L77.0863 76.2143C77.2391 76.2929 77.4064 76.3369 77.5771 76.3432C77.7478 76.3496 77.9179 76.3181 78.0757 76.251Z" fill="black"/>
<path d="M103.645 48.9998L98.0721 49.6123V39.3405C98.0721 38.9853 97.8277 38.8444 97.5297 39.022L78.1478 50.5005C77.99 50.6055 77.8587 50.7473 77.7644 50.9144C77.6702 51.0816 77.6157 51.2692 77.6055 51.4621V75.889C77.6055 76.2443 77.8498 76.3851 78.1478 76.2075L97.5297 64.7352C97.6883 64.6296 97.8202 64.4868 97.9145 64.3185C98.0088 64.1503 98.0628 63.9614 98.0721 63.7674V56.6439L104.145 50.0717C104.248 49.9846 104.319 49.8646 104.348 49.731C104.376 49.5974 104.361 49.4579 104.303 49.3345C104.245 49.2112 104.149 49.1113 104.03 49.0506C103.911 48.9899 103.775 48.9721 103.645 48.9998Z" fill="#0BB55D"/>
<path opacity="0.35" d="M103.645 48.9998L98.0721 49.6123V39.3405C98.0721 38.9853 97.8277 38.8444 97.5297 39.022L78.1478 50.5005C77.99 50.6055 77.8587 50.7473 77.7644 50.9144C77.6702 51.0816 77.6157 51.2692 77.6055 51.4621V75.889C77.6055 76.2443 77.8498 76.3851 78.1478 76.2075L97.5297 64.7352C97.6883 64.6296 97.8202 64.4868 97.9145 64.3185C98.0088 64.1503 98.0628 63.9614 98.0721 63.7674V56.6439L104.145 50.0717C104.248 49.9846 104.319 49.8646 104.348 49.731C104.376 49.5974 104.361 49.4579 104.303 49.3345C104.245 49.2112 104.149 49.1113 104.03 49.0506C103.911 48.9899 103.775 48.9721 103.645 48.9998Z" fill="white"/>
<path d="M93.4823 60.062C93.5052 60.0188 93.5173 59.9704 93.5173 59.9211C93.5173 59.8719 93.5052 59.8235 93.4823 59.7803L92.6538 58.8309C92.5539 58.6682 92.4926 58.4836 92.475 58.292C92.4574 58.1005 92.484 57.9074 92.5525 57.7284C92.6526 57.2912 92.8892 56.8997 93.226 56.6136L94.5551 55.6213C94.6391 55.5479 94.6942 55.4456 94.71 55.3334C94.7816 54.7524 94.8174 54.1673 94.8173 53.5817C94.8174 53.0328 94.7835 52.4846 94.716 51.9401C94.716 51.8483 94.6385 51.8054 94.561 51.836L93.2379 52.4118C93.1746 52.4442 93.1051 52.4618 93.0344 52.4632C92.9636 52.4646 92.8935 52.4498 92.829 52.4199C92.7645 52.39 92.7074 52.3457 92.6616 52.2903C92.6158 52.2348 92.5826 52.1696 92.5644 52.0994C92.5644 52.0994 92.5644 52.0994 92.5644 52.0688C92.4462 51.6614 92.4846 51.2229 92.6717 50.8437L93.5002 48.9205C93.5222 48.8759 93.5336 48.8265 93.5336 48.7765C93.5336 48.7265 93.5222 48.6772 93.5002 48.6326C93.0756 48.0037 92.4779 47.5195 91.7837 47.2422C91.7181 47.2422 91.6347 47.2422 91.5751 47.3647L90.5261 49.1226C90.4425 49.2911 90.322 49.4374 90.1741 49.55C90.0263 49.6627 89.855 49.7386 89.6738 49.7719C89.3818 49.7719 89.1792 49.533 89.1494 49.1593L89.0004 47.4259C89.0004 47.3218 88.9348 47.2789 88.8573 47.3034C87.9572 47.6391 87.1204 48.1323 86.3839 48.7612C86.303 48.8381 86.2522 48.9426 86.2409 49.0552L86.0859 50.9662C86.0396 51.4208 85.8562 51.8491 85.5614 52.1913C85.2694 52.522 84.9654 52.6629 84.7092 52.5465L83.6185 52.0626C83.5529 52.0626 83.4695 52.0626 83.4039 52.179C82.7094 53.2526 82.1223 54.3957 81.6517 55.5907C81.6292 55.6352 81.6175 55.6845 81.6175 55.7346C81.6175 55.7847 81.6292 55.8341 81.6517 55.8786L82.4801 56.8218C82.5791 56.985 82.6393 57.1699 82.6559 57.3614C82.6724 57.5529 82.6449 57.7458 82.5755 57.9244C82.5783 57.9364 82.5783 57.949 82.5755 57.9611C82.4742 58.3928 82.2401 58.7795 81.9079 59.0636L80.5729 60.062C80.4883 60.1341 80.4348 60.2375 80.4239 60.3499C80.3504 60.9328 80.3126 61.52 80.3107 62.1078C80.3081 62.6508 80.344 63.1933 80.4179 63.731C80.4179 63.829 80.4895 63.8718 80.5669 63.8351L81.896 63.2654C81.9601 63.2331 82.0305 63.216 82.1019 63.2153C82.1733 63.2147 82.2439 63.2305 82.3086 63.2617C82.3732 63.2929 82.4302 63.3385 82.4754 63.3954C82.5206 63.4522 82.5527 63.5187 82.5695 63.5901C82.6853 63.9977 82.647 64.4352 82.4622 64.8151L81.6517 66.7629C81.6296 66.8086 81.6181 66.8589 81.6181 66.9099C81.6181 66.9609 81.6296 67.0112 81.6517 67.0569C82.089 67.6787 82.6971 68.1522 83.3979 68.4166C83.4635 68.4166 83.547 68.4166 83.6066 68.288L84.6496 66.5301C84.738 66.3677 84.8612 66.2282 85.0099 66.1221C85.1586 66.0159 85.3289 65.946 85.5078 65.9176C85.7998 65.9176 85.9965 66.1442 86.0323 66.5301L86.1813 68.2635C86.1813 68.3615 86.2468 68.4166 86.3243 68.386C86.7541 68.2239 87.1673 68.0187 87.558 67.7735C87.9926 67.5147 88.407 67.2219 88.7977 66.8976C88.8773 66.8198 88.9279 66.7158 88.9408 66.6036L89.0957 64.6926C89.1438 64.2397 89.3246 63.8125 89.6142 63.4676C89.9122 63.1307 90.2102 62.9898 90.4725 63.1062L91.5095 63.6329C91.5691 63.6329 91.6585 63.6329 91.7181 63.5166C92.4167 62.4283 93.0077 61.2711 93.4823 60.062ZM87.564 62.8489C85.5436 64.0372 83.9045 62.7571 83.9105 59.9885C83.9165 57.22 85.5555 53.9859 87.5759 52.7976C89.5964 51.6094 91.2354 52.8957 91.2294 55.6642C91.2234 58.4327 89.5785 61.6545 87.564 62.8489Z" fill="white"/>
</svg>
