<svg width="500" height="500" viewBox="0 0 500 500" fill="none" xmlns="http://www.w3.org/2000/svg">
<path d="M350.433 93.0924L354.348 87.9172C357.888 74.3236 358.507 60.4772 358.385 46.5635C350.149 29.8886 336.989 18.7235 319.562 12.2935C298.932 4.6764 285.919 7.7984 270.309 24.1123L253.999 55.4474C254.968 63.2248 261.602 63.1712 267.04 64.6123C285.435 69.4948 303.844 74.2836 321.002 82.7147C326.506 86.7834 333.853 87.7836 338.591 93.1197C342.506 97.0811 346.463 96.4811 350.433 93.0924Z" fill="#147F22"/>
<path d="M324.604 77.4174C303.073 63.7974 279.079 57.7138 253.941 55.4199L249.083 56.7537L229.139 72.4949C223.057 87.0887 235.572 84.2601 242.597 86.6086C246.944 86.9267 251.27 87.479 255.556 88.2625C266.497 88.2625 269.538 102.736 280.909 102.016C295.066 104.057 307.096 99.6676 317.472 90.21C323.097 87.7687 325.358 83.42 324.604 77.4174Z" fill="#37B34E"/>
<path d="M173.722 485.496C178.27 486.91 180.746 487.577 184.487 486.657C192.844 482.895 193.45 474.744 193.691 467.713C194.553 443.008 195.697 418.25 192.938 393.598C190.842 386.951 186.335 381.309 180.289 377.763C162.794 367.318 90.8662 324.751 75.5927 318.308C68.4873 315.306 60.131 310.984 55.8378 322.657C54.9227 347.442 55.6632 372.201 55.4341 396.973C55.4341 402.882 55.932 408.552 59.9291 413.341C63.4275 416.102 164.261 482.681 173.722 485.496Z" fill="#CBAB87"/>
<path d="M354.291 143.075C354.291 141.927 354.197 140.794 354.157 139.647L342.678 124.466C339.986 123.759 336.474 123.639 335.008 125.334C320.527 141.981 299.911 148.237 280.977 157.349C277.411 163.912 278.783 171.356 277.236 178.292C283.023 200.036 289.831 202.917 308.106 190.299C321.644 180.96 335.343 171.622 346.755 159.616C351.196 154.975 355.57 150.305 354.291 143.075Z" fill="#158023"/>
<path d="M350.427 93.0917L342.622 88.3156C332.947 86.8725 323.059 88.4873 314.363 92.9317C309.773 104.804 307.365 117.477 300.273 128.429C297.581 132.591 296.895 137.46 300.69 141.769C313.514 144.65 330.767 134.445 338.262 119.624C339.702 116.769 339.607 113.342 341.68 110.727C346.786 106.191 349.922 99.87 350.427 93.0917Z" fill="#ED9F78"/>
<path d="M341.64 110.765C330.874 123.238 319.557 135.123 302.762 139.686C293.961 134.63 286.412 136.578 279.791 143.688C278.328 148.215 278.281 153.075 279.656 157.628C280.566 159.293 282.067 160.562 283.869 161.19C308.589 156.961 326.931 142.767 342.676 124.398C342.344 119.881 341.999 115.336 341.64 110.765Z" fill="#D18661"/>
<path d="M351.26 242.232C352.767 232.227 354.664 222.222 355.687 212.217C357.868 190.873 367.516 176.065 390.017 171.878L354.288 143.077C337.694 158.233 320.104 172.281 301.631 185.124C292.83 191.247 286.626 191.634 286.41 178.454C284.257 171.064 285.24 162.886 275.147 158.684C269.454 156.323 272.375 147.439 272.119 141.343C271.715 136.673 272.119 131.684 269.428 127.723C267.678 125.121 264.933 119.518 261.353 126.749L244.963 130.137C243.698 132.031 242.419 133.912 241.155 135.793C240.765 147.519 233.336 156.67 229.46 167.115C220.336 191.78 212.827 216.779 212.625 243.365C212.625 246.714 212.074 249.715 209.288 251.929L249.66 276.195C249.471 277.791 249.613 279.41 250.076 280.951C250.539 282.492 251.312 283.924 252.351 285.159C265.956 296.525 282.413 303.314 297.324 312.599C301.361 315.107 306.528 315.974 308.75 320.897C314.845 331.862 306.367 345.455 315.154 355.94C323.821 361.089 328.019 355.247 331.72 349.03C339.364 336.21 343.267 321.457 352.525 309.424C353.523 308.123 354.091 306.547 354.148 304.913C354.206 303.279 353.752 301.667 352.848 300.3C341.423 282.958 347.748 265.617 352.161 248.114C352.549 247.142 352.668 246.086 352.51 245.052C352.352 244.019 351.921 243.046 351.26 242.232Z" fill="#37B34E"/>
<path d="M319.37 353.993C319.37 360.671 319.338 367.341 319.275 374.003C338.115 367.599 350.145 351.685 366.187 341.359C369.618 339.159 369.982 334.596 368.879 331.074C359.7 302.074 358.934 271.459 351.276 242.178C349.177 247.02 347.656 252.223 344.858 256.638C335.948 270.632 329.113 284.292 343.808 298.885C344.926 300.099 345.566 301.671 345.613 303.314C345.66 304.957 345.11 306.562 344.063 307.836C332.652 321.617 331.104 340.493 319.37 353.993Z" fill="#148022"/>
<path d="M315.879 313.999C307.508 315.159 299.139 316.187 291.657 320.668C260.705 339.158 229 356.193 198.05 374.602C192.289 378.029 184.794 380.698 186.449 389.889C186.449 414.648 188.145 439.487 186.261 464.178C185.722 471.289 186.88 488.83 188.44 488.83C204.589 485.615 220.146 477.238 234.074 471.489C246.09 467.14 311.182 424.505 315.866 421.518C320.549 418.529 321.584 326.938 315.879 313.999Z" fill="#B29272"/>
<path d="M209.458 169.14L206.228 174.983C203.984 180.319 201.742 185.654 199.499 190.99C196.001 197.5 187.32 200.701 187.388 209.506C183.754 218.457 190.24 227.689 186.621 236.639C186.688 237.733 186.769 238.814 186.836 239.907C194.345 243.91 201.846 247.911 209.336 251.914C217.895 255.369 219.644 250.126 220.196 243.483C222.911 212.148 231.237 181.544 244.782 153.105C247.796 146.702 250.649 139.872 241.202 135.764L232.281 140.379L222.362 152.478L218.944 155.76C210.614 156.626 210.359 163.11 209.458 169.14Z" fill="#249B35"/>
<path d="M370.283 401.972C381.129 393.621 391.967 385.262 402.795 376.893L418.823 360.818C420.532 357.47 425.47 355.963 424.461 351.067C420.976 344.397 422.187 337.62 423.937 330.817C424.043 327.429 424.043 324.027 423.937 320.612C423.65 319.25 423.16 317.936 422.483 316.717C419.361 300.282 420.504 283.821 421.891 267.359C421.635 265.812 421.312 264.318 420.935 262.797C420.128 258.115 422.025 253.166 419.495 248.657L416.024 210.185C415.705 209.162 415.563 208.093 415.607 207.023C413.435 200.62 411.273 194.213 409.12 187.8L390.011 171.899C368.668 168.124 355.373 176.942 350.071 198.726C346.801 212.146 345.441 225.899 343.84 239.559C351.241 265.799 348.954 293.719 357.741 319.785C359.666 325.468 360.056 332.312 355.669 336.607C343.275 348.733 331.594 361.952 315.419 369.556C306.819 378.987 296.579 386.644 287.536 395.622C280.619 402.492 278.277 409.562 283.31 418.299C287.051 428.172 292.057 437.109 301.665 442.618C307.372 446.207 312.996 444.553 318.298 441.938C330.638 435.828 342.844 429.478 355.333 423.689C364.765 419.287 366.879 410.269 370.283 401.972Z" fill="#239B35"/>
<path d="M422.523 332.021C418.983 338.811 417.597 345.361 424.541 351.071C424.811 350.041 425.171 349.037 425.617 348.07C425.617 343.934 425.523 339.799 425.482 335.664C424.473 334.409 424.514 332.369 422.523 332.021Z" fill="#25A137"/>
<path d="M319.344 93.7309C330.514 106.376 334.793 89.8749 342.611 88.3147C337.55 83.3376 331.383 79.6055 324.606 77.416L315.819 84.6861C315.523 88.2747 314.419 92.1561 319.344 93.7309Z" fill="#724F2F"/>
<path d="M319.341 93.7314C318.17 90.7174 316.986 87.7025 315.816 84.7012C305.197 90.6774 294.459 96.2527 281.594 94.4388C275.309 92.6776 268.823 85.2612 262.633 92.0639C255.985 99.3613 258.905 108.939 260.359 117.73C260.708 120.731 261.072 123.734 261.422 126.748C263.79 132.538 262.444 139.488 267.087 144.544C268.204 149.079 271.474 150.586 275.781 150.613C278.809 150.133 281.082 148.319 283.303 146.424C290.112 145.09 296.868 143.636 302.762 139.754C310.931 125.32 321.064 111.634 319.341 93.7314Z" fill="#F0A882"/>
<path d="M260.356 117.73C262.603 94.1053 263.639 92.9588 281.577 94.439C274.23 88.0763 266.169 83.0602 256.319 81.499C257.57 93.5852 252.86 106.325 260.356 117.73Z" fill="#CE9168"/>
<path d="M276.408 146.488L267.096 144.553C263.8 150.289 263.503 156.745 262.791 163.055C262.346 167.058 259.91 172.046 264.526 174.741C268.658 177.143 270.986 172.42 273.946 170.446C284.523 163.295 282.76 175.048 286.448 178.45C286.649 172.566 286.851 166.684 283.904 161.241C283.811 160.391 283.658 159.549 283.447 158.72C280.11 155.199 283.662 147.808 276.408 146.488Z" fill="#1A8427"/>
<path d="M276.402 146.492L283.414 158.738C283.414 154.63 283.347 150.521 283.306 146.412L276.402 146.492Z" fill="#C78D63"/>
<path d="M280.597 460.722C291.497 456.854 294.875 445.476 302.949 438.792C298.553 430.948 294.148 423.1 289.734 415.247C273.326 419.693 256.912 424.087 240.495 428.427C237.804 429.133 235.018 429.867 235.314 433.189C235.61 436.511 238.598 437.111 241.182 437.658C246.914 438.872 252.862 439.458 256.912 444.461C254.141 460.843 258.084 463.564 280.597 460.722Z" fill="#F0A882"/>
<path d="M418.73 267.924C413.347 285.039 416.792 302.608 416.213 319.949C416.213 320.443 416.361 321.283 416.684 321.403C419.173 322.497 418.73 320.243 419.241 319.082C421.327 301.994 422.511 284.932 418.73 267.924Z" fill="#249E36"/>
<path d="M280.604 460.722C269.098 460.469 260.808 455.613 256.92 444.461C249.303 452.812 234.177 452.306 231.122 466.006L237.932 467.046C243.314 467.646 248.805 464.938 254.282 466.819C263.432 466.392 272.409 465.218 280.604 460.722Z" fill="#D58E69"/>
<path d="M254.296 466.819C251.894 465.144 249.02 464.265 246.084 464.306C243.148 464.346 240.3 465.305 237.945 467.045C240.421 468.524 243.264 469.287 246.153 469.247C249.043 469.207 251.864 468.366 254.296 466.819Z" fill="#E0946D"/>
<path d="M116.367 350.791C129.218 350.311 138.88 342.535 149.525 336.811C184.217 318.136 217.281 296.632 252.619 279.09C255.405 273.861 186.127 238.523 186.127 238.523C186.127 238.523 95.6831 292.47 56.7119 314.974C56.7119 316.935 99.5454 339.132 116.367 350.791Z" fill="#D8B894"/>
<path d="M186.458 389.888C226.83 367.041 267.201 344.163 307.572 321.254C310.721 319.453 313.143 316.438 315.902 313.998L257.659 281.102C249.464 281.168 242.17 283.769 235.052 287.772C199.176 308.274 163.729 329.485 127.221 348.908C124.826 350.15 122.893 352.118 121.703 354.524L186.458 389.888Z" fill="#D8B894"/>
<path d="M121.68 354.577C126.499 355.171 131.379 354.132 135.527 351.63C176.212 328.09 216.916 304.58 257.637 281.102L249.791 276.18C233.871 278.687 221.787 288.986 208.531 296.63C177.675 314.425 145.62 330.246 116.378 350.75L121.68 354.577Z" fill="#FDFCE9"/>
</svg>
