<svg width="30" height="31" viewBox="0 0 30 31" fill="none" xmlns="http://www.w3.org/2000/svg">
<path d="M17.5 26.0797V18.5297C17.5 18.1983 17.7686 17.9297 18.1 17.9297H25.65C25.9814 17.9297 26.25 18.1983 26.25 18.5297V26.0797C26.25 26.4111 25.9814 26.6797 25.65 26.6797H18.1C17.7686 26.6797 17.5 26.4111 17.5 26.0797Z" stroke="black" stroke-width="1.5"/>
<path d="M3.75 26.0797V18.5297C3.75 18.1983 4.01863 17.9297 4.35 17.9297H11.9C12.2314 17.9297 12.5 18.1983 12.5 18.5297V26.0797C12.5 26.4111 12.2314 26.6797 11.9 26.6797H4.35C4.01863 26.6797 3.75 26.4111 3.75 26.0797Z" stroke="black" stroke-width="1.5"/>
<path d="M17.5 12.3297V4.77969C17.5 4.44832 17.7686 4.17969 18.1 4.17969H25.65C25.9814 4.17969 26.25 4.44832 26.25 4.77969V12.3297C26.25 12.6611 25.9814 12.9297 25.65 12.9297H18.1C17.7686 12.9297 17.5 12.6611 17.5 12.3297Z" stroke="black" stroke-width="1.5"/>
<path d="M3.75 12.3297V4.77969C3.75 4.44832 4.01863 4.17969 4.35 4.17969H11.9C12.2314 4.17969 12.5 4.44832 12.5 4.77969V12.3297C12.5 12.6611 12.2314 12.9297 11.9 12.9297H4.35C4.01863 12.9297 3.75 12.6611 3.75 12.3297Z" stroke="black" stroke-width="1.5"/>
</svg>
