<svg width="30" height="31" viewBox="0 0 30 31" fill="none" xmlns="http://www.w3.org/2000/svg">
<path d="M3.75 19.1797C6.85345 19.1797 9.18103 15.4297 9.18103 15.4297C9.18103 15.4297 11.5086 19.1797 14.6121 19.1797C17.7155 19.1797 20.819 15.4297 20.819 15.4297C20.819 15.4297 23.9224 19.1797 26.25 19.1797" stroke="black" stroke-width="1.5" stroke-linecap="round" stroke-linejoin="round"/>
<path d="M3.75 25.4297C6.85345 25.4297 9.18103 21.6797 9.18103 21.6797C9.18103 21.6797 11.5086 25.4297 14.6121 25.4297C17.7155 25.4297 20.819 21.6797 20.819 21.6797C20.819 21.6797 23.9224 25.4297 26.25 25.4297" stroke="black" stroke-width="1.5" stroke-linecap="round" stroke-linejoin="round"/>
<path d="M23.75 12.9297C23.75 8.0972 19.8325 4.17969 15 4.17969C10.1675 4.17969 6.25 8.0972 6.25 12.9297" stroke="black" stroke-width="1.5" stroke-linecap="round" stroke-linejoin="round"/>
</svg>
