<svg width="16" height="17" viewBox="0 0 16 17" fill="none" xmlns="http://www.w3.org/2000/svg">
<mask id="mask0_4_306" style="mask-type:luminance" maskUnits="userSpaceOnUse" x="0" y="0" width="16" height="17">
<path fill-rule="evenodd" clip-rule="evenodd" d="M0 0H15.3028V16.6674H0V0Z" fill="white"/>
</mask>
<g mask="url(#mask0_4_306)">
<path fill-rule="evenodd" clip-rule="evenodd" d="M12.7845 8.85709C12.7957 7.55792 13.5625 6.36042 14.8142 5.68292C14.0249 4.67709 12.7516 4.05875 11.3749 4.01625C9.90617 3.88292 8.55583 4.77459 7.774 4.77459C6.99593 4.77459 5.8946 4.03292 4.67205 4.04875C3.05013 4.09792 1.57387 4.89875 0.784519 6.15875C-0.87029 8.70709 0.358836 12.4996 2.01458 14.5571C2.76728 15.5663 3.70698 16.7088 4.94738 16.6663C6.18779 16.6238 6.59186 15.9829 8.02771 15.9829C9.46639 15.9829 9.90617 16.6663 11.1287 16.6404C12.3513 16.6179 13.2177 15.6088 14.007 14.5996C14.5652 13.8671 15.0012 13.0663 15.3029 12.2263C13.7796 11.6504 12.7882 10.3254 12.7845 8.85709ZM10.4164 2.65875C11.1325 1.92375 11.4924 0.966255 11.4116 -0.000411987C10.3215 0.0779213 9.30852 0.533755 8.59247 1.26625C7.89898 1.97542 7.56068 2.90625 7.65277 3.84042C8.73249 3.85042 9.75206 3.41125 10.4164 2.65875Z" fill="#1D1D1B"/>
</g>
</svg>
