<svg width="30" height="31" viewBox="0 0 30 31" fill="none" xmlns="http://www.w3.org/2000/svg">
<path d="M21.25 14.7797V20.6797C21.25 23.9934 18.5637 26.6797 15.25 26.6797H9.75C6.43629 26.6797 3.75 23.9934 3.75 20.6797V14.7797C3.75 14.4483 4.01863 14.1797 4.35 14.1797H20.65C20.9814 14.1797 21.25 14.4483 21.25 14.7797Z" stroke="black" stroke-width="1.5" stroke-linecap="round" stroke-linejoin="round"/>
<path d="M15 11.6797C15 10.4297 15.8929 9.17969 17.6786 9.17969C17.8558 9.17969 18.0486 9.17969 18.2498 9.17969C19.9066 9.17969 21.25 7.83654 21.25 6.17969V4.80469" stroke="black" stroke-width="1.5" stroke-linecap="round" stroke-linejoin="round"/>
<path d="M10 11.6797V10.3047C10 8.64783 11.3431 7.30469 13 7.30469H14.25C15.3546 7.30469 16.25 6.40926 16.25 5.30469V4.17969" stroke="black" stroke-width="1.5" stroke-linecap="round" stroke-linejoin="round"/>
<path d="M20 14.1797H23.125C24.8509 14.1797 26.25 15.5788 26.25 17.3047C26.25 19.0306 24.8509 20.4297 23.125 20.4297H21.25" stroke="black" stroke-width="1.5" stroke-linecap="round" stroke-linejoin="round"/>
</svg>
