<svg width="13" height="14" viewBox="0 0 13 14" fill="none" xmlns="http://www.w3.org/2000/svg">
<path d="M0 5.32656C0 4.10066 -3.8743e-08 3.48836 0.3809 3.10746C0.7618 2.72656 1.3741 2.72656 2.6 2.72656H10.4C11.6259 2.72656 12.2382 2.72656 12.6191 3.10746C13 3.48836 13 4.10066 13 5.32656C13 5.63271 13 5.78611 12.9051 5.88166C12.8095 5.97656 12.6555 5.97656 12.35 5.97656H0.65C0.34385 5.97656 0.19045 5.97656 0.0948999 5.88166C-5.81145e-08 5.78611 0 5.63206 0 5.32656ZM0 11.1766C0 12.4025 -3.8743e-08 13.0148 0.3809 13.3957C0.7618 13.7766 1.3741 13.7766 2.6 13.7766H10.4C11.6259 13.7766 12.2382 13.7766 12.6191 13.3957C13 13.0148 13 12.4025 13 11.1766V7.92656C13 7.62041 13 7.46701 12.9051 7.37146C12.8095 7.27656 12.6555 7.27656 12.35 7.27656H0.65C0.34385 7.27656 0.19045 7.27656 0.0948999 7.37146C-5.81145e-08 7.46701 0 7.62106 0 7.92656V11.1766Z" fill="#29A964"/>
<path d="M3.25 1.42969V3.37969M9.75 1.42969V3.37969" stroke="#29A964" stroke-width="2" stroke-linecap="round"/>
</svg>
