<svg width="24" height="23" viewBox="0 0 24 23" fill="none" xmlns="http://www.w3.org/2000/svg">
<path d="M18.7887 14.2221C18.5658 14.1225 18.3452 14.0192 18.1269 13.9124C17.2263 13.4718 16.0922 13.7912 15.6738 14.6733C15.0979 15.8876 13.4338 16.1767 12.4497 15.2336L8.06049 11.0273C7.07637 10.0842 7.37814 8.48936 8.64514 7.93744C9.51753 7.55742 9.82481 6.52111 9.36927 5.71315C9.17686 5.37187 8.99452 5.02442 8.82262 4.67114C8.47958 3.96614 8.18182 3.24551 7.92968 2.51318C7.51396 1.30574 6.08357 0.632414 4.90145 1.20965L1.78611 2.73087C1.27324 2.9813 0.955013 3.49566 1.00518 4.04519C1.42737 8.66985 3.53632 13.0041 6.96162 16.2867C10.3869 19.5693 14.9096 21.5904 19.7353 21.995C20.3091 22.0431 20.8462 21.7379 21.1077 21.2461L22.7812 18.0985C23.391 16.9514 22.6629 15.5643 21.3801 15.1821C20.4989 14.9196 19.6331 14.5994 18.7887 14.2221Z" fill="black" stroke="white" stroke-linecap="round" stroke-linejoin="round"/>
</svg>
