<svg width="30" height="30" viewBox="0 0 30 30" fill="none" xmlns="http://www.w3.org/2000/svg">
<path d="M5 23V12C5 10.8954 5.89543 10 7 10H14H18.5H25.5C26.6046 10 27.5 10.8954 27.5 12V23C27.5 24.1046 26.6046 25 25.5 25H18.5H14H7C5.89543 25 5 24.1046 5 23Z" stroke="black" stroke-width="1.5" stroke-linecap="round" stroke-linejoin="round"/>
<path d="M23.125 17.5125L23.1375 17.4986" stroke="black" stroke-width="1.5" stroke-linecap="round" stroke-linejoin="round"/>
<path d="M9.375 17.5125L9.3875 17.4986" stroke="black" stroke-width="1.5" stroke-linecap="round" stroke-linejoin="round"/>
<path d="M5 20H3.25C2.14543 20 1.25 19.1046 1.25 18V7C1.25 5.89543 2.14543 5 3.25 5H21.75C22.8546 5 23.75 5.89543 23.75 7V10" stroke="black" stroke-width="1.5" stroke-linecap="round" stroke-linejoin="round"/>
<path d="M16.25 20C14.8693 20 13.75 18.8807 13.75 17.5C13.75 16.1193 14.8693 15 16.25 15C17.6307 15 18.75 16.1193 18.75 17.5C18.75 18.8807 17.6307 20 16.25 20Z" stroke="black" stroke-width="1.5" stroke-linecap="round" stroke-linejoin="round"/>
</svg>
