<svg width="23" height="23" viewBox="0 0 23 23" fill="none" xmlns="http://www.w3.org/2000/svg">
<path d="M17.25 0H5.75C2.576 0 0 2.56578 0 5.72987V12.6103V13.7609C0 16.925 2.576 19.4907 5.75 19.4907H7.475C7.7855 19.4907 8.1995 19.6978 8.395 19.951L10.12 22.2406C10.879 23.2531 12.121 23.2531 12.88 22.2406L14.605 19.951C14.8235 19.6633 15.1685 19.4907 15.525 19.4907H17.25C20.424 19.4907 23 16.925 23 13.7609V5.72987C23 2.56578 20.424 0 17.25 0ZM6.9 11.5058C6.256 11.5058 5.75 10.988 5.75 10.3552C5.75 9.72236 6.2675 9.2046 6.9 9.2046C7.5325 9.2046 8.05 9.72236 8.05 10.3552C8.05 10.988 7.544 11.5058 6.9 11.5058ZM11.5 11.5058C10.856 11.5058 10.35 10.988 10.35 10.3552C10.35 9.72236 10.8675 9.2046 11.5 9.2046C12.1325 9.2046 12.65 9.72236 12.65 10.3552C12.65 10.988 12.144 11.5058 11.5 11.5058ZM16.1 11.5058C15.456 11.5058 14.95 10.988 14.95 10.3552C14.95 9.72236 15.4675 9.2046 16.1 9.2046C16.7325 9.2046 17.25 9.72236 17.25 10.3552C17.25 10.988 16.744 11.5058 16.1 11.5058Z" fill="black"/>
</svg>
