<svg width="25" height="25" viewBox="0 0 25 25" fill="none" xmlns="http://www.w3.org/2000/svg">
<path d="M20.6651 4.7363C19.5313 3.6023 18.0715 2.96913 16.5545 2.95339C14.9891 2.93811 13.4646 3.59031 12.2607 4.79255C11.168 5.88385 10.3623 7.3722 10.0503 8.87595C9.70827 10.5233 8.92085 12.0008 7.773 13.1487L7.72315 13.1985C7.61187 13.3098 7.54925 13.4608 7.54925 13.6182C7.54925 13.7756 7.61175 13.9266 7.72308 14.0379L7.98593 14.3008L5.7319 16.555C5.38468 16.36 4.98655 16.2598 4.58323 16.2725C3.96924 16.2915 3.40651 16.5565 2.99862 17.0185C2.26663 17.8477 2.266 19.0987 2.99725 19.9285C3.39049 20.3748 3.93296 20.6394 4.52471 20.6735C4.63104 20.6797 4.72253 20.7712 4.72862 20.8775C4.76268 21.4692 5.02725 22.0117 5.47358 22.4051C5.88815 22.7705 6.40788 22.9531 6.92768 22.9531C7.44808 22.9531 7.96858 22.7699 8.38339 22.4037C8.84538 21.9958 9.11034 21.433 9.12941 20.819C9.14191 20.4155 9.04183 20.0175 8.84687 19.6702L11.1009 17.416L11.3639 17.679C11.4798 17.7949 11.6317 17.8529 11.7835 17.8529C11.9353 17.8529 12.0872 17.795 12.203 17.6792L12.2532 17.6292C13.4005 16.4818 14.8785 15.6941 16.5274 15.3513C18.0286 15.0392 19.5149 14.2349 20.605 13.1447C21.8096 11.9401 22.4645 10.4147 22.4489 8.84958C22.4339 7.33247 21.8004 5.8717 20.6651 4.7363ZM7.64601 19.1924C7.41425 19.4242 7.41425 19.8 7.64601 20.0317C7.84636 20.2321 7.95187 20.4986 7.94308 20.782C7.93425 21.0651 7.81163 21.3251 7.5978 21.5139C7.22237 21.8453 6.6339 21.8457 6.25815 21.5145C6.05155 21.3325 5.92917 21.082 5.91347 20.8094C5.87253 20.0974 5.30475 19.5295 4.5928 19.4886C4.32007 19.4729 4.06964 19.3504 3.8876 19.1438C3.55651 18.768 3.55682 18.1796 3.88831 17.8041C4.07706 17.5903 4.33694 17.4676 4.62003 17.4588C4.631 17.4585 4.64194 17.4583 4.65284 17.4583C4.92401 17.4583 5.17768 17.5633 5.3703 17.7559C5.60198 17.9876 5.97772 17.9876 6.20952 17.7559L8.82515 15.1401L10.2617 16.5767L7.64601 19.1924ZM19.7658 12.3053C18.8486 13.2225 17.5477 13.9267 16.2858 14.1891C14.5864 14.5424 13.0439 15.3136 11.794 16.4304L8.97151 13.6078C10.0888 12.3572 10.8598 10.8152 11.2123 9.11714C11.4746 7.85322 12.1801 6.5505 13.0994 5.63242C15.0661 3.66829 17.895 3.64442 19.8258 5.57558C21.7579 7.50792 21.7327 10.3382 19.7658 12.3053Z" fill="#FB6D3A"/>
<ellipse cx="15.8576" cy="5.90838" rx="0.681819" ry="0.681818" fill="#FB6D3A"/>
<ellipse cx="17.6779" cy="7.27166" rx="0.681819" ry="0.681818" fill="#FB6D3A"/>
<ellipse cx="14.9474" cy="8.18182" rx="0.681818" ry="0.681818" fill="#FB6D3A"/>
</svg>
