<svg width="42" height="42" viewBox="0 0 42 42" fill="none" xmlns="http://www.w3.org/2000/svg">
<path d="M39.2258 20.9997L41.5258 17.0247C41.8022 16.5464 41.8774 15.978 41.7348 15.4443C41.5922 14.9107 41.2435 14.4555 40.7654 14.1789L36.7862 11.8789V7.29552C36.7862 6.74298 36.5667 6.21308 36.176 5.82238C35.7853 5.43168 35.2554 5.21218 34.7029 5.21218H30.1216L27.8237 1.2351C27.5462 0.757842 27.0919 0.409069 26.5591 0.264266C26.2949 0.192632 26.0191 0.174161 25.7476 0.209923C25.4762 0.245685 25.2146 0.334969 24.9779 0.472599L20.9987 2.7726L17.0196 0.470516C16.5411 0.194261 15.9724 0.119397 15.4387 0.262393C14.905 0.405388 14.45 0.75453 14.1737 1.23302L11.8737 5.21218H7.29248C6.73995 5.21218 6.21004 5.43168 5.81934 5.82238C5.42864 6.21308 5.20915 6.74298 5.20915 7.29552V11.8768L1.22998 14.1768C0.992547 14.3133 0.78444 14.4955 0.617615 14.7127C0.45079 14.93 0.328535 15.178 0.257874 15.4427C0.187213 15.7073 0.16954 15.9833 0.205868 16.2548C0.242197 16.5263 0.331811 16.7879 0.469563 17.0247L2.76956 20.9997L0.469563 24.9747C0.19454 25.4534 0.119922 26.0214 0.261977 26.5549C0.404032 27.0884 0.751239 27.5441 1.2279 27.8226L5.20706 30.1226V34.7038C5.20706 35.2564 5.42656 35.7863 5.81726 36.177C6.20796 36.5677 6.73786 36.7872 7.2904 36.7872H11.8737L14.1737 40.7664C14.3582 41.0816 14.6215 41.3435 14.9379 41.5261C15.2542 41.7088 15.6126 41.8059 15.9779 41.808C16.3404 41.808 16.7008 41.7122 17.0216 41.5268L20.9966 39.2268L24.9758 41.5268C25.4542 41.8026 26.0224 41.8775 26.556 41.7349C27.0895 41.5924 27.5446 41.2441 27.8216 40.7664L30.1196 36.7872H34.7008C35.2534 36.7872 35.7833 36.5677 36.174 36.177C36.5647 35.7863 36.7841 35.2564 36.7841 34.7038V30.1226L40.7633 27.8226C41.0003 27.6856 41.208 27.5033 41.3746 27.286C41.5411 27.0687 41.6631 26.8207 41.7337 26.5562C41.8044 26.2917 41.8222 26.0159 41.7861 25.7446C41.7501 25.4732 41.6609 25.2116 41.5237 24.9747L39.2258 20.9997ZM15.7883 10.5622C16.6174 10.5625 17.4124 10.8921 17.9985 11.4785C18.5845 12.065 18.9136 12.8602 18.9133 13.6893C18.913 14.5183 18.5834 15.3134 17.997 15.8994C17.4105 16.4855 16.6153 16.8145 15.7862 16.8143C14.9572 16.814 14.1621 16.4844 13.5761 15.8979C12.99 15.3115 12.661 14.5163 12.6612 13.6872C12.6615 12.8581 12.9911 12.0631 13.5776 11.477C14.164 10.891 14.9592 10.5619 15.7883 10.5622ZM16.4133 30.5622L13.08 28.0643L25.58 11.3976L28.9133 13.8955L16.4133 30.5622ZM26.205 31.3955C25.7945 31.3954 25.388 31.3144 25.0088 31.1572C24.6296 30.9999 24.285 30.7696 23.9948 30.4792C23.7047 30.1888 23.4745 29.8441 23.3175 29.4648C23.1606 29.0855 23.0798 28.679 23.08 28.2684C23.0801 27.8579 23.1611 27.4514 23.3183 27.0722C23.4756 26.693 23.7059 26.3485 23.9963 26.0583C24.2867 25.7681 24.6314 25.538 25.0107 25.381C25.39 25.224 25.7965 25.1433 26.2071 25.1434C27.0361 25.1437 27.8312 25.4733 28.4172 26.0598C29.0033 26.6462 29.3323 27.4414 29.3321 28.2705C29.3318 29.0996 29.0022 29.8946 28.4157 30.4807C27.8293 31.0667 27.0341 31.3958 26.205 31.3955Z" fill="#F1C623"/>
</svg>
