<?xml version="1.0" encoding="UTF-8"?>
<svg xmlns="http://www.w3.org/2000/svg" width="1389" height="566" viewBox="0 0 1389 566" fill="none">
  <path d="M792.266 333.647L860.044 390.131C842.036 412.042 819.436 429.676 793.862 441.772C768.287 453.868 740.371 460.127 712.111 460.1C606.018 460.1 519.996 373.538 519.996 266.839C519.996 262.834 520.12 258.871 520.358 254.929H608.683C608.224 258.882 607.995 262.859 607.998 266.839C608 288.389 614.609 309.414 626.925 327.047C639.24 344.679 656.663 358.061 676.815 365.367C696.968 372.673 718.871 373.547 739.535 367.87C760.2 362.194 778.621 350.243 792.287 333.647H792.266Z" fill="#00493E"></path>
  <path d="M869 155.31L800.849 212.076C792.686 198.679 781.63 187.303 768.501 178.79C755.372 170.278 740.506 164.848 725.007 162.903L747.813 76.905C796.788 86.239 840.241 114.352 869 155.31Z" fill="#00493E"></path>
  <path d="M620.396 205.026C650.706 205.026 675.277 180.307 675.277 149.814C675.277 119.322 650.706 94.603 620.396 94.603C590.086 94.603 565.515 119.322 565.515 149.814C565.515 180.307 590.086 205.026 620.396 205.026Z" fill="#00493E"></path>
</svg>
