<svg width="30" height="30" viewBox="0 0 30 30" fill="none" xmlns="http://www.w3.org/2000/svg">
<g clip-path="url(#clip0_1191_163)">
<path d="M24.1628 7.10678C24.1567 6.83033 23.9309 6.60938 23.6544 6.60938H6.34442C6.06792 6.60938 5.84204 6.83039 5.83606 7.10678L5.34973 29.4796C5.34347 29.7647 5.57286 29.9992 5.85809 29.9992H24.1408C24.4259 29.9992 24.6554 29.7647 24.6492 29.4796L24.1628 7.10678Z" fill="#E53935"/>
<path d="M14.0943 27.9653C10.9576 27.9653 8.43417 25.3864 8.50237 22.2505L8.84239 6.60938H6.34442C6.06786 6.60938 5.84204 6.83039 5.83606 7.10678L5.34973 29.4796C5.34352 29.7647 5.57292 29.9992 5.85815 29.9992H24.1409C24.426 29.9992 24.6554 29.7647 24.6492 29.4797L24.6163 27.9653H14.0943Z" fill="#B71B1C"/>
<path d="M11.4411 10.933C12.1432 10.933 12.7123 10.3639 12.7123 9.66182C12.7123 8.95976 12.1432 8.39062 11.4411 8.39062C10.7391 8.39062 10.1699 8.95976 10.1699 9.66182C10.1699 10.3639 10.7391 10.933 11.4411 10.933Z" fill="#B71B1C"/>
<path d="M18.5583 10.933C19.2604 10.933 19.8295 10.3639 19.8295 9.66182C19.8295 8.95976 19.2604 8.39062 18.5583 8.39062C17.8562 8.39062 17.2871 8.95976 17.2871 9.66182C17.2871 10.3639 17.8562 10.933 18.5583 10.933Z" fill="#B71B1C"/>
<path d="M10.4227 24.5331C10.2598 24.5331 10.0974 24.471 9.97331 24.3469C9.72504 24.0986 9.72504 23.6964 9.97331 23.4481L19.1258 14.2956C19.3741 14.0473 19.7763 14.0473 20.0246 14.2956C20.2729 14.5438 20.2729 14.946 20.0246 15.1943L10.8721 24.3469C10.7479 24.471 10.5855 24.5331 10.4227 24.5331Z" fill="white"/>
<path d="M11.9488 18.9405C10.477 18.9405 9.2793 17.7428 9.2793 16.271C9.2793 14.7993 10.477 13.6016 11.9488 13.6016C13.4205 13.6016 14.6182 14.7993 14.6182 16.271C14.6182 17.7428 13.4206 18.9405 11.9488 18.9405ZM11.9488 14.8728C11.1776 14.8728 10.5505 15.4999 10.5505 16.271C10.5505 17.0422 11.1776 17.6693 11.9488 17.6693C12.7199 17.6693 13.3471 17.0422 13.3471 16.271C13.3471 15.4999 12.7199 14.8728 11.9488 14.8728Z" fill="white"/>
<path d="M18.0503 25.0421C16.5786 25.0421 15.3809 23.8444 15.3809 22.3726C15.3809 20.9008 16.5786 19.7031 18.0503 19.7031C19.5221 19.7031 20.7198 20.9008 20.7198 22.3726C20.7198 23.8444 19.5221 25.0421 18.0503 25.0421ZM18.0503 20.9743C17.2792 20.9743 16.6521 21.6014 16.6521 22.3725C16.6521 23.1437 17.2792 23.7708 18.0503 23.7708C18.8215 23.7708 19.4486 23.1437 19.4486 22.3725C19.4486 21.6014 18.8215 20.9743 18.0503 20.9743Z" fill="white"/>
<path d="M18.5588 10.1695C18.2777 10.1695 18.0503 9.94207 18.0503 9.661V4.06781C18.0503 2.38547 16.6818 1.01695 14.9995 1.01695C13.3171 1.01695 11.9486 2.38547 11.9486 4.06781V9.66105C11.9486 9.94213 11.7212 10.1695 11.4401 10.1695C11.159 10.1695 10.9316 9.94213 10.9316 9.66105V4.06781C10.9316 1.82484 12.7565 0 14.9995 0C17.2424 0 19.0673 1.82484 19.0673 4.06781V9.66105C19.0673 9.94207 18.8399 10.1695 18.5588 10.1695Z" fill="#2A2A2A"/>
<path d="M11.4401 10.1706C11.1593 10.1706 10.9316 9.94293 10.9316 9.66215V8.6452C10.9316 8.36441 11.1593 8.13672 11.4401 8.13672C11.7209 8.13672 11.9486 8.36441 11.9486 8.6452V9.66215C11.9486 9.94299 11.721 10.1706 11.4401 10.1706Z" fill="#FCE2E7"/>
<path d="M18.5593 10.1706C18.2785 10.1706 18.0508 9.94293 18.0508 9.66215V8.6452C18.0508 8.36441 18.2785 8.13672 18.5593 8.13672C18.84 8.13672 19.0677 8.36441 19.0677 8.6452V9.66215C19.0677 9.94299 18.84 10.1706 18.5593 10.1706Z" fill="#FCE2E7"/>
</g>
<defs>
<clipPath id="clip0_1191_163">
<rect width="30" height="30" fill="white"/>
</clipPath>
</defs>
</svg>
