<svg width="30" height="31" viewBox="0 0 30 31" fill="none" xmlns="http://www.w3.org/2000/svg">
<path d="M10.625 18.5547L6.25 27.9297" stroke="black" stroke-width="1.5" stroke-linecap="round" stroke-linejoin="round"/>
<path d="M10 7.92969C10 7.92969 11.25 6.60307 11.25 5.42969C11.25 3.76302 10 2.92969 10 2.92969" stroke="black" stroke-width="1.5" stroke-linecap="round" stroke-linejoin="round"/>
<path d="M15 7.92969C15 7.92969 16.25 6.60307 16.25 5.42969C16.25 3.76302 15 2.92969 15 2.92969" stroke="black" stroke-width="1.5" stroke-linecap="round" stroke-linejoin="round"/>
<path d="M20 7.92969C20 7.92969 21.25 6.60307 21.25 5.42969C21.25 3.76302 20 2.92969 20 2.92969" stroke="black" stroke-width="1.5" stroke-linecap="round" stroke-linejoin="round"/>
<path d="M20.625 22.3047L9.375 22.3047" stroke="black" stroke-width="1.5" stroke-linejoin="round"/>
<path d="M19.375 18.5547L22 24.1797" stroke="black" stroke-width="1.5" stroke-linecap="round" stroke-linejoin="round"/>
<path d="M23.125 27.9297C24.1605 27.9297 25 27.0902 25 26.0547C25 25.0192 24.1605 24.1797 23.125 24.1797C22.0895 24.1797 21.25 25.0192 21.25 26.0547C21.25 27.0902 22.0895 27.9297 23.125 27.9297Z" stroke="black" stroke-width="1.5" stroke-linecap="round" stroke-linejoin="round"/>
<path d="M15 19.1797C19.6308 19.1797 23.4214 15.5824 23.7297 11.0298C23.7521 10.6992 23.4814 10.4297 23.15 10.4297H6.85C6.51863 10.4297 6.24786 10.6992 6.27026 11.0298C6.57862 15.5824 10.3692 19.1797 15 19.1797Z" stroke="black" stroke-width="1.5"/>
</svg>
