<svg width="25" height="25" viewBox="0 0 25 25" fill="none" xmlns="http://www.w3.org/2000/svg">
<g clip-path="url(#clip0_940_36051)">
<path d="M18.6746 21.4923C18.5178 21.4923 18.3906 21.3651 18.3906 21.2082V20.6355C18.3906 20.4787 18.5178 20.3516 18.6746 20.3516C18.8314 20.3516 18.9586 20.4787 18.9586 20.6355V21.2082C18.9586 21.3651 18.8314 21.4923 18.6746 21.4923Z" fill="#FB6D3A"/>
<path d="M20.2918 20.4844C20.135 20.4844 20.0078 20.3572 20.0078 20.2004V19.6278C20.0078 19.4709 20.135 19.3438 20.2918 19.3438C20.4487 19.3438 20.5758 19.4709 20.5758 19.6278V20.2004C20.5758 20.3573 20.4486 20.4844 20.2918 20.4844Z" fill="#FB6D3A"/>
<path d="M21.3108 16.2577C21.3221 16.2194 21.3343 16.1814 21.3447 16.1426C21.7159 14.7594 21.4935 13.1946 20.7016 11.6173C19.9779 10.176 18.5236 8.81539 16.7114 7.88427C15.9819 7.50941 15.0711 7.15302 14.2619 7.01352C13.7892 6.61241 13.4973 6.01705 13.4973 5.37098V3.44798C13.4973 2.65172 12.8495 2.00391 12.0532 2.00391H10.4089C9.61266 2.00391 8.96485 2.65172 8.96485 3.44798V5.37098C8.96485 5.98485 8.70109 6.5526 8.26928 6.95179C7.33281 6.94883 6.09185 7.40131 5.15191 7.88427C3.33973 8.81539 1.88534 10.176 1.16169 11.6173C0.369782 13.1946 0.147408 14.7594 0.518563 16.1426C0.872093 17.4602 1.75615 18.5319 3.00795 19.1604C3.70652 19.5112 4.44715 19.6876 5.18585 19.6876C5.77089 19.6875 6.35486 19.5768 6.9152 19.3543C7.13078 19.2687 7.34073 19.1675 7.54483 19.0517C8.5119 20.0826 9.83574 20.6485 11.29 20.6485C11.7072 20.6485 12.1133 20.601 12.5036 20.5102C13.402 22.5364 15.6214 23.9735 18.2105 23.9735C21.5923 23.9735 24.3437 21.5214 24.3437 18.5073C24.3437 17.3153 23.0095 16.6121 21.3108 16.2577ZM16.2787 8.72628C17.9163 9.56769 19.22 10.7763 19.8556 12.0421C20.5917 13.508 20.7461 14.9329 20.3692 16.1001C19.6595 16.0077 18.9201 15.9658 18.2105 15.9658C17.6579 15.9658 17.0872 15.9914 16.5265 16.0462C16.6433 15.4826 16.7031 14.8811 16.7031 14.2476C16.7031 12.4993 15.9597 10.4727 14.6636 8.68705C14.4862 8.44264 14.2874 8.19012 14.0746 7.94234C14.6283 8.0337 15.395 8.2722 16.2787 8.72628ZM9.91149 5.37098V3.44798C9.91149 3.17372 10.1347 2.95054 10.4089 2.95054H12.0532C12.3275 2.95054 12.5506 3.17372 12.5506 3.44798V5.37098C12.5506 5.87197 12.6729 6.35151 12.8915 6.77774C12.3413 6.33744 11.7797 6.0389 11.29 6.0389C10.7345 6.0389 10.0864 6.42294 9.4674 6.96271C9.75043 6.49251 9.91149 5.94594 9.91149 5.37098ZM6.56584 18.4746C5.5525 18.877 4.43979 18.8202 3.43273 18.3145C1.24756 17.2173 0.674891 14.6966 2.00768 12.0421C2.64326 10.7762 3.94694 9.56764 5.58452 8.72628C6.76581 8.11934 7.73804 7.89744 8.27181 7.89744C8.37221 7.89744 8.45687 7.90541 8.5247 7.91999C8.30467 8.17489 8.09921 8.43528 7.91645 8.68705C6.62036 10.4727 5.87706 12.4994 5.87706 14.2476C5.87706 15.8276 6.24709 17.2096 6.95341 18.2953C6.82651 18.3618 6.69747 18.4223 6.56584 18.4746ZM11.29 19.7018C8.61859 19.7018 6.8237 17.5099 6.8237 14.2476C6.8237 12.6947 7.50123 10.8706 8.68257 9.24312C9.8004 7.70309 10.8993 6.98558 11.2901 6.98558C11.6808 6.98558 12.7797 7.70309 13.8975 9.24312C15.0789 10.8706 15.7564 12.6947 15.7564 14.2476C15.7564 14.9444 15.6741 15.592 15.5192 16.1801C13.6306 16.5039 12.0773 17.2211 12.0773 18.5073C12.0773 18.8853 12.1206 19.2544 12.2029 19.6109C11.9119 19.6708 11.6072 19.7018 11.29 19.7018ZM18.2105 23.0269C15.3505 23.0269 13.0238 20.9994 13.0238 18.5073C13.0238 18.1052 13.5493 17.7039 14.4655 17.4064C15.4318 17.0926 16.7968 16.9125 18.2105 16.9125C19.6241 16.9125 20.9891 17.0926 21.9554 17.4064C22.8716 17.7039 23.3971 18.1052 23.3971 18.5073C23.3971 20.9994 21.0704 23.0269 18.2105 23.0269Z" fill="#FB6D3A"/>
<path d="M8.39967 14.2313C8.38664 14.2313 8.37347 14.2307 8.36025 14.2296C8.09972 14.2082 7.90594 13.9796 7.92741 13.7191C8.03006 12.4737 8.34764 11.3624 8.87128 10.4161C8.99784 10.1873 9.28584 10.1046 9.51459 10.2311C9.74334 10.3577 9.82612 10.6457 9.69955 10.8744C9.24121 11.7027 8.9624 12.6859 8.87085 13.7968C8.85046 14.0441 8.64342 14.2313 8.39967 14.2313Z" fill="#FB6D3A"/>
<path d="M10.4264 9.59347C10.3077 9.59347 10.1889 9.54912 10.097 9.46002C9.90933 9.27809 9.90464 8.97842 10.0866 8.79074C10.2134 8.65981 10.3842 8.49027 10.5803 8.33994C10.7877 8.18085 11.0849 8.22008 11.2439 8.42755C11.403 8.63497 11.3638 8.93211 11.1563 9.09116C11.0092 9.20398 10.8706 9.34198 10.7663 9.44961C10.6735 9.54533 10.55 9.59347 10.4264 9.59347Z" fill="#FB6D3A"/>
<path d="M2.63006 14.2066C2.59959 14.2066 2.56866 14.2036 2.53763 14.1974C2.28155 14.1466 2.11491 13.8986 2.16521 13.6424C2.18133 13.5603 2.57672 11.6199 4.04329 10.4753C4.24935 10.3144 4.54682 10.3511 4.7076 10.5571C4.86848 10.7632 4.83177 11.0606 4.62571 11.2215C3.44231 12.1451 3.09722 13.8091 3.09384 13.8258C3.04884 14.0507 2.85112 14.2066 2.63006 14.2066Z" fill="#FB6D3A"/>
</g>
<defs>
<clipPath id="clip0_940_36051">
<rect width="24" height="24" fill="white" transform="translate(0.34375 0.953125)"/>
</clipPath>
</defs>
</svg>
