<svg width="25" height="25" viewBox="0 0 25 25" fill="none" xmlns="http://www.w3.org/2000/svg">
<g clip-path="url(#clip0_940_33804)">
<path d="M21.8984 17.3533C21.8937 15.2336 20.9044 13.2386 19.2255 11.9631L16.4986 9.90063C15.7792 9.35381 15.3554 8.49896 15.3531 7.59063V7.17813H14.535V6.79492C14.5323 5.82849 14.9133 4.90114 15.5929 4.21969C16.2272 3.58351 16.5828 2.71783 16.5804 1.81564V1.40314H16.1713C15.2766 1.40066 14.4181 1.75923 13.7872 2.39891C13.547 2.64275 13.3291 2.90778 13.1359 3.19091C12.8538 2.59176 12.4731 2.04504 12.0101 1.57391C11.3792 0.934228 10.5207 0.575663 9.62601 0.578138H9.21692V0.990638C9.21447 1.89283 9.57006 2.75851 10.2044 3.39469C10.884 4.07614 11.265 5.00349 11.2623 5.96992V7.17813H10.4442V7.59063C10.4419 8.49896 10.0181 9.35381 9.29874 9.90063L6.57181 11.9631C3.62059 14.1934 3.02119 18.4139 5.23304 21.3898C6.46908 23.0528 8.39738 24.0471 10.4581 24.084C10.1849 24.4404 10.0362 24.8777 10.0351 25.3281H10.8532C10.8552 24.7832 11.2111 24.304 11.7291 24.1488C11.6926 24.2634 11.6732 24.3828 11.6714 24.5031V25.3281H12.4896V24.5031C12.4896 24.2753 12.6727 24.0906 12.8987 24.0906C13.1246 24.0906 13.3077 24.2753 13.3077 24.5031V25.3281H14.1259V24.5031C14.1241 24.3828 14.1047 24.2634 14.0682 24.1488C14.5862 24.304 14.9421 24.7832 14.9441 25.3281H15.7622C15.7606 24.8777 15.6113 24.4404 15.3376 24.0844C18.9771 24.0157 21.8933 21.0238 21.8984 17.3533ZM14.3656 2.98219C14.7345 2.60867 15.2086 2.359 15.7234 2.26732C15.6324 2.7864 15.3848 3.26449 15.0144 3.63641C14.1808 4.47219 13.7135 5.60955 13.7168 6.79492V5.7282C13.7168 5.58795 13.7111 5.44811 13.7013 5.30869C13.698 5.26372 13.6919 5.21917 13.6878 5.17462C13.6788 5.07975 13.6694 4.98529 13.6559 4.89082C13.6481 4.83761 13.6379 4.78481 13.6289 4.73201C13.6141 4.64704 13.5994 4.56247 13.581 4.47791C13.5687 4.42057 13.554 4.36365 13.5401 4.30631C13.5278 4.25681 13.518 4.2069 13.5045 4.1574C13.7331 3.72536 14.0232 3.32946 14.3656 2.98219ZM10.7829 2.81141C10.4123 2.43965 10.1647 1.96146 10.0739 1.44232C10.5887 1.534 11.0629 1.78367 11.4317 2.15719C12.3696 3.10521 12.897 4.38912 12.8987 5.7282V7.17813H12.0805V5.96992C12.0838 4.78455 11.6165 3.64719 10.7829 2.81141ZM4.71703 17.3533C4.72123 15.4933 5.58919 13.7426 7.06229 12.6231L9.78923 10.5606C10.5999 9.94472 11.1241 9.02005 11.239 8.00313H11.2423C11.1496 9.33247 10.5828 10.583 9.64687 11.5238L7.75896 13.4275C5.34267 15.8595 5.33904 19.8062 7.75088 22.2427C7.9725 22.4666 8.21069 22.6731 8.4634 22.8606C6.20844 21.9787 4.72097 19.7921 4.71703 17.3533ZM7.36363 15.3521C7.61783 14.8572 7.94632 14.4047 8.3374 14.0108L10.2253 12.1071C11.3115 11.0176 11.9658 9.56573 12.0654 8.02417C11.9931 9.95379 11.4218 11.8308 10.4082 13.4692L9.63419 14.7195C8.55979 16.447 8.18348 18.5244 8.58285 20.5233C8.74183 21.3197 9.11568 22.0564 9.66323 22.6522C7.02906 21.2767 5.9995 18.0083 7.36363 15.3521ZM12.1949 23.1954C10.7763 22.9094 9.66748 21.7912 9.38383 20.3608L9.38506 20.3612C9.02665 18.569 9.36338 16.7065 10.3259 15.1571L11.1003 13.9081C12.0547 12.3702 12.6475 10.6326 12.8336 8.82813H12.9641C13.1498 10.6323 13.7421 12.3697 14.6957 13.9077L15.4701 15.1567C16.4327 16.7061 16.7694 18.5686 16.411 20.3608C16.0231 22.3175 14.1354 23.5866 12.1949 23.1954ZM17.2145 20.5233C17.6138 18.5244 17.2375 16.447 16.1631 14.7195L15.3887 13.4704C14.5184 12.0631 13.9726 10.4766 13.7917 8.82813H13.8395C14.0788 10.0709 14.6816 11.2129 15.5704 12.1071L17.4583 14.0108C19.5569 16.1249 19.5584 19.5542 17.4619 21.6703C17.0713 22.0645 16.6227 22.3956 16.132 22.6518C16.6803 22.0563 17.0549 21.3198 17.2145 20.5233ZM17.3339 22.8606C20.0842 20.8208 20.6739 16.9192 18.6511 14.146C18.4652 13.8912 18.2604 13.651 18.0383 13.4275L16.1504 11.5238C15.2145 10.583 14.6477 9.33247 14.555 8.00313H14.5583C14.6731 9.02 15.1972 9.94462 16.0077 10.5606L18.7346 12.6231C21.3238 14.5796 21.85 18.2821 19.9097 20.893C19.251 21.7794 18.3585 22.4612 17.3339 22.8606Z" fill="#FB6D3A"/>
</g>
<defs>
<clipPath id="clip0_940_33804">
<rect width="24" height="24" fill="white" transform="translate(0.898438 0.953125)"/>
</clipPath>
</defs>
</svg>
