<svg width="20" height="17" viewBox="0 0 20 17" fill="none" xmlns="http://www.w3.org/2000/svg">
<mask id="mask0_4_141" style="mask-type:luminance" maskUnits="userSpaceOnUse" x="0" y="4" width="5" height="9">
<path fill-rule="evenodd" clip-rule="evenodd" d="M0.69519 4.50099H4.79347V12.2824H0.69519V4.50099Z" fill="white"/>
</mask>
<g mask="url(#mask0_4_141)">
<path fill-rule="evenodd" clip-rule="evenodd" d="M4.79347 10.0718L4.14981 12.2377L1.79708 12.2824C1.09404 11.1071 0.69519 9.76232 0.69519 8.33334C0.69519 6.95154 1.06807 5.64832 1.72907 4.50099H1.7295L3.82406 4.84695L4.74168 6.72342C4.54968 7.2281 4.44497 7.76967 4.44497 8.33334C4.44497 8.9451 4.56803 9.53116 4.79347 10.0718Z" fill="#FBBB00"/>
</g>
<mask id="mask1_4_141" style="mask-type:luminance" maskUnits="userSpaceOnUse" x="10" y="6" width="10" height="9">
<path fill-rule="evenodd" clip-rule="evenodd" d="M10.1448 6.77656H19.1877V14.8319H10.1448V6.77656Z" fill="white"/>
</mask>
<g mask="url(#mask1_4_141)">
<path fill-rule="evenodd" clip-rule="evenodd" d="M19.0261 6.77656C19.1324 7.28059 19.1877 7.8013 19.1877 8.33333C19.1877 8.92994 19.1181 9.51194 18.9855 10.0732C18.5354 11.9835 17.3594 13.6515 15.7301 14.8319L15.7295 14.8315L13.0914 14.7102L12.7179 12.6095C13.799 12.038 14.6439 11.1437 15.089 10.0732H10.1448V6.77656H19.0261Z" fill="#518EF8"/>
</g>
<path fill-rule="evenodd" clip-rule="evenodd" d="M15.7295 14.8315L15.73 14.8319C14.1454 15.9799 12.1325 16.6667 9.94146 16.6667C6.42023 16.6667 3.35879 14.8928 1.79712 12.2826L4.79351 10.0719C5.57442 11.95 7.58461 13.2871 9.94146 13.2871C10.9545 13.2871 11.9035 13.0403 12.7179 12.6095L15.7295 14.8315Z" fill="#28B446"/>
<path fill-rule="evenodd" clip-rule="evenodd" d="M15.8432 1.91855L12.848 4.12865C12.0051 3.65384 11.0088 3.37956 9.94148 3.37956C7.53132 3.37956 5.48339 4.7779 4.74174 6.7234L1.72956 4.50098H1.72913C3.26794 1.82686 6.36792 0 9.94148 0C12.1849 0 14.2419 0.720215 15.8432 1.91855Z" fill="#F14336"/>
</svg>
