<svg width="14" height="9" viewBox="0 0 14 9" fill="none" xmlns="http://www.w3.org/2000/svg">
<rect width="14" height="9" rx="3" fill="black"/>
<path d="M5.18703 5.14911C4.99206 5.30631 4.74915 5.39204 4.4987 5.39204C4.24825 5.39204 4.00534 5.30631 3.81037 5.14911C3.7508 5.09961 3.67401 5.07579 3.59689 5.0829C3.51976 5.09001 3.44862 5.12747 3.39912 5.18703C3.34961 5.24659 3.32579 5.32338 3.3329 5.40051C3.34001 5.47763 3.37747 5.54877 3.43703 5.59828C3.73492 5.84696 4.11065 5.98317 4.4987 5.98317C4.88674 5.98317 5.26248 5.84696 5.56037 5.59828C5.61993 5.54877 5.65739 5.47763 5.6645 5.40051C5.67161 5.32338 5.64779 5.24659 5.59828 5.18703C5.57377 5.15754 5.54369 5.13316 5.50975 5.1153C5.47582 5.09743 5.4387 5.08642 5.40051 5.0829C5.32339 5.07579 5.2466 5.09961 5.18703 5.14911ZM3.6237 4.20703C3.68139 4.20703 3.73778 4.18993 3.78574 4.15788C3.8337 4.12583 3.87109 4.08028 3.89316 4.02698C3.91524 3.97369 3.92102 3.91504 3.90976 3.85846C3.89851 3.80189 3.87073 3.74992 3.82994 3.70913C3.78915 3.66833 3.73718 3.64056 3.6806 3.6293C3.62402 3.61805 3.56538 3.62382 3.51208 3.6459C3.45879 3.66798 3.41324 3.70536 3.38119 3.75332C3.34914 3.80129 3.33203 3.85768 3.33203 3.91536C3.33203 3.99272 3.36276 4.06691 3.41746 4.1216C3.47216 4.1763 3.54634 4.20703 3.6237 4.20703ZM5.3737 3.6237C5.31601 3.6237 5.25962 3.6408 5.21166 3.67285C5.16369 3.7049 5.12631 3.75045 5.10423 3.80375C5.08216 3.85704 5.07638 3.91569 5.08764 3.97227C5.09889 4.02884 5.12667 4.08081 5.16746 4.1216C5.20825 4.16239 5.26022 4.19017 5.3168 4.20143C5.37338 4.21268 5.43202 4.2069 5.48532 4.18483C5.53861 4.16275 5.58416 4.12537 5.61621 4.07741C5.64826 4.02944 5.66537 3.97305 5.66537 3.91536C5.66537 3.83801 5.63464 3.76382 5.57994 3.70913C5.52524 3.65443 5.45105 3.6237 5.3737 3.6237ZM4.4987 1.58203C3.92184 1.58203 3.35793 1.75309 2.87829 2.07358C2.39864 2.39407 2.02481 2.84959 1.80405 3.38254C1.58329 3.91549 1.52554 4.50193 1.63808 5.06771C1.75062 5.63349 2.0284 6.15319 2.4363 6.56109C2.84421 6.969 3.36391 7.24678 3.92969 7.35932C4.49546 7.47186 5.08191 7.4141 5.61486 7.19335C6.14781 6.97259 6.60333 6.59875 6.92382 6.11911C7.24431 5.63947 7.41537 5.07556 7.41537 4.4987C7.41537 4.11568 7.33992 3.7364 7.19335 3.38254C7.04677 3.02867 6.83193 2.70714 6.56109 2.4363C6.29026 2.16547 5.96873 1.95063 5.61486 1.80405C5.26099 1.65747 4.88172 1.58203 4.4987 1.58203ZM4.4987 6.83203C4.03721 6.83203 3.58608 6.69518 3.20237 6.43879C2.81865 6.1824 2.51958 5.81799 2.34298 5.39163C2.16638 4.96526 2.12017 4.49611 2.2102 4.04349C2.30023 3.59086 2.52246 3.1751 2.84878 2.84878C3.17511 2.52246 3.59087 2.30023 4.04349 2.2102C4.49611 2.12017 4.96527 2.16637 5.39163 2.34298C5.81799 2.51958 6.1824 2.81865 6.43879 3.20237C6.69518 3.58608 6.83203 4.03721 6.83203 4.4987C6.83203 5.11754 6.5862 5.71103 6.14861 6.14861C5.71103 6.5862 5.11754 6.83203 4.4987 6.83203Z" fill="#064C0C"/>
<path d="M12.5404 4.79036H10.7904V6.54036H10.207V4.79036H8.45703V4.20703H10.207V2.45703H10.7904V4.20703H12.5404V4.79036Z" fill="#064C0C"/>
</svg>
