<svg width="10" height="10" viewBox="0 0 10 10" fill="none" xmlns="http://www.w3.org/2000/svg">
<path fill-rule="evenodd" clip-rule="evenodd" d="M8.45274 3.56832C8.50816 3.70291 8.59191 3.82374 8.69857 3.92249V3.92332C8.846 4.06115 8.96354 4.22781 9.0439 4.41294C9.12426 4.59808 9.16573 4.79775 9.16573 4.99957C9.16573 5.2014 9.12426 5.40107 9.0439 5.5862C8.96354 5.77134 8.846 5.93799 8.69857 6.07582C8.59216 6.17489 8.50823 6.29564 8.45245 6.42991C8.39668 6.56417 8.37035 6.70884 8.37524 6.85416C8.38215 7.05583 8.34753 7.25677 8.27354 7.44451C8.19955 7.63225 8.08776 7.80278 7.9451 7.94551C7.80245 8.08823 7.63199 8.20012 7.44429 8.27422C7.2566 8.34831 7.05567 8.38304 6.85399 8.37624C6.70868 8.3723 6.56417 8.39906 6.42991 8.45477C6.29565 8.51049 6.17465 8.59391 6.07483 8.69957C5.93697 8.84682 5.77036 8.96419 5.58531 9.04444C5.40025 9.12468 5.2007 9.16609 4.99899 9.16609C4.79729 9.16609 4.59773 9.12468 4.41268 9.04444C4.22762 8.96419 4.06101 8.84682 3.92316 8.69957C3.82399 8.59305 3.70312 8.50906 3.56869 8.45328C3.43427 8.3975 3.28944 8.37123 3.14399 8.37624C2.94219 8.38322 2.74111 8.34861 2.55326 8.27456C2.36541 8.20052 2.1948 8.08861 2.05204 7.94581C1.90928 7.80302 1.79742 7.63237 1.72342 7.4445C1.64943 7.25663 1.61487 7.05554 1.62191 6.85374C1.62686 6.70846 1.60059 6.56381 1.54489 6.42954C1.48918 6.29528 1.40533 6.17451 1.29899 6.07541C1.15162 5.93754 1.03413 5.77088 0.953802 5.58575C0.873478 5.40062 0.832031 5.20096 0.832031 4.99916C0.832031 4.79735 0.873478 4.59769 0.953802 4.41256C1.03413 4.22743 1.15162 4.06077 1.29899 3.92291C1.40544 3.8237 1.48935 3.70281 1.54506 3.56839C1.60077 3.43397 1.62698 3.28916 1.62191 3.14374C1.61539 2.94204 1.65021 2.74114 1.72423 2.5534C1.79825 2.36566 1.90991 2.19505 2.05233 2.05207C2.19606 1.91072 2.36681 1.79979 2.55437 1.72591C2.74194 1.65203 2.94247 1.61671 3.14399 1.62207C3.28955 1.62825 3.4347 1.60256 3.56929 1.54678C3.70387 1.491 3.82465 1.40649 3.92316 1.29916C4.06095 1.15174 4.22757 1.0342 4.41267 0.95385C4.59777 0.873495 4.79741 0.832031 4.9992 0.832031C5.20099 0.832031 5.40063 0.873495 5.58573 0.95385C5.77083 1.0342 5.93745 1.15174 6.07524 1.29916C6.1744 1.40555 6.29522 1.48943 6.42957 1.54514C6.56391 1.60084 6.70864 1.62708 6.85399 1.62207C7.05573 1.61497 7.25678 1.64947 7.44461 1.72343C7.63244 1.79739 7.80303 1.90922 7.94577 2.05196C8.08851 2.1947 8.20034 2.3653 8.2743 2.55313C8.34826 2.74096 8.38276 2.942 8.37566 3.14374C8.37066 3.28957 8.39691 3.43416 8.45232 3.56874L8.45274 3.56832ZM4.13482 3.06999C4.02432 3.06999 3.91834 3.11389 3.8402 3.19203C3.76206 3.27017 3.71816 3.37615 3.71816 3.48666C3.71816 3.59716 3.76206 3.70314 3.8402 3.78128C3.91834 3.85942 4.02432 3.90332 4.13482 3.90332H4.13899C4.2495 3.90332 4.35548 3.85942 4.43362 3.78128C4.51176 3.70314 4.55566 3.59716 4.55566 3.48666C4.55566 3.37615 4.51176 3.27017 4.43362 3.19203C4.35548 3.11389 4.2495 3.06999 4.13899 3.06999H4.13482ZM6.58857 3.99749C6.66676 3.91936 6.7107 3.81337 6.71074 3.70284C6.71078 3.59232 6.66691 3.4863 6.58878 3.40811C6.51065 3.32993 6.40467 3.28599 6.29414 3.28595C6.18361 3.28591 6.07759 3.32978 5.99941 3.40791L3.40858 5.99874C3.33268 6.07732 3.29068 6.18257 3.29163 6.29182C3.29258 6.40107 3.3364 6.50558 3.41365 6.58283C3.4909 6.66008 3.59541 6.7039 3.70466 6.70485C3.81391 6.7058 3.91916 6.66381 3.99774 6.58791L6.58857 3.99749ZM5.42607 6.09249C5.31557 6.09249 5.20959 6.13639 5.13145 6.21453C5.05331 6.29267 5.00941 6.39865 5.00941 6.50916C5.00941 6.61966 5.05331 6.72564 5.13145 6.80378C5.20959 6.88192 5.31557 6.92582 5.42607 6.92582H5.43024C5.54075 6.92582 5.64673 6.88192 5.72487 6.80378C5.80301 6.72564 5.84691 6.61966 5.84691 6.50916C5.84691 6.39865 5.80301 6.29267 5.72487 6.21453C5.64673 6.13639 5.54075 6.09249 5.43024 6.09249H5.42607Z" fill="black"/>
</svg>
