<svg width="16" height="19" viewBox="0 0 16 19" fill="none" xmlns="http://www.w3.org/2000/svg">
<path d="M2 18.3074C1.436 18.3074 0.961667 18.1151 0.577 17.7304C0.192333 17.3457 0 16.8744 0 16.3164V14.3074H3V0.692406L4.27 1.57641L5.577 0.691406L6.885 1.57641L8.192 0.691406L9.5 1.57641L10.808 0.692406L12.116 1.57641L13.423 0.692406L14.731 1.57641L16 0.691406V16.3074C16 16.8714 15.8077 17.3457 15.423 17.7304C15.0383 18.1151 14.564 18.3074 14 18.3074H2ZM14 17.3074C14.2833 17.3074 14.521 17.2114 14.713 17.0194C14.905 16.8274 15.0007 16.5901 15 16.3074V2.30741H4V14.3074H13V16.3074C13 16.5907 13.096 16.8284 13.288 17.0204C13.48 17.2124 13.7173 17.3081 14 17.3074ZM5.385 5.80741V4.80741H10.731V5.80741H5.385ZM5.385 8.80741V7.80741H10.731V8.80741H5.385ZM12.885 6.07741C12.6783 6.07741 12.4983 6.00074 12.345 5.84741C12.1917 5.69407 12.115 5.51407 12.115 5.30741C12.115 5.10074 12.1917 4.92074 12.345 4.76741C12.4983 4.61407 12.6783 4.53741 12.885 4.53741C13.0917 4.53741 13.2713 4.61407 13.424 4.76741C13.5767 4.92074 13.6533 5.10074 13.654 5.30741C13.6547 5.51407 13.578 5.69407 13.424 5.84741C13.27 6.00074 13.091 6.07741 12.885 6.07741ZM12.884 9.07741C12.678 9.07741 12.4983 9.00074 12.345 8.84741C12.1917 8.69407 12.115 8.51407 12.115 8.30741C12.115 8.10074 12.1917 7.92074 12.345 7.76741C12.4983 7.61407 12.6783 7.53741 12.885 7.53741C13.0917 7.53741 13.2713 7.61407 13.424 7.76741C13.5767 7.92074 13.6533 8.10074 13.654 8.30741C13.6547 8.51407 13.578 8.69407 13.424 8.84741C13.27 9.00074 13.09 9.07741 12.884 9.07741ZM2 17.3074H12V15.3074H1V16.3074C1 16.5907 1.096 16.8284 1.288 17.0204C1.48 17.2124 1.71733 17.3081 2 17.3074Z" fill="black"/>
</svg>
