<svg width="25" height="25" viewBox="0 0 25 25" fill="none" xmlns="http://www.w3.org/2000/svg">
<path d="M13.5104 16.5038C13.5017 16.308 13.3438 16.1484 13.1478 16.1484C12.9518 16.1484 12.7921 16.3079 12.8002 16.5037C12.9077 19.1206 14.2158 20.9703 16.6045 21.8838C16.7874 21.9538 16.9891 21.8527 17.051 21.6668C17.1129 21.4809 17.0114 21.2807 16.8287 21.21C14.7272 20.397 13.6125 18.8162 13.5104 16.5038Z" fill="#FB6D3A"/>
<path d="M9.02891 11.7825C9.05691 11.5886 8.92974 11.4038 8.73701 11.3686C8.54425 11.3333 8.35892 11.4609 8.33045 11.6547C8.23045 12.3358 8.17969 13.1285 8.17969 14.0167C8.17969 15.0141 8.34424 15.9116 8.66928 16.6904C8.74478 16.8714 8.95895 16.9425 9.13447 16.8552C9.30993 16.7679 9.38023 16.5554 9.3065 16.3738C9.02961 15.6919 8.88937 14.9008 8.88937 14.0167C8.88937 13.173 8.93638 12.4235 9.02891 11.7825Z" fill="#FB6D3A"/>
<path d="M22.1774 17.1739C23.2795 16.6225 23.793 15.5069 23.793 13.6628C23.793 11.0154 21.3283 9.81174 20.5728 9.5048C20.5192 9.22235 20.3798 8.95125 20.1772 8.69506H20.5994C21.9691 8.69506 23.0833 7.58087 23.0833 6.21119V5.85635H21.3091C20.1729 5.85635 19.2184 6.6118 18.9225 7.65716C17.9491 7.07593 16.7636 6.68242 15.9677 6.58838C15.8265 5.21196 14.8624 4.23012 14.818 4.18577L14.7141 4.08216H12.793L12.7937 5.3358L12.9498 5.44119C12.959 5.44758 13.8575 6.06393 13.8575 6.92087C13.8575 7.12064 13.7074 7.30516 13.4881 7.49535C13.4154 6.86693 12.8575 6.39429 12.3104 5.93867C11.8498 5.55474 11.3736 5.15803 11.3736 4.79183C11.3736 3.24332 10.253 2.10464 10.2051 2.05709L10.1012 1.95312H8.18007L8.18078 3.20677L8.3369 3.31216C8.34365 3.31677 8.84539 3.66132 9.09981 4.19216C8.35606 4.35751 7.44377 4.70632 6.66597 5.17613C6.3711 4.12935 5.41587 3.37248 4.27861 3.37248H2.50442V3.72732C2.50442 5.097 3.61861 6.21119 4.98829 6.21119H5.42226C5.21645 6.46845 5.0731 6.73919 5.01739 7.01916C4.26619 7.32361 1.79297 8.52722 1.79297 11.1789C1.79297 13.023 2.30642 14.1386 3.40855 14.6901L3.922 14.9466V14.3725C3.922 13.303 4.34639 12.3581 4.64055 11.8318L5.28636 12.8002L5.59223 12.494C5.64013 12.4468 6.76071 11.3081 6.76071 9.75958C6.76071 8.25648 6.05955 7.43716 5.7189 7.12738C5.91407 6.219 7.82771 5.20345 9.22932 4.88942C9.15623 5.22793 8.72758 5.58845 8.30745 5.93867C7.72161 6.42693 7.11555 6.93222 7.11555 7.63054V9.18722L7.58252 9.0318C7.59494 9.02754 7.61516 9.0208 7.63681 9.013C7.14997 9.97922 6.76071 11.4742 6.76071 14.0176C6.76071 19.5712 10.9489 21.162 13.5204 21.6151C15.7821 23.7164 19.2056 23.9531 20.5994 23.9531H21.4666C21.967 23.9531 22.3736 23.5465 22.3736 23.0273C22.3736 22.5955 22.0674 22.2286 21.6292 22.1353C20.0689 21.8039 17.7607 19.5584 17.7607 15.7918C17.7607 12.8917 17.5936 12.0036 17.3746 11.0597C17.507 11.1122 17.6067 11.147 17.6482 11.1608L18.1155 11.3163V9.75958C18.1155 8.82067 17.3825 8.27529 16.7934 7.83706C16.5567 7.66106 16.3403 7.49819 16.1902 7.33496C17.5872 7.59577 19.6595 8.68122 19.8663 9.61196C19.5257 9.92174 18.8252 10.7407 18.8252 12.2434C18.8252 13.792 19.9458 14.9306 19.9937 14.9782L20.2996 15.2844L20.9461 14.315C21.2403 14.8391 21.6639 15.7819 21.6639 16.8563V17.4305L22.1774 17.1739ZM21.3091 6.56603H22.3378C22.1731 7.37471 21.456 7.98538 20.5994 7.98538H19.57C19.7336 7.16996 20.4497 6.56603 21.3091 6.56603ZM3.24958 4.08216H4.27826C5.13768 4.08216 5.85374 4.68609 6.01732 5.50151H4.98794C4.13136 5.50151 3.41458 4.89083 3.24958 4.08216ZM6.05103 9.75958C6.05103 10.5654 5.65503 11.257 5.37152 11.6491L4.64871 10.5647L4.34781 10.966C4.30665 11.0207 3.45397 12.1746 3.25384 13.7306C2.84719 13.3434 2.50265 12.6363 2.50265 11.1789C2.50265 9.00448 4.63736 7.94848 5.27571 7.68164C5.52694 7.9208 6.05103 8.56306 6.05103 9.75958ZM7.82523 7.63054C7.82523 7.26435 8.30142 6.86764 8.762 6.48371C9.34819 5.99545 9.95426 5.49016 9.95426 4.79183C9.95426 3.81142 9.22152 3.10848 8.88974 2.84058V2.6628H9.79742C10.0391 2.9449 10.6639 3.77238 10.6639 4.79183C10.6639 5.49016 11.27 5.99545 11.8562 6.48371C12.3168 6.86764 12.793 7.26435 12.793 7.63054V8.03222C12.7564 8.06061 12.7199 8.09042 12.6833 8.11987C11.8686 7.73806 11.3736 7.29167 11.3736 6.92087H10.6639C10.6639 7.13909 10.7278 7.34135 10.8321 7.52835C10.6224 8.11312 10.4042 8.34022 10.3091 8.34022C10.214 8.34022 9.99578 8.11277 9.78571 7.52693C9.88932 7.34064 9.95426 7.13909 9.95426 6.92087H9.24458C9.24458 7.39919 8.46003 7.88603 7.82523 8.17274V7.63054ZM7.47039 14.0176C7.47039 10.4714 8.23506 9.14216 8.91352 8.39061C9.03523 8.31112 9.15481 8.22561 9.26694 8.13193C9.54868 8.73835 9.89713 9.0499 10.3091 9.0499C10.7214 9.0499 11.0706 8.73764 11.352 8.12945C11.5947 8.33171 11.8732 8.50345 12.1436 8.64467C11.9009 8.94664 11.7285 9.3068 11.7285 9.75958V11.3163L12.1954 11.1608C12.2078 11.1566 12.2281 11.1498 12.2497 11.142C11.7629 12.1083 11.3736 13.6032 11.3736 16.1467C11.3736 18.1277 11.9041 19.6067 12.716 20.7134C10.1264 20.0343 7.47039 18.2963 7.47039 14.0176ZM16.6405 11.037C16.8701 12.0142 17.051 12.7864 17.051 15.7918C17.051 19.9967 19.6417 22.4387 21.4815 22.8293C21.5724 22.8489 21.6639 22.9177 21.6639 23.0462C21.6639 23.1547 21.5752 23.2434 21.4666 23.2434H20.5994C18.0389 23.2434 12.0833 22.5519 12.0833 16.1467C12.0833 12.6004 12.848 11.2712 13.5264 10.5196C13.6481 10.4402 13.7677 10.3546 13.8798 10.261C14.1616 10.8674 14.51 11.1789 14.922 11.1789C15.334 11.1789 15.6824 10.8674 15.9642 10.261C16.149 10.4153 16.3538 10.5502 16.5553 10.6665C16.5841 10.7946 16.6128 10.9185 16.6405 11.037ZM16.3701 8.40658C16.9027 8.80293 17.4059 9.17729 17.4059 9.75958V10.3018C16.7711 10.0151 15.9865 9.52822 15.9865 9.0499H15.2768C15.2768 9.26812 15.3418 9.46967 15.4454 9.65596C15.2353 10.2418 15.0175 10.4693 14.922 10.4693C14.8269 10.4693 14.6087 10.2418 14.3986 9.65596C14.5022 9.46967 14.5672 9.26812 14.5672 9.0499H13.8575C13.8575 9.52822 13.0729 10.0151 12.4381 10.3018V9.75958C12.4381 9.17729 12.9413 8.80293 13.4739 8.40658C14.0115 8.00667 14.5672 7.59329 14.5672 6.92087C14.5672 5.94045 13.8344 5.23751 13.5026 4.96961V4.79183H14.4103C14.652 5.07393 15.2768 5.90142 15.2768 6.92087C15.2768 7.59329 15.8325 8.00667 16.3701 8.40658ZM21.2381 13.4499L20.9372 13.0486L20.2137 14.134C19.9302 13.7441 19.5349 13.0543 19.5349 12.2434C19.5349 11.0473 20.0576 10.4057 20.3109 10.1652C20.9496 10.4306 23.0833 11.4805 23.0833 13.6628C23.0833 15.1201 22.7387 15.8273 22.3317 16.2144C22.132 14.6585 21.2793 13.5045 21.2381 13.4499Z" fill="#FB6D3A"/>
</svg>
