<svg width="18" height="18" viewBox="0 0 18 18" fill="none" xmlns="http://www.w3.org/2000/svg">
<path d="M17.6719 9C17.6719 9.37583 17.5278 9.73913 17.2583 10.0022C16.9951 10.2716 16.6317 10.4219 16.2557 10.4219H10.5912V16.0844C10.5912 16.4602 10.4408 16.8235 10.1713 17.0866C9.90814 17.3497 9.55098 17.5 9.17501 17.5C8.79904 17.5 8.43561 17.3497 8.17243 17.0866C7.90298 16.8235 7.7526 16.4602 7.7526 16.0844V10.4219H2.08802C1.71205 10.4219 1.34862 10.2716 1.08544 10.0022C0.822262 9.73913 0.671875 9.37583 0.671875 9C0.671875 8.62417 0.822262 8.26713 1.08544 7.99779C1.34862 7.73471 1.71205 7.58438 2.08802 7.58438H7.7526V1.92189C7.7526 1.54606 7.90298 1.18276 8.17243 0.919676C8.43561 0.650332 8.79904 0.5 9.17501 0.5C9.55098 0.5 9.90814 0.650332 10.1713 0.919676C10.4408 1.18276 10.5912 1.54606 10.5912 1.92189V7.58438H16.2557C16.6317 7.58438 16.9951 7.73471 17.2583 7.99779C17.5278 8.26713 17.6719 8.62417 17.6719 9Z" fill="#828282"/>
</svg>
