<svg width="24" height="25" viewBox="0 0 24 25" fill="none" xmlns="http://www.w3.org/2000/svg">
<path d="M12 3.09863C13.2544 3.09863 14.3396 3.52231 15.0322 4.14453C15.7204 4.76291 16.0068 5.55595 15.7568 6.35645L15.6553 6.68262L15.9824 6.77637C16.5916 6.9515 17.038 7.51392 17.0381 8.17676C17.0381 8.80462 16.6384 9.34283 16.0781 9.54688L15.8438 9.63184L15.8594 9.88184C15.9376 11.0988 16.3265 12.5996 16.8213 14.1318C17.0695 14.9006 17.3469 15.6841 17.6289 16.4512L18.4648 18.6729C19.2222 20.6657 17.7478 22.8047 15.6152 22.8047H8.38477C6.31926 22.8047 4.87002 20.7973 5.4707 18.8594L5.53516 18.6729C6.05696 17.3008 6.66837 15.7098 7.16797 14.166C7.66595 12.6272 8.06185 11.108 8.14062 9.88184L8.15625 9.63184L7.92188 9.54688C7.36165 9.3428 6.96191 8.80458 6.96191 8.17676C6.96203 7.51392 7.4084 6.95147 8.01758 6.77637L8.34473 6.68262L8.24316 6.35645C7.99328 5.55609 8.27965 4.76294 8.96777 4.14453C9.66034 3.52229 10.7454 3.09864 12 3.09863ZM11.8496 14.7168L6.70215 17.3271L6.58594 17.3857L6.54004 17.5068L6.02734 18.8594C5.39949 20.5111 6.616 22.2773 8.38477 22.2773H15.6152C17.3271 22.2773 18.5249 20.6214 18.0264 19.0146L17.9727 18.8594C17.7933 18.3876 17.6275 17.9517 17.46 17.5068L17.4141 17.3857L17.2988 17.3271L12.1504 14.7168L12 14.6396L11.8496 14.7168ZM8.66504 9.94531C8.55282 11.6109 7.91417 13.7172 7.14551 15.8662L6.86328 16.6543L7.60938 16.2764L11.8809 14.1094C11.9368 14.081 12.0006 14.0738 12.0605 14.0879L12.1191 14.1094L16.3906 16.2764L17.1367 16.6543L16.8545 15.8662C16.0859 13.7173 15.4482 11.6109 15.3359 9.94531L15.3145 9.63379H8.68555L8.66504 9.94531ZM8.41895 7.24707C7.90585 7.24709 7.4894 7.66369 7.48926 8.17676C7.48926 8.68994 7.90576 9.10741 8.41895 9.10742H15.5811C16.0943 9.10742 16.5117 8.68995 16.5117 8.17676C16.5116 7.66368 16.0942 7.24707 15.5811 7.24707H8.41895ZM12.9307 3.70898L12.6416 3.66992C12.2144 3.61194 11.7855 3.61193 11.3584 3.66992L11.0703 3.70898V4.5957C11.0703 4.74113 10.952 4.85922 10.8066 4.85938C10.6611 4.85938 10.543 4.74123 10.543 4.5957V3.82031L10.0664 4.04688C9.57889 4.2794 9.13547 4.62441 8.88672 5.05566C8.62674 5.50643 8.58919 6.04104 8.91309 6.5625L9.01074 6.71973H14.9893L15.0869 6.5625C15.3961 6.06471 15.3787 5.54085 15.1309 5.08691C14.9226 4.70549 14.5602 4.38551 14.125 4.14551L13.9336 4.04688L13.457 3.82031V4.5957C13.457 4.74123 13.3389 4.85938 13.1934 4.85938C13.048 4.85917 12.9307 4.7411 12.9307 4.5957V3.70898Z" fill="#FB6D3A" stroke="#FB6D3A" stroke-width="0.666667"/>
<path d="M9.61247 19.5179C9.9421 19.5179 10.2093 19.2507 10.2093 18.9211C10.2093 18.5914 9.9421 18.3242 9.61247 18.3242C9.28284 18.3242 9.01562 18.5914 9.01562 18.9211C9.01562 19.2507 9.28284 19.5179 9.61247 19.5179Z" fill="#FB6D3A"/>
<path d="M11.4015 17.7249C11.7312 17.7249 11.9984 17.4577 11.9984 17.1281C11.9984 16.7985 11.7312 16.5312 11.4015 16.5312C11.0719 16.5312 10.8047 16.7985 10.8047 17.1281C10.8047 17.4577 11.0719 17.7249 11.4015 17.7249Z" fill="#FB6D3A"/>
<path d="M12.5968 20.1156C12.9265 20.1156 13.1937 19.8483 13.1937 19.5187C13.1937 19.1891 12.9265 18.9219 12.5968 18.9219C12.2672 18.9219 12 19.1891 12 19.5187C12 19.8483 12.2672 20.1156 12.5968 20.1156Z" fill="#FB6D3A"/>
</svg>
