<svg width="24" height="25" viewBox="0 0 24 25" fill="none" xmlns="http://www.w3.org/2000/svg">
<path d="M16.0781 9.54687L15.8435 9.6323L15.8595 9.88143C15.9376 11.0986 16.3266 12.5996 16.8215 14.1321C17.292 15.5892 17.8663 17.0985 18.3809 18.4509C18.4092 18.5253 18.4373 18.5992 18.4652 18.6726C19.2227 20.6655 17.748 22.8046 15.6153 22.8046H8.3848C6.25282 22.8046 4.77723 20.666 5.53493 18.6726C5.56869 18.5838 5.60281 18.4941 5.63726 18.4036C6.13541 17.0949 6.70066 15.6098 7.16796 14.1658C7.66599 12.6268 8.0619 11.1077 8.14061 9.88143L8.15661 9.6323L7.92203 9.54687C7.36173 9.34283 6.96177 8.80489 6.96177 8.17702C6.96177 7.51407 7.40801 6.95176 8.01727 6.77664L8.34507 6.68242L8.24335 6.35686C7.99319 5.55625 8.27961 4.76282 8.96808 4.14426C9.66066 3.52201 10.7454 3.09896 12 3.09896C13.2545 3.09896 14.3393 3.52194 15.032 4.14416C15.7205 4.76268 16.007 5.5561 15.7568 6.35685L15.655 6.6824L15.9828 6.77663C16.5921 6.95179 17.0383 7.51407 17.0383 8.17702C17.0383 8.80489 16.6384 9.34283 16.0781 9.54687ZM15.3355 9.94515L15.3145 9.63422H15.0029H8.99728H8.68564L8.6647 9.94515C8.5525 11.6108 7.9139 13.7172 7.14519 15.8664L6.86324 16.6546L7.60984 16.2759L11.8809 14.1094L11.8809 14.1094C11.9558 14.0714 12.0444 14.0714 12.1193 14.1094L12.1193 14.1094L16.3903 16.2759L17.1369 16.6546L16.855 15.8664C16.0863 13.7172 15.4477 11.6108 15.3355 9.94515ZM10.5428 4.34814V3.81985L10.066 4.04728C9.5785 4.2798 9.1356 4.62443 8.88686 5.05569C8.62685 5.50646 8.5894 6.04089 8.91331 6.56236L9.01111 6.71982H9.19646H14.8035H14.9889L15.0867 6.56235C15.3959 6.06453 15.3788 5.54075 15.1309 5.08681C14.8928 4.65081 14.4535 4.29499 13.9341 4.04727L13.4572 3.81987V4.34814V4.59595C13.4572 4.74147 13.3393 4.85946 13.1937 4.85946C13.0482 4.85946 12.9302 4.74147 12.9302 4.59595V3.99978V3.70864L12.6417 3.66948C12.2145 3.61148 11.7854 3.61148 11.3583 3.66948L11.0699 3.70866V3.99978V4.59595C11.0699 4.74147 10.9519 4.85946 10.8064 4.85946C10.6608 4.85946 10.5428 4.74147 10.5428 4.59595V4.34814ZM6.02759 18.8598L6.33917 18.9782L6.02759 18.8598C5.39973 20.5116 6.61602 22.2776 8.3848 22.2776H15.6153C17.3823 22.2776 18.601 20.5132 17.9725 18.8598L17.661 18.9783L17.9725 18.8598C17.9462 18.7907 17.9202 18.7223 17.8945 18.6545C17.7445 18.26 17.6026 17.887 17.4596 17.5073L17.414 17.3861L17.2985 17.3275L12.1508 14.7164L12 14.6399L11.8493 14.7164L6.70166 17.3274L6.58615 17.386L6.54051 17.5072C6.39954 17.8816 6.26322 18.2401 6.10866 18.6466C6.08221 18.7161 6.05522 18.7871 6.02759 18.8598ZM15.5811 7.24684H8.41897C7.90578 7.24684 7.4888 7.66382 7.4888 8.17702C7.4888 8.69021 7.90578 9.1072 8.41897 9.1072H15.5811C16.0943 9.1072 16.5113 8.69021 16.5113 8.17702C16.5113 7.66382 16.0943 7.24684 15.5811 7.24684Z" fill="#FB6D3A" stroke="#FB6D3A" stroke-width="0.666667"/>
<path d="M9.61247 19.5179C9.9421 19.5179 10.2093 19.2507 10.2093 18.9211C10.2093 18.5914 9.9421 18.3242 9.61247 18.3242C9.28284 18.3242 9.01562 18.5914 9.01562 18.9211C9.01562 19.2507 9.28284 19.5179 9.61247 19.5179Z" fill="#FB6D3A"/>
<path d="M11.4015 17.7249C11.7312 17.7249 11.9984 17.4577 11.9984 17.1281C11.9984 16.7985 11.7312 16.5312 11.4015 16.5312C11.0719 16.5312 10.8047 16.7985 10.8047 17.1281C10.8047 17.4577 11.0719 17.7249 11.4015 17.7249Z" fill="#FB6D3A"/>
<path d="M12.5968 20.1156C12.9265 20.1156 13.1937 19.8483 13.1937 19.5187C13.1937 19.1891 12.9265 18.9219 12.5968 18.9219C12.2672 18.9219 12 19.1891 12 19.5187C12 19.8483 12.2672 20.1156 12.5968 20.1156Z" fill="#FB6D3A"/>
</svg>
