<svg width="19" height="19" viewBox="0 0 19 19" fill="none" xmlns="http://www.w3.org/2000/svg">
<path d="M18.2672 17.2309L13.4822 12.4459L12.4459 13.4822L17.2309 18.2672L18.2672 17.2309ZM8.17803 14.6233C4.61843 14.6233 1.73277 11.7376 1.73277 8.17803H0.267228C0.267228 12.547 3.80903 16.0888 8.17803 16.0888V14.6233ZM1.73277 8.17803C1.73277 4.61843 4.61843 1.73277 8.17803 1.73277V0.267228C3.80903 0.267228 0.267228 3.80903 0.267228 8.17803H1.73277ZM8.17803 1.73277C11.7376 1.73277 14.6233 4.61843 14.6233 8.17803H16.0888C16.0888 3.80903 12.547 0.267228 8.17803 0.267228V1.73277ZM14.6233 8.17803C14.6233 11.7376 11.7376 14.6233 8.17803 14.6233V16.0888C12.547 16.0888 16.0888 12.547 16.0888 8.17803H14.6233Z" fill="#0A0C0B"/>
</svg>
