<svg width="20" height="18" viewBox="0 0 20 18" fill="none" xmlns="http://www.w3.org/2000/svg">
<path d="M18.8992 15.9075L15.4983 12.8409C16.8184 11.3445 17.4577 9.44527 17.2847 7.5336C17.1118 5.62194 16.1397 3.84317 14.5684 2.56306C12.9971 1.28294 10.946 0.59878 8.83684 0.651247C6.72769 0.703714 4.72082 1.48882 3.22887 2.84514C1.73692 4.20146 0.873304 6.02589 0.81559 7.94329C0.757876 9.86069 1.51046 11.7253 2.91858 13.1538C4.32671 14.5822 6.28335 15.466 8.38618 15.6232C10.489 15.7804 12.5782 15.1993 14.2242 13.9992L17.5975 17.0659C17.6827 17.144 17.7841 17.206 17.8958 17.2483C18.0075 17.2906 18.1273 17.3124 18.2483 17.3124C18.3693 17.3124 18.4891 17.2906 18.6009 17.2483C18.7126 17.206 18.8139 17.144 18.8992 17.0659C19.0644 16.9105 19.1567 16.7028 19.1567 16.4867C19.1567 16.2706 19.0644 16.0629 18.8992 15.9075ZM9.08166 13.9992C7.81256 13.9992 6.57196 13.6571 5.51675 13.0161C4.46153 12.3751 3.63909 11.4641 3.15343 10.3982C2.66777 9.33227 2.5407 8.15938 2.78829 7.02783C3.03587 5.89627 3.647 4.85687 4.54439 4.04107C5.44178 3.22526 6.58512 2.66969 7.82983 2.44461C9.07454 2.21953 10.3647 2.33505 11.5372 2.77656C12.7097 3.21807 13.7119 3.96574 14.4169 4.92503C15.122 5.88432 15.4983 7.01213 15.4983 8.16585C15.4983 9.71295 14.8223 11.1967 13.6189 12.2906C12.4156 13.3846 10.7835 13.9992 9.08166 13.9992Z" fill="#9C9C9C"/>
</svg>
