<svg width="13" height="13" viewBox="0 0 13 13" fill="none" xmlns="http://www.w3.org/2000/svg">
<path d="M6.13433 0.429688C9.52232 0.429688 12.2687 3.11589 12.2687 6.42969C12.2687 9.74349 9.52232 12.4297 6.13433 12.4297C2.74634 12.4297 0 9.74349 0 6.42969C0 3.11589 2.74634 0.429688 6.13433 0.429688ZM6.13433 2.82969C5.97164 2.82969 5.81561 2.8929 5.70057 3.00542C5.58553 3.11795 5.5209 3.27056 5.5209 3.42969V6.42969C5.52093 6.5888 5.58558 6.74139 5.70063 6.85389L7.54093 8.65389C7.65662 8.76318 7.81158 8.82366 7.97242 8.82229C8.13326 8.82092 8.28712 8.75782 8.40085 8.64658C8.51459 8.53533 8.5791 8.38485 8.5805 8.22753C8.5819 8.07021 8.52007 7.91865 8.40832 7.80549L6.74776 6.18129V3.42969C6.74776 3.27056 6.68313 3.11795 6.56809 3.00542C6.45305 2.8929 6.29702 2.82969 6.13433 2.82969Z" fill="#FF8A00"/>
</svg>
